<svg width="34" height="35" viewBox="0 0 34 35" fill="none" xmlns="http://www.w3.org/2000/svg">
<g clip-path="url(#clip0_54_164)">
<path d="M32.755 4.05608L30.2641 1.56519C29.4346 0.735107 28.3469 0.320068 27.2592 0.320068C26.1714 0.320068 25.0837 0.735107 24.2536 1.56452L0.853387 24.9648L0.0100272 32.5497C-0.0962228 33.5046 0.65616 34.3201 1.5905 34.3201C1.6496 34.3201 1.7087 34.3167 1.76913 34.3101L9.34874 33.4727L32.7556 10.0658C34.4151 8.40636 34.4151 5.71558 32.755 4.05608ZM8.37323 31.4433L2.19546 32.128L2.88343 25.9409L20.4074 8.41698L25.9038 13.9134L8.37323 31.4433ZM31.2528 8.56374L27.4059 12.4107L21.9095 6.91421L25.7564 3.06729C26.1575 2.6662 26.6914 2.44507 27.2592 2.44507C27.8269 2.44507 28.3602 2.6662 28.7619 3.06729L31.2528 5.55819C32.0809 6.38694 32.0809 7.73499 31.2528 8.56374Z" fill="black"/>
</g>
<defs>
<clipPath id="clip0_54_164">
<rect width="34" height="34" fill="white" transform="translate(0 0.320068)"/>
</clipPath>
</defs>
</svg>
