<svg width="34" height="30" viewBox="0 0 34 30" fill="none" xmlns="http://www.w3.org/2000/svg">
<path d="M16.761 3C9.35599 3 3.35217 8.373 3.35217 15C3.35217 21.627 9.35599 27 16.761 27C24.1661 27 30.1699 21.627 30.1699 15C30.1699 8.373 24.1661 3 16.761 3ZM21.4329 11H19.5009C18.2986 11 17.8784 11.568 17.8784 12.718V14H21.4027L20.9245 17H17.8784V24.95C17.5108 24.982 17.1387 25 16.761 25C15.9956 25 15.2481 24.93 14.5262 24.799V17H11.174V14H14.5262V12.389C14.5262 9.339 16.1867 8 19.0193 8C20.3758 8 21.0932 8.09 21.4329 8.131V11Z" fill="white"/>
</svg>
