<svg width="35" height="30" viewBox="0 0 35 30" fill="none" xmlns="http://www.w3.org/2000/svg">
<path d="M11.259 1.79999C6.45356 1.79999 2.54321 5.29948 2.54321 9.59999V20.4C2.54321 24.7005 6.45356 28.2 11.259 28.2H23.327C28.1324 28.2 32.0427 24.7005 32.0427 20.4V9.59999C32.0427 5.29948 28.1324 1.79999 23.327 1.79999H11.259ZM11.259 2.99999H23.327C27.4076 2.99999 30.7018 5.9481 30.7018 9.59999V20.4C30.7018 24.0519 27.4076 27 23.327 27H11.259C7.17834 27 3.8841 24.0519 3.8841 20.4V9.59999C3.8841 5.9481 7.17834 2.99999 11.259 2.99999ZM25.3383 6.59999C24.5977 6.59999 23.9974 7.13725 23.9974 7.79999C23.9974 8.46273 24.5977 8.99999 25.3383 8.99999C26.0788 8.99999 26.6792 8.46273 26.6792 7.79999C26.6792 7.13725 26.0788 6.59999 25.3383 6.59999ZM17.293 8.39999C13.2279 8.39999 9.91809 11.362 9.91809 15C9.91809 18.638 13.2279 21.6 17.293 21.6C21.3581 21.6 24.6679 18.638 24.6679 15C24.6679 11.362 21.3581 8.39999 17.293 8.39999ZM17.293 9.59999C20.6334 9.59999 23.327 12.0105 23.327 15C23.327 17.9894 20.6334 20.4 17.293 20.4C13.9525 20.4 11.259 17.9894 11.259 15C11.259 12.0105 13.9525 9.59999 17.293 9.59999Z" fill="white"/>
</svg>
