<svg width="66" height="83" viewBox="0 0 66 83" fill="none" xmlns="http://www.w3.org/2000/svg">
<rect x="0.434827" y="1.03471" width="63.9212" height="63.488" rx="21.5692" transform="rotate(-0.537736 0.434827 1.03471)" stroke="#B7CAD0" stroke-width="0.861606"/>
<g clip-path="url(#clip0_68_26)">
<path d="M41.2397 15.8909C37.9592 14.2003 34.2511 13.5205 30.5842 13.9374C26.9174 14.3542 23.4565 15.8491 20.6392 18.2329C17.8219 20.6167 15.7748 23.7824 14.7567 27.3297C13.7386 30.877 13.7952 34.6465 14.9195 38.1615C16.0437 41.6766 18.185 44.7794 21.0726 47.0775C23.9603 49.3755 27.4645 50.7657 31.1422 51.0722C34.82 51.3787 38.506 50.5878 41.7342 48.7994C44.9624 47.011 47.5878 44.3055 49.2784 41.025C51.5454 36.626 51.972 31.5067 50.4645 26.7931C48.9569 22.0795 45.6387 18.1579 41.2397 15.8909ZM26.5501 47.3048L27.1606 46.1201C27.3226 45.8058 27.353 45.4402 27.2454 45.1035C27.1377 44.7668 26.9007 44.4867 26.5865 44.3248C26.2722 44.1628 25.9066 44.1324 25.5699 44.24C25.2332 44.3477 24.9531 44.5847 24.7912 44.8989L24.1806 46.0837C20.9714 44.0705 18.581 40.9835 17.4352 37.3726C16.2893 33.7617 16.4625 29.8612 17.9237 26.366L19.0492 26.946C19.3634 27.1079 19.7291 27.1384 20.0658 27.0307C20.4025 26.923 20.6826 26.686 20.8445 26.3718C21.0065 26.0576 21.0369 25.6919 20.9292 25.3552C20.8216 25.0186 20.5845 24.7384 20.2703 24.5765L19.0856 23.966C21.0988 20.7568 24.1857 18.3664 27.7967 17.2205C31.4076 16.0747 35.3081 16.2478 38.8033 17.7091L38.2233 18.8346C38.0613 19.1488 38.0309 19.5145 38.1386 19.8512C38.2462 20.1878 38.4833 20.468 38.7975 20.6299C39.1117 20.7918 39.4774 20.8223 39.814 20.7146C40.1507 20.6069 40.4308 20.3699 40.5928 20.0557L41.2033 18.871C44.43 20.8762 46.8375 23.9645 47.9948 27.583C49.1521 31.2014 48.9836 35.1137 47.5194 38.6192L46.3347 38.0086C46.0205 37.8467 45.6548 37.8162 45.3181 37.9239C44.9814 38.0316 44.7013 38.2686 44.5394 38.5828C44.3775 38.897 44.347 39.2627 44.4547 39.5994C44.5624 39.9361 44.7994 40.2162 45.1136 40.3781L46.2983 40.9887C44.2931 44.2153 41.2047 46.6229 37.5863 47.7802C33.9679 48.9374 30.0556 48.7689 26.5501 47.3048Z" fill="#304046"/>
<path d="M43.5708 26.6133L32.7576 31.0117L27.3788 28.2398C27.0646 28.0779 26.6989 28.0474 26.3623 28.1551C26.0256 28.2628 25.7455 28.4998 25.5835 28.814C25.4216 29.1282 25.3911 29.4939 25.4988 29.8306C25.6065 30.1672 25.8435 30.4474 26.1577 30.6093L32.0814 33.662C32.2448 33.748 32.4258 33.7951 32.6103 33.7996L32.7356 33.7892C32.8761 33.7889 33.0155 33.7644 33.1478 33.7168L44.5301 29.0869C44.6922 29.0208 44.8396 28.9234 44.964 28.8002C45.0885 28.6771 45.1874 28.5307 45.2552 28.3694C45.3231 28.208 45.3585 28.0349 45.3594 27.8598C45.3603 27.6848 45.3268 27.5113 45.2606 27.3492C45.1945 27.1872 45.0971 27.0397 44.974 26.9153C44.8509 26.7909 44.7045 26.6919 44.5431 26.6241C44.3818 26.5562 44.2086 26.5208 44.0336 26.5199C43.8586 26.519 43.6851 26.5525 43.523 26.6187L43.5708 26.6133Z" fill="#304046"/>
</g>
<mask id="path-4-outside-1_68_26" maskUnits="userSpaceOnUse" x="12" y="70" width="42" height="14" fill="black">
<rect fill="white" x="12" y="70" width="42" height="14"/>
<path d="M13.5795 72.2102V71.2727H20.125V72.2102H17.3807V80H16.3239V72.2102H13.5795ZM21.756 80V71.2727H27.0231V72.2102H22.8129V75.1591H26.7504V76.0966H22.8129V79.0625H27.0913V80H21.756ZM28.9279 80V71.2727H31.8768C32.5586 71.2727 33.1183 71.3892 33.5558 71.6222C33.9933 71.8523 34.3171 72.169 34.5273 72.5724C34.7376 72.9759 34.8427 73.4347 34.8427 73.9489C34.8427 74.4631 34.7376 74.919 34.5273 75.3168C34.3171 75.7145 33.9947 76.027 33.56 76.2543C33.1254 76.4787 32.57 76.5909 31.8938 76.5909H29.5075V75.6364H31.8597C32.3256 75.6364 32.7006 75.5682 32.9847 75.4318C33.2717 75.2955 33.479 75.1023 33.6069 74.8523C33.7376 74.5994 33.8029 74.2983 33.8029 73.9489C33.8029 73.5994 33.7376 73.294 33.6069 73.0327C33.4762 72.7713 33.2674 72.5696 32.9805 72.4276C32.6935 72.2827 32.3143 72.2102 31.8427 72.2102H29.9847V80H28.9279ZM33.0359 76.0795L35.1836 80H33.9563L31.8427 76.0795H33.0359ZM43.6264 74H42.5696C42.5071 73.696 42.3977 73.429 42.2415 73.1989C42.0881 72.9688 41.9006 72.7756 41.679 72.6193C41.4602 72.4602 41.2173 72.3409 40.9503 72.2614C40.6832 72.1818 40.4048 72.142 40.1151 72.142C39.5866 72.142 39.108 72.2756 38.679 72.5426C38.2528 72.8097 37.9134 73.2031 37.6605 73.723C37.4105 74.2429 37.2855 74.8807 37.2855 75.6364C37.2855 76.392 37.4105 77.0298 37.6605 77.5497C37.9134 78.0696 38.2528 78.4631 38.679 78.7301C39.108 78.9972 39.5866 79.1307 40.1151 79.1307C40.4048 79.1307 40.6832 79.0909 40.9503 79.0114C41.2173 78.9318 41.4602 78.8139 41.679 78.6577C41.9006 78.4986 42.0881 78.304 42.2415 78.0739C42.3977 77.8409 42.5071 77.5739 42.5696 77.2727H43.6264C43.5469 77.7187 43.402 78.1179 43.1918 78.4702C42.9815 78.8224 42.7202 79.1222 42.4077 79.3693C42.0952 79.6136 41.7443 79.7997 41.3551 79.9276C40.9688 80.0554 40.5554 80.1193 40.1151 80.1193C39.3707 80.1193 38.7088 79.9375 38.1293 79.5739C37.5497 79.2102 37.0938 78.6932 36.7614 78.0227C36.429 77.3523 36.2628 76.5568 36.2628 75.6364C36.2628 74.7159 36.429 73.9205 36.7614 73.25C37.0938 72.5795 37.5497 72.0625 38.1293 71.6989C38.7088 71.3352 39.3707 71.1534 40.1151 71.1534C40.5554 71.1534 40.9688 71.2173 41.3551 71.3452C41.7443 71.473 42.0952 71.6605 42.4077 71.9077C42.7202 72.152 42.9815 72.4503 43.1918 72.8026C43.402 73.152 43.5469 73.5511 43.6264 74ZM39.6719 80.0341H40.5071L40.4389 80.375C40.6605 80.4091 40.8636 80.5014 41.0483 80.652C41.233 80.8054 41.3253 81.0483 41.3253 81.3807C41.3253 81.7472 41.1733 82.0455 40.8693 82.2756C40.5682 82.5085 40.1236 82.625 39.5355 82.625L39.5014 81.9602C39.7656 81.9602 39.9844 81.9176 40.1577 81.8324C40.3338 81.75 40.4219 81.6108 40.4219 81.4148C40.4219 81.2188 40.3494 81.0852 40.2045 81.0142C40.0597 80.9432 39.8253 80.8949 39.5014 80.8693L39.6719 80.0341ZM45.6921 80H44.5842L47.7887 71.2727H48.8796L52.0842 80H50.9762L48.3683 72.6534H48.3001L45.6921 80ZM46.1012 76.5909H50.5671V77.5284H46.1012V76.5909Z"/>
</mask>
<path d="M13.5795 72.2102V71.2727H20.125V72.2102H17.3807V80H16.3239V72.2102H13.5795ZM21.756 80V71.2727H27.0231V72.2102H22.8129V75.1591H26.7504V76.0966H22.8129V79.0625H27.0913V80H21.756ZM28.9279 80V71.2727H31.8768C32.5586 71.2727 33.1183 71.3892 33.5558 71.6222C33.9933 71.8523 34.3171 72.169 34.5273 72.5724C34.7376 72.9759 34.8427 73.4347 34.8427 73.9489C34.8427 74.4631 34.7376 74.919 34.5273 75.3168C34.3171 75.7145 33.9947 76.027 33.56 76.2543C33.1254 76.4787 32.57 76.5909 31.8938 76.5909H29.5075V75.6364H31.8597C32.3256 75.6364 32.7006 75.5682 32.9847 75.4318C33.2717 75.2955 33.479 75.1023 33.6069 74.8523C33.7376 74.5994 33.8029 74.2983 33.8029 73.9489C33.8029 73.5994 33.7376 73.294 33.6069 73.0327C33.4762 72.7713 33.2674 72.5696 32.9805 72.4276C32.6935 72.2827 32.3143 72.2102 31.8427 72.2102H29.9847V80H28.9279ZM33.0359 76.0795L35.1836 80H33.9563L31.8427 76.0795H33.0359ZM43.6264 74H42.5696C42.5071 73.696 42.3977 73.429 42.2415 73.1989C42.0881 72.9688 41.9006 72.7756 41.679 72.6193C41.4602 72.4602 41.2173 72.3409 40.9503 72.2614C40.6832 72.1818 40.4048 72.142 40.1151 72.142C39.5866 72.142 39.108 72.2756 38.679 72.5426C38.2528 72.8097 37.9134 73.2031 37.6605 73.723C37.4105 74.2429 37.2855 74.8807 37.2855 75.6364C37.2855 76.392 37.4105 77.0298 37.6605 77.5497C37.9134 78.0696 38.2528 78.4631 38.679 78.7301C39.108 78.9972 39.5866 79.1307 40.1151 79.1307C40.4048 79.1307 40.6832 79.0909 40.9503 79.0114C41.2173 78.9318 41.4602 78.8139 41.679 78.6577C41.9006 78.4986 42.0881 78.304 42.2415 78.0739C42.3977 77.8409 42.5071 77.5739 42.5696 77.2727H43.6264C43.5469 77.7187 43.402 78.1179 43.1918 78.4702C42.9815 78.8224 42.7202 79.1222 42.4077 79.3693C42.0952 79.6136 41.7443 79.7997 41.3551 79.9276C40.9688 80.0554 40.5554 80.1193 40.1151 80.1193C39.3707 80.1193 38.7088 79.9375 38.1293 79.5739C37.5497 79.2102 37.0938 78.6932 36.7614 78.0227C36.429 77.3523 36.2628 76.5568 36.2628 75.6364C36.2628 74.7159 36.429 73.9205 36.7614 73.25C37.0938 72.5795 37.5497 72.0625 38.1293 71.6989C38.7088 71.3352 39.3707 71.1534 40.1151 71.1534C40.5554 71.1534 40.9688 71.2173 41.3551 71.3452C41.7443 71.473 42.0952 71.6605 42.4077 71.9077C42.7202 72.152 42.9815 72.4503 43.1918 72.8026C43.402 73.152 43.5469 73.5511 43.6264 74ZM39.6719 80.0341H40.5071L40.4389 80.375C40.6605 80.4091 40.8636 80.5014 41.0483 80.652C41.233 80.8054 41.3253 81.0483 41.3253 81.3807C41.3253 81.7472 41.1733 82.0455 40.8693 82.2756C40.5682 82.5085 40.1236 82.625 39.5355 82.625L39.5014 81.9602C39.7656 81.9602 39.9844 81.9176 40.1577 81.8324C40.3338 81.75 40.4219 81.6108 40.4219 81.4148C40.4219 81.2188 40.3494 81.0852 40.2045 81.0142C40.0597 80.9432 39.8253 80.8949 39.5014 80.8693L39.6719 80.0341ZM45.6921 80H44.5842L47.7887 71.2727H48.8796L52.0842 80H50.9762L48.3683 72.6534H48.3001L45.6921 80ZM46.1012 76.5909H50.5671V77.5284H46.1012V76.5909Z" fill="white"/>
<path d="M13.5795 72.2102H12.5795V73.2102H13.5795V72.2102ZM13.5795 71.2727V70.2727H12.5795V71.2727H13.5795ZM20.125 71.2727H21.125V70.2727H20.125V71.2727ZM20.125 72.2102V73.2102H21.125V72.2102H20.125ZM17.3807 72.2102V71.2102H16.3807V72.2102H17.3807ZM17.3807 80V81H18.3807V80H17.3807ZM16.3239 80H15.3239V81H16.3239V80ZM16.3239 72.2102H17.3239V71.2102H16.3239V72.2102ZM14.5795 72.2102V71.2727H12.5795V72.2102H14.5795ZM13.5795 72.2727H20.125V70.2727H13.5795V72.2727ZM19.125 71.2727V72.2102H21.125V71.2727H19.125ZM20.125 71.2102H17.3807V73.2102H20.125V71.2102ZM16.3807 72.2102V80H18.3807V72.2102H16.3807ZM17.3807 79H16.3239V81H17.3807V79ZM17.3239 80V72.2102H15.3239V80H17.3239ZM16.3239 71.2102H13.5795V73.2102H16.3239V71.2102ZM21.756 80H20.756V81H21.756V80ZM21.756 71.2727V70.2727H20.756V71.2727H21.756ZM27.0231 71.2727H28.0231V70.2727H27.0231V71.2727ZM27.0231 72.2102V73.2102H28.0231V72.2102H27.0231ZM22.8129 72.2102V71.2102H21.8129V72.2102H22.8129ZM22.8129 75.1591H21.8129V76.1591H22.8129V75.1591ZM26.7504 75.1591H27.7504V74.1591H26.7504V75.1591ZM26.7504 76.0966V77.0966H27.7504V76.0966H26.7504ZM22.8129 76.0966V75.0966H21.8129V76.0966H22.8129ZM22.8129 79.0625H21.8129V80.0625H22.8129V79.0625ZM27.0913 79.0625H28.0913V78.0625H27.0913V79.0625ZM27.0913 80V81H28.0913V80H27.0913ZM22.756 80V71.2727H20.756V80H22.756ZM21.756 72.2727H27.0231V70.2727H21.756V72.2727ZM26.0231 71.2727V72.2102H28.0231V71.2727H26.0231ZM27.0231 71.2102H22.8129V73.2102H27.0231V71.2102ZM21.8129 72.2102V75.1591H23.8129V72.2102H21.8129ZM22.8129 76.1591H26.7504V74.1591H22.8129V76.1591ZM25.7504 75.1591V76.0966H27.7504V75.1591H25.7504ZM26.7504 75.0966H22.8129V77.0966H26.7504V75.0966ZM21.8129 76.0966V79.0625H23.8129V76.0966H21.8129ZM22.8129 80.0625H27.0913V78.0625H22.8129V80.0625ZM26.0913 79.0625V80H28.0913V79.0625H26.0913ZM27.0913 79H21.756V81H27.0913V79ZM28.9279 80H27.9279V81H28.9279V80ZM28.9279 71.2727V70.2727H27.9279V71.2727H28.9279ZM33.5558 71.6222L33.0858 72.5048L33.0902 72.5072L33.5558 71.6222ZM34.5273 72.5724L33.6405 73.0346L33.6405 73.0346L34.5273 72.5724ZM34.5273 75.3168L33.6432 74.8495L33.6432 74.8495L34.5273 75.3168ZM33.56 76.2543L34.0188 77.1428L34.0234 77.1404L33.56 76.2543ZM29.5075 76.5909H28.5075V77.5909H29.5075V76.5909ZM29.5075 75.6364V74.6364H28.5075V75.6364H29.5075ZM32.9847 75.4318L32.5555 74.5286L32.552 74.5303L32.9847 75.4318ZM33.6069 74.8523L32.7185 74.3931L32.7165 74.397L33.6069 74.8523ZM32.9805 72.4276L32.5297 73.3202L32.5368 73.3238L32.9805 72.4276ZM29.9847 72.2102V71.2102H28.9847V72.2102H29.9847ZM29.9847 80V81H30.9847V80H29.9847ZM33.0359 76.0795L33.9129 75.5991L33.6283 75.0795H33.0359V76.0795ZM35.1836 80V81H36.8716L36.0606 79.5195L35.1836 80ZM33.9563 80L33.0761 80.4746L33.3594 81H33.9563V80ZM31.8427 76.0795V75.0795H30.1675L30.9625 76.5541L31.8427 76.0795ZM29.9279 80V71.2727H27.9279V80H29.9279ZM28.9279 72.2727H31.8768V70.2727H28.9279V72.2727ZM31.8768 72.2727C32.4532 72.2727 32.837 72.3724 33.0858 72.5048L34.0257 70.7395C33.3995 70.406 32.664 70.2727 31.8768 70.2727V72.2727ZM33.0902 72.5072C33.3639 72.6511 33.5326 72.8275 33.6405 73.0346L35.4142 72.1103C35.1016 71.5106 34.6226 71.0534 34.0213 70.7371L33.0902 72.5072ZM33.6405 73.0346C33.7672 73.2776 33.8427 73.5744 33.8427 73.9489H35.8427C35.8427 73.295 35.708 72.6741 35.4142 72.1103L33.6405 73.0346ZM33.8427 73.9489C33.8427 74.3237 33.7671 74.6152 33.6432 74.8495L35.4114 75.7841C35.7081 75.2229 35.8427 74.6025 35.8427 73.9489H33.8427ZM33.6432 74.8495C33.5362 75.052 33.3689 75.2258 33.0967 75.3681L34.0234 77.1404C34.6205 76.8282 35.098 76.377 35.4114 75.7841L33.6432 74.8495ZM33.1012 75.3657C32.8521 75.4944 32.468 75.5909 31.8938 75.5909V77.5909C32.6719 77.5909 33.3986 77.463 34.0188 77.1428L33.1012 75.3657ZM31.8938 75.5909H29.5075V77.5909H31.8938V75.5909ZM30.5075 76.5909V75.6364H28.5075V76.5909H30.5075ZM29.5075 76.6364H31.8597V74.6364H29.5075V76.6364ZM31.8597 76.6364C32.4096 76.6364 32.9494 76.558 33.4175 76.3333L32.552 74.5303C32.4518 74.5784 32.2417 74.6364 31.8597 74.6364V76.6364ZM33.414 76.335C33.8723 76.1172 34.2562 75.779 34.4972 75.3076L32.7165 74.397C32.7019 74.4256 32.671 74.4737 32.5555 74.5286L33.414 76.335ZM34.4952 75.3114C34.7141 74.8879 34.8029 74.4222 34.8029 73.9489H32.8029C32.8029 74.1744 32.761 74.311 32.7185 74.3931L34.4952 75.3114ZM34.8029 73.9489C34.8029 73.4743 34.7137 73.0103 34.5013 72.5855L32.7125 73.4799C32.7614 73.5778 32.8029 73.7246 32.8029 73.9489H34.8029ZM34.5013 72.5855C34.2639 72.1105 33.8864 71.7602 33.4241 71.5314L32.5368 73.3238C32.6484 73.379 32.6886 73.4321 32.7125 73.4799L34.5013 72.5855ZM33.4312 71.5349C32.9546 71.2942 32.4033 71.2102 31.8427 71.2102V73.2102C32.2253 73.2102 32.4325 73.2711 32.5297 73.3202L33.4312 71.5349ZM31.8427 71.2102H29.9847V73.2102H31.8427V71.2102ZM28.9847 72.2102V80H30.9847V72.2102H28.9847ZM29.9847 79H28.9279V81H29.9847V79ZM32.1588 76.56L34.3066 80.4805L36.0606 79.5195L33.9129 75.5991L32.1588 76.56ZM35.1836 79H33.9563V81H35.1836V79ZM34.8365 79.5254L32.7229 75.605L30.9625 76.5541L33.0761 80.4746L34.8365 79.5254ZM31.8427 77.0795H33.0359V75.0795H31.8427V77.0795ZM43.6264 74V75H44.8192L44.6111 73.8255L43.6264 74ZM42.5696 74L41.5901 74.2014L41.7543 75H42.5696V74ZM42.2415 73.1989L41.4094 73.7536L41.4142 73.7606L42.2415 73.1989ZM41.679 72.6193L41.0908 73.4281L41.0967 73.4324L41.1027 73.4366L41.679 72.6193ZM40.9503 72.2614L40.6648 73.2197L40.6648 73.2197L40.9503 72.2614ZM38.679 72.5426L38.1505 71.6937L38.148 71.6953L38.679 72.5426ZM37.6605 73.723L36.7612 73.2856L36.7593 73.2896L37.6605 73.723ZM37.6605 77.5497L36.7593 77.9831L36.7612 77.9871L37.6605 77.5497ZM38.679 78.7301L38.148 79.5775L38.1505 79.5791L38.679 78.7301ZM40.9503 79.0114L40.6648 78.053L40.6648 78.053L40.9503 79.0114ZM41.679 78.6577L42.2602 79.4714L42.2622 79.47L41.679 78.6577ZM42.2415 78.0739L41.411 77.5168L41.4094 77.5192L42.2415 78.0739ZM42.5696 77.2727V76.2727H41.7558L41.5905 77.0695L42.5696 77.2727ZM43.6264 77.2727L44.6109 77.4483L44.8205 76.2727H43.6264V77.2727ZM43.1918 78.4702L42.333 77.9577L42.333 77.9577L43.1918 78.4702ZM42.4077 79.3693L43.0236 80.1571L43.028 80.1537L42.4077 79.3693ZM41.3551 79.9276L41.043 78.9775L41.041 78.9782L41.3551 79.9276ZM38.1293 79.5739L37.5978 80.4209L37.5978 80.4209L38.1293 79.5739ZM36.7614 78.0227L37.6573 77.5786L37.6573 77.5786L36.7614 78.0227ZM41.3551 71.3452L41.041 72.2946L41.043 72.2952L41.3551 71.3452ZM42.4077 71.9077L41.7873 72.692L41.7917 72.6955L42.4077 71.9077ZM43.1918 72.8026L42.333 73.315L42.3349 73.3181L43.1918 72.8026ZM39.6719 80.0341V79.0341H38.8553L38.6921 79.8341L39.6719 80.0341ZM40.5071 80.0341L41.4877 80.2302L41.7269 79.0341H40.5071V80.0341ZM40.4389 80.375L39.4583 80.1789L39.2532 81.2044L40.2869 81.3634L40.4389 80.375ZM41.0483 80.652L41.6873 79.8828L41.6802 79.877L41.0483 80.652ZM40.8693 82.2756L40.2657 81.4782L40.2574 81.4846L40.8693 82.2756ZM39.5355 82.625L38.5368 82.6762L38.5855 83.625H39.5355V82.625ZM39.5014 81.9602V80.9602H38.4488L38.5027 82.0114L39.5014 81.9602ZM40.1577 81.8324L39.734 80.9266L39.7251 80.9307L39.7164 80.935L40.1577 81.8324ZM40.2045 81.0142L40.6447 80.1163L40.6447 80.1163L40.2045 81.0142ZM39.5014 80.8693L38.5216 80.6694L38.2955 81.7772L39.4227 81.8662L39.5014 80.8693ZM43.6264 73H42.5696V75H43.6264V73ZM43.5491 73.7986C43.4632 73.3806 43.3071 72.9881 43.0688 72.6371L41.4142 73.7606C41.4884 73.8699 41.551 74.0115 41.5901 74.2014L43.5491 73.7986ZM43.0735 72.6442C42.8532 72.3136 42.5796 72.0308 42.2553 71.8021L41.1027 73.4366C41.2216 73.5204 41.323 73.6239 41.4094 73.7536L43.0735 72.6442ZM42.2671 71.8106C41.954 71.5828 41.6081 71.4139 41.2358 71.303L40.6648 73.2197C40.8265 73.2679 40.9665 73.3377 41.0908 73.4281L42.2671 71.8106ZM41.2358 71.303C40.8724 71.1947 40.4976 71.142 40.1151 71.142V73.142C40.312 73.142 40.4941 73.1689 40.6648 73.2197L41.2358 71.303ZM40.1151 71.142C39.4088 71.142 38.7455 71.3233 38.1505 71.6937L39.2075 73.3916C39.4704 73.2279 39.7645 73.142 40.1151 73.142V71.142ZM38.148 71.6953C37.5405 72.0759 37.0835 72.623 36.7612 73.2857L38.5598 74.1604C38.7432 73.7832 38.9652 73.5434 39.21 73.39L38.148 71.6953ZM36.7593 73.2896C36.4274 73.9799 36.2855 74.7753 36.2855 75.6364H38.2855C38.2855 74.9861 38.3937 74.5059 38.5617 74.1564L36.7593 73.2896ZM36.2855 75.6364C36.2855 76.4975 36.4274 77.2928 36.7593 77.9831L38.5617 77.1163C38.3937 76.7668 38.2855 76.2866 38.2855 75.6364H36.2855ZM36.7612 77.9871C37.0835 78.6497 37.5405 79.1968 38.148 79.5775L39.21 77.8828C38.9652 77.7294 38.7432 77.4895 38.5598 77.1124L36.7612 77.9871ZM38.1505 79.5791C38.7455 79.9495 39.4088 80.1307 40.1151 80.1307V78.1307C39.7645 78.1307 39.4704 78.0449 39.2075 77.8812L38.1505 79.5791ZM40.1151 80.1307C40.4976 80.1307 40.8724 80.078 41.2358 79.9697L40.6648 78.053C40.4941 78.1038 40.312 78.1307 40.1151 78.1307V80.1307ZM41.2358 79.9697C41.6048 79.8598 41.9483 79.6942 42.2602 79.4714L41.0977 77.8439C40.9722 77.9336 40.8299 78.0038 40.6648 78.053L41.2358 79.9697ZM42.2622 79.47C42.5829 79.2397 42.8543 78.9574 43.0735 78.6286L41.4094 77.5192C41.3218 77.6505 41.2182 77.7574 41.0958 77.8453L42.2622 79.47ZM43.072 78.6309C43.3068 78.2808 43.4625 77.8913 43.5487 77.4759L41.5905 77.0695C41.5517 77.2565 41.4887 77.401 41.411 77.5168L43.072 78.6309ZM42.5696 78.2727H43.6264V76.2727H42.5696V78.2727ZM42.642 77.0972C42.5814 77.4366 42.4752 77.7195 42.333 77.9577L44.0505 78.9826C44.3288 78.5163 44.5123 78.0009 44.6109 77.4483L42.642 77.0972ZM42.333 77.9577C42.1832 78.2088 42.0017 78.4155 41.7873 78.585L43.028 80.1537C43.4387 79.8289 43.7798 79.4361 44.0505 78.9826L42.333 77.9577ZM41.7917 78.5815C41.5734 78.7522 41.326 78.8846 41.0431 78.9775L41.6672 80.8776C42.1626 80.7149 42.617 80.475 43.0236 80.1571L41.7917 78.5815ZM41.041 78.9782C40.7639 79.0698 40.4574 79.1193 40.1151 79.1193V81.1193C40.6534 81.1193 41.1736 81.0409 41.6692 80.8769L41.041 78.9782ZM40.1151 79.1193C39.5416 79.1193 39.0671 78.9818 38.6608 78.7268L37.5978 80.4209C38.3505 80.8932 39.1999 81.1193 40.1151 81.1193V79.1193ZM38.6608 78.7268C38.252 78.4704 37.9157 78.0997 37.6573 77.5786L35.8654 78.4669C36.2718 79.2867 36.8474 79.9501 37.5978 80.4209L38.6608 78.7268ZM37.6573 77.5786C37.4073 77.0743 37.2628 76.4375 37.2628 75.6364H35.2628C35.2628 76.6761 35.4507 77.6303 35.8654 78.4669L37.6573 77.5786ZM37.2628 75.6364C37.2628 74.8352 37.4073 74.1985 37.6573 73.6942L35.8654 72.8058C35.4507 73.6425 35.2628 74.5966 35.2628 75.6364H37.2628ZM37.6573 73.6942C37.9157 73.173 38.252 72.8024 38.6608 72.5459L37.5978 70.8518C36.8474 71.3226 36.2718 71.9861 35.8654 72.8058L37.6573 73.6942ZM38.6608 72.5459C39.0671 72.291 39.5416 72.1534 40.1151 72.1534V70.1534C39.1999 70.1534 38.3505 70.3795 37.5978 70.8518L38.6608 72.5459ZM40.1151 72.1534C40.4574 72.1534 40.7639 72.2029 41.041 72.2945L41.6692 70.3958C41.1736 70.2318 40.6534 70.1534 40.1151 70.1534V72.1534ZM41.043 72.2952C41.3238 72.3874 41.5697 72.5198 41.7873 72.692L43.028 71.1233C42.6207 70.8012 42.1649 70.5586 41.6672 70.3951L41.043 72.2952ZM41.7917 72.6955C42.0037 72.8612 42.1839 73.065 42.333 73.315L44.0505 72.2901C43.7792 71.8355 43.4366 71.4428 43.0236 71.1199L41.7917 72.6955ZM42.3349 73.3181C42.475 73.551 42.5811 73.832 42.6418 74.1745L44.6111 73.8255C44.5127 73.2702 44.329 72.753 44.0486 72.287L42.3349 73.3181ZM39.6719 81.0341H40.5071V79.0341H39.6719V81.0341ZM39.5265 79.838L39.4583 80.1789L41.4195 80.5711L41.4877 80.2302L39.5265 79.838ZM40.2869 81.3634C40.3212 81.3687 40.3608 81.3817 40.4164 81.427L41.6802 79.877C41.3665 79.6211 40.9998 79.4495 40.591 79.3866L40.2869 81.3634ZM40.4093 81.4212C40.3862 81.402 40.366 81.3798 40.3498 81.3567C40.3339 81.3339 40.3253 81.3151 40.3213 81.3045C40.3141 81.2857 40.3253 81.3036 40.3253 81.3807H42.3253C42.3253 80.8711 42.1793 80.2915 41.6873 79.8828L40.4093 81.4212ZM40.3253 81.3807C40.3253 81.4029 40.323 81.4151 40.3219 81.4199C40.3214 81.4224 40.3209 81.4238 40.3207 81.4242C40.3205 81.4247 40.3204 81.425 40.3203 81.4253C40.3203 81.4253 40.3184 81.4291 40.3117 81.4369C40.3047 81.445 40.2908 81.4593 40.2657 81.4783L41.4729 83.0729C42.0148 82.6627 42.3253 82.0748 42.3253 81.3807H40.3253ZM40.2574 81.4846C40.2041 81.5259 40.0158 81.625 39.5355 81.625V83.625C40.2313 83.625 40.9323 83.4911 41.4812 83.0665L40.2574 81.4846ZM40.5342 82.5738L40.5001 81.909L38.5027 82.0114L38.5368 82.6762L40.5342 82.5738ZM39.5014 82.9602C39.8653 82.9602 40.2474 82.9026 40.599 82.7297L39.7164 80.935C39.7213 80.9326 39.6659 80.9602 39.5014 80.9602V82.9602ZM40.5814 82.7382C40.8107 82.6309 41.0375 82.4591 41.2009 82.2008C41.364 81.9431 41.4219 81.6657 41.4219 81.4148H39.4219C39.4219 81.3599 39.4357 81.2501 39.5107 81.1316C39.5861 81.0125 39.6807 80.9515 39.734 80.9266L40.5814 82.7382ZM41.4219 81.4148C41.4219 81.1972 41.3819 80.9403 41.2465 80.6907C41.1049 80.4298 40.8913 80.2372 40.6447 80.1163L39.7644 81.9121C39.6627 81.8623 39.5577 81.7719 39.4886 81.6445C39.4256 81.5284 39.4219 81.4363 39.4219 81.4148H41.4219ZM40.6447 80.1163C40.3217 79.958 39.9285 79.8999 39.5801 79.8724L39.4227 81.8662C39.5568 81.8768 39.6532 81.8907 39.7183 81.9041C39.7886 81.9186 39.7945 81.9269 39.7644 81.9121L40.6447 80.1163ZM40.4812 81.0693L40.6517 80.2341L38.6921 79.8341L38.5216 80.6694L40.4812 81.0693ZM45.6921 80V81H46.3983L46.6345 80.3345L45.6921 80ZM44.5842 80L43.6454 79.6553L43.1517 81H44.5842V80ZM47.7887 71.2727V70.2727H47.0906L46.85 70.928L47.7887 71.2727ZM48.8796 71.2727L49.8183 70.928L49.5777 70.2727H48.8796V71.2727ZM52.0842 80V81H53.5166L53.0229 79.6553L52.0842 80ZM50.9762 80L50.0338 80.3345L50.2701 81H50.9762V80ZM48.3683 72.6534L49.3106 72.3189L49.0744 71.6534H48.3683V72.6534ZM48.3001 72.6534V71.6534H47.5939L47.3577 72.3189L48.3001 72.6534ZM46.1012 76.5909V75.5909H45.1012V76.5909H46.1012ZM50.5671 76.5909H51.5671V75.5909H50.5671V76.5909ZM50.5671 77.5284V78.5284H51.5671V77.5284H50.5671ZM46.1012 77.5284H45.1012V78.5284H46.1012V77.5284ZM45.6921 79H44.5842V81H45.6921V79ZM45.5229 80.3447L48.7274 71.6174L46.85 70.928L43.6454 79.6553L45.5229 80.3447ZM47.7887 72.2727H48.8796V70.2727H47.7887V72.2727ZM47.9409 71.6174L51.1454 80.3447L53.0229 79.6553L49.8183 70.928L47.9409 71.6174ZM52.0842 79H50.9762V81H52.0842V79ZM51.9186 79.6655L49.3106 72.3189L47.4259 72.9879L50.0338 80.3345L51.9186 79.6655ZM48.3683 71.6534H48.3001V73.6534H48.3683V71.6534ZM47.3577 72.3189L44.7497 79.6655L46.6345 80.3345L49.2425 72.9879L47.3577 72.3189ZM46.1012 77.5909H50.5671V75.5909H46.1012V77.5909ZM49.5671 76.5909V77.5284H51.5671V76.5909H49.5671ZM50.5671 76.5284H46.1012V78.5284H50.5671V76.5284ZM47.1012 77.5284V76.5909H45.1012V77.5284H47.1012Z" fill="black" mask="url(#path-4-outside-1_68_26)"/>
<defs>
<clipPath id="clip0_68_26">
<rect width="42.65" height="42.65" fill="white" transform="translate(23.5049 3.75262) rotate(27.2641)"/>
</clipPath>
</defs>
</svg>
