<svg width="66" height="80" viewBox="0 0 66 80" fill="none" xmlns="http://www.w3.org/2000/svg">
<rect x="0.434827" y="1.03471" width="63.9212" height="63.488" rx="21.5692" transform="rotate(-0.537736 0.434827 1.03471)" stroke="#B7CAD0" stroke-width="0.861606"/>
<g clip-path="url(#clip0_52_10)">
<path d="M41.2397 15.8909C37.9592 14.2003 34.2511 13.5205 30.5842 13.9374C26.9174 14.3542 23.4565 15.8491 20.6392 18.2329C17.8219 20.6167 15.7748 23.7824 14.7567 27.3297C13.7386 30.877 13.7952 34.6465 14.9195 38.1615C16.0437 41.6766 18.185 44.7794 21.0726 47.0775C23.9603 49.3755 27.4645 50.7657 31.1422 51.0722C34.82 51.3787 38.506 50.5878 41.7342 48.7994C44.9624 47.011 47.5878 44.3055 49.2784 41.025C51.5454 36.626 51.972 31.5067 50.4645 26.7931C48.9569 22.0795 45.6387 18.1579 41.2397 15.8909ZM26.5501 47.3048L27.1606 46.1201C27.3226 45.8058 27.353 45.4402 27.2454 45.1035C27.1377 44.7668 26.9007 44.4867 26.5865 44.3248C26.2722 44.1628 25.9066 44.1324 25.5699 44.24C25.2332 44.3477 24.9531 44.5847 24.7912 44.8989L24.1806 46.0837C20.9714 44.0705 18.581 40.9835 17.4352 37.3726C16.2893 33.7617 16.4625 29.8612 17.9237 26.366L19.0492 26.946C19.3634 27.1079 19.7291 27.1384 20.0658 27.0307C20.4025 26.923 20.6826 26.686 20.8445 26.3718C21.0065 26.0576 21.0369 25.6919 20.9292 25.3552C20.8216 25.0186 20.5845 24.7384 20.2703 24.5765L19.0856 23.966C21.0988 20.7568 24.1857 18.3664 27.7967 17.2205C31.4076 16.0747 35.3081 16.2478 38.8033 17.7091L38.2233 18.8346C38.0613 19.1488 38.0309 19.5145 38.1386 19.8512C38.2462 20.1878 38.4833 20.468 38.7975 20.6299C39.1117 20.7918 39.4774 20.8223 39.814 20.7146C40.1507 20.6069 40.4308 20.3699 40.5928 20.0557L41.2033 18.871C44.43 20.8762 46.8375 23.9645 47.9948 27.583C49.1521 31.2014 48.9836 35.1137 47.5194 38.6192L46.3347 38.0086C46.0205 37.8467 45.6548 37.8162 45.3181 37.9239C44.9814 38.0316 44.7013 38.2686 44.5394 38.5828C44.3775 38.897 44.347 39.2627 44.4547 39.5994C44.5624 39.9361 44.7994 40.2162 45.1136 40.3781L46.2983 40.9887C44.2931 44.2153 41.2047 46.6229 37.5863 47.7802C33.9679 48.9374 30.0556 48.7689 26.5501 47.3048Z" fill="#304046"/>
<path d="M43.5708 26.6133L32.7576 31.0117L27.3788 28.2398C27.0646 28.0779 26.6989 28.0474 26.3623 28.1551C26.0256 28.2628 25.7455 28.4998 25.5835 28.814C25.4216 29.1282 25.3911 29.4939 25.4988 29.8306C25.6065 30.1672 25.8435 30.4474 26.1577 30.6093L32.0814 33.662C32.2448 33.748 32.4258 33.7951 32.6103 33.7996L32.7356 33.7892C32.8761 33.7889 33.0155 33.7644 33.1478 33.7168L44.5301 29.0869C44.6922 29.0208 44.8396 28.9234 44.964 28.8002C45.0885 28.6771 45.1874 28.5307 45.2552 28.3694C45.3231 28.208 45.3585 28.0349 45.3594 27.8598C45.3603 27.6848 45.3268 27.5113 45.2606 27.3492C45.1945 27.1872 45.0971 27.0397 44.974 26.9153C44.8509 26.7909 44.7045 26.6919 44.5431 26.6241C44.3818 26.5562 44.2086 26.5208 44.0336 26.5199C43.8586 26.519 43.6851 26.5525 43.523 26.6187L43.5708 26.6133Z" fill="#304046"/>
</g>
<mask id="path-4-outside-1_52_10" maskUnits="userSpaceOnUse" x="7" y="67" width="51" height="12" fill="black">
<rect fill="white" x="7" y="67" width="51" height="12"/>
<path d="M12.2273 74.2727H13.3864L14.358 75.5511L14.6136 75.892L16.0625 77.8182H14.9034L13.9489 76.5398L13.7102 76.2159L12.2273 74.2727ZM16.4205 72.6364C16.4205 73.5568 16.2543 74.3523 15.9219 75.0227C15.5895 75.6932 15.1335 76.2102 14.554 76.5739C13.9744 76.9375 13.3125 77.1193 12.5682 77.1193C11.8239 77.1193 11.1619 76.9375 10.5824 76.5739C10.0028 76.2102 9.54688 75.6932 9.21449 75.0227C8.8821 74.3523 8.71591 73.5568 8.71591 72.6364C8.71591 71.7159 8.8821 70.9205 9.21449 70.25C9.54688 69.5795 10.0028 69.0625 10.5824 68.6989C11.1619 68.3352 11.8239 68.1534 12.5682 68.1534C13.3125 68.1534 13.9744 68.3352 14.554 68.6989C15.1335 69.0625 15.5895 69.5795 15.9219 70.25C16.2543 70.9205 16.4205 71.7159 16.4205 72.6364ZM15.3977 72.6364C15.3977 71.8807 15.2713 71.2429 15.0185 70.723C14.7685 70.2031 14.429 69.8097 14 69.5426C13.5739 69.2756 13.0966 69.142 12.5682 69.142C12.0398 69.142 11.5611 69.2756 11.1321 69.5426C10.706 69.8097 10.3665 70.2031 10.1136 70.723C9.86364 71.2429 9.73864 71.8807 9.73864 72.6364C9.73864 73.392 9.86364 74.0298 10.1136 74.5497C10.3665 75.0696 10.706 75.4631 11.1321 75.7301C11.5611 75.9972 12.0398 76.1307 12.5682 76.1307C13.0966 76.1307 13.5739 75.9972 14 75.7301C14.429 75.4631 14.7685 75.0696 15.0185 74.5497C15.2713 74.0298 15.3977 73.392 15.3977 72.6364ZM23.9247 68.2727H24.9815V74.0511C24.9815 74.6477 24.8409 75.1804 24.5597 75.6491C24.2813 76.1151 23.8878 76.483 23.3793 76.7528C22.8707 77.0199 22.2741 77.1534 21.5895 77.1534C20.9048 77.1534 20.3082 77.0199 19.7997 76.7528C19.2912 76.483 18.8963 76.1151 18.6151 75.6491C18.3366 75.1804 18.1974 74.6477 18.1974 74.0511V68.2727H19.2543V73.9659C19.2543 74.392 19.348 74.7713 19.5355 75.1037C19.723 75.4332 19.9901 75.6932 20.3366 75.8835C20.6861 76.071 21.1037 76.1648 21.5895 76.1648C22.0753 76.1648 22.4929 76.071 22.8423 75.8835C23.1918 75.6932 23.4588 75.4332 23.6435 75.1037C23.831 74.7713 23.9247 74.392 23.9247 73.9659V68.2727ZM27.4499 77H26.342L29.5465 68.2727H30.6374L33.842 77H32.734L30.1261 69.6534H30.0579L27.4499 77ZM27.859 73.5909H32.3249V74.5284H27.859V73.5909ZM35.2013 77V68.2727H38.1502C38.832 68.2727 39.3917 68.3892 39.8292 68.6222C40.2667 68.8523 40.5906 69.169 40.8008 69.5724C41.011 69.9759 41.1161 70.4347 41.1161 70.9489C41.1161 71.4631 41.011 71.919 40.8008 72.3168C40.5906 72.7145 40.2681 73.027 39.8335 73.2543C39.3988 73.4787 38.8434 73.5909 38.1673 73.5909H35.7809V72.6364H38.1332C38.5991 72.6364 38.9741 72.5682 39.2582 72.4318C39.5451 72.2955 39.7525 72.1023 39.8803 71.8523C40.011 71.5994 40.0763 71.2983 40.0763 70.9489C40.0763 70.5994 40.011 70.294 39.8803 70.0327C39.7496 69.7713 39.5408 69.5696 39.2539 69.4276C38.967 69.2827 38.5877 69.2102 38.1161 69.2102H36.2582V77H35.2013ZM39.3093 73.0795L41.457 77H40.2298L38.1161 73.0795H39.3093ZM42.3999 69.2102V68.2727H48.9453V69.2102H46.201V77H45.1442V69.2102H42.3999ZM49.9148 77H48.8068L52.0114 68.2727H53.1023L56.3068 77H55.1989L52.5909 69.6534H52.5227L49.9148 77ZM50.3239 73.5909H54.7898V74.5284H50.3239V73.5909Z"/>
</mask>
<path d="M12.2273 74.2727H13.3864L14.358 75.5511L14.6136 75.892L16.0625 77.8182H14.9034L13.9489 76.5398L13.7102 76.2159L12.2273 74.2727ZM16.4205 72.6364C16.4205 73.5568 16.2543 74.3523 15.9219 75.0227C15.5895 75.6932 15.1335 76.2102 14.554 76.5739C13.9744 76.9375 13.3125 77.1193 12.5682 77.1193C11.8239 77.1193 11.1619 76.9375 10.5824 76.5739C10.0028 76.2102 9.54688 75.6932 9.21449 75.0227C8.8821 74.3523 8.71591 73.5568 8.71591 72.6364C8.71591 71.7159 8.8821 70.9205 9.21449 70.25C9.54688 69.5795 10.0028 69.0625 10.5824 68.6989C11.1619 68.3352 11.8239 68.1534 12.5682 68.1534C13.3125 68.1534 13.9744 68.3352 14.554 68.6989C15.1335 69.0625 15.5895 69.5795 15.9219 70.25C16.2543 70.9205 16.4205 71.7159 16.4205 72.6364ZM15.3977 72.6364C15.3977 71.8807 15.2713 71.2429 15.0185 70.723C14.7685 70.2031 14.429 69.8097 14 69.5426C13.5739 69.2756 13.0966 69.142 12.5682 69.142C12.0398 69.142 11.5611 69.2756 11.1321 69.5426C10.706 69.8097 10.3665 70.2031 10.1136 70.723C9.86364 71.2429 9.73864 71.8807 9.73864 72.6364C9.73864 73.392 9.86364 74.0298 10.1136 74.5497C10.3665 75.0696 10.706 75.4631 11.1321 75.7301C11.5611 75.9972 12.0398 76.1307 12.5682 76.1307C13.0966 76.1307 13.5739 75.9972 14 75.7301C14.429 75.4631 14.7685 75.0696 15.0185 74.5497C15.2713 74.0298 15.3977 73.392 15.3977 72.6364ZM23.9247 68.2727H24.9815V74.0511C24.9815 74.6477 24.8409 75.1804 24.5597 75.6491C24.2813 76.1151 23.8878 76.483 23.3793 76.7528C22.8707 77.0199 22.2741 77.1534 21.5895 77.1534C20.9048 77.1534 20.3082 77.0199 19.7997 76.7528C19.2912 76.483 18.8963 76.1151 18.6151 75.6491C18.3366 75.1804 18.1974 74.6477 18.1974 74.0511V68.2727H19.2543V73.9659C19.2543 74.392 19.348 74.7713 19.5355 75.1037C19.723 75.4332 19.9901 75.6932 20.3366 75.8835C20.6861 76.071 21.1037 76.1648 21.5895 76.1648C22.0753 76.1648 22.4929 76.071 22.8423 75.8835C23.1918 75.6932 23.4588 75.4332 23.6435 75.1037C23.831 74.7713 23.9247 74.392 23.9247 73.9659V68.2727ZM27.4499 77H26.342L29.5465 68.2727H30.6374L33.842 77H32.734L30.1261 69.6534H30.0579L27.4499 77ZM27.859 73.5909H32.3249V74.5284H27.859V73.5909ZM35.2013 77V68.2727H38.1502C38.832 68.2727 39.3917 68.3892 39.8292 68.6222C40.2667 68.8523 40.5906 69.169 40.8008 69.5724C41.011 69.9759 41.1161 70.4347 41.1161 70.9489C41.1161 71.4631 41.011 71.919 40.8008 72.3168C40.5906 72.7145 40.2681 73.027 39.8335 73.2543C39.3988 73.4787 38.8434 73.5909 38.1673 73.5909H35.7809V72.6364H38.1332C38.5991 72.6364 38.9741 72.5682 39.2582 72.4318C39.5451 72.2955 39.7525 72.1023 39.8803 71.8523C40.011 71.5994 40.0763 71.2983 40.0763 70.9489C40.0763 70.5994 40.011 70.294 39.8803 70.0327C39.7496 69.7713 39.5408 69.5696 39.2539 69.4276C38.967 69.2827 38.5877 69.2102 38.1161 69.2102H36.2582V77H35.2013ZM39.3093 73.0795L41.457 77H40.2298L38.1161 73.0795H39.3093ZM42.3999 69.2102V68.2727H48.9453V69.2102H46.201V77H45.1442V69.2102H42.3999ZM49.9148 77H48.8068L52.0114 68.2727H53.1023L56.3068 77H55.1989L52.5909 69.6534H52.5227L49.9148 77ZM50.3239 73.5909H54.7898V74.5284H50.3239V73.5909Z" fill="white"/>
<path d="M12.2273 74.2727V73.2727H10.2062L11.4323 74.8794L12.2273 74.2727ZM13.3864 74.2727L14.1825 73.6676L13.8824 73.2727H13.3864V74.2727ZM14.358 75.5511L15.158 74.9511L15.1541 74.9461L14.358 75.5511ZM14.6136 75.892L13.8136 76.492L13.8145 76.4932L14.6136 75.892ZM16.0625 77.8182V78.8182H18.066L16.8617 77.2171L16.0625 77.8182ZM14.9034 77.8182L14.1021 78.4165L14.4021 78.8182H14.9034V77.8182ZM13.9489 76.5398L13.1438 77.133L13.1476 77.1381L13.9489 76.5398ZM13.7102 76.2159L14.5153 75.6227L14.5103 75.6159L14.5052 75.6092L13.7102 76.2159ZM15.9219 75.0227L15.0259 74.5786L15.0259 74.5786L15.9219 75.0227ZM14.554 76.5739L15.0855 77.4209L15.0855 77.4209L14.554 76.5739ZM10.5824 76.5739L10.0509 77.4209L10.0509 77.4209L10.5824 76.5739ZM9.21449 75.0227L10.1104 74.5786L10.1104 74.5786L9.21449 75.0227ZM14.554 68.6989L15.0855 67.8518L15.0855 67.8518L14.554 68.6989ZM15.9219 70.25L15.0259 70.6942L15.0259 70.6942L15.9219 70.25ZM15.0185 70.723L14.1172 71.1564L14.1192 71.1604L15.0185 70.723ZM14 69.5426L13.469 70.39L13.4715 70.3916L14 69.5426ZM11.1321 69.5426L10.6036 68.6937L10.6011 68.6953L11.1321 69.5426ZM10.1136 70.723L9.21434 70.2856L9.21242 70.2896L10.1136 70.723ZM10.1136 74.5497L9.21241 74.9831L9.21435 74.9871L10.1136 74.5497ZM11.1321 75.7301L10.6011 76.5775L10.6036 76.5791L11.1321 75.7301ZM14 75.7301L13.4715 74.8812L13.469 74.8828L14 75.7301ZM15.0185 74.5497L14.1192 74.1124L14.1173 74.1163L15.0185 74.5497ZM12.2273 75.2727H13.3864V73.2727H12.2273V75.2727ZM12.5902 74.8778L13.5618 76.1562L15.1541 74.9461L14.1825 73.6676L12.5902 74.8778ZM13.558 76.1511L13.8136 76.492L15.4136 75.292L15.158 74.9511L13.558 76.1511ZM13.8145 76.4932L15.2633 78.4193L16.8617 77.2171L15.4128 75.2909L13.8145 76.4932ZM16.0625 76.8182H14.9034V78.8182H16.0625V76.8182ZM15.7047 77.2199L14.7501 75.9415L13.1476 77.1381L14.1021 78.4165L15.7047 77.2199ZM14.7539 75.9466L14.5153 75.6227L12.9052 76.8091L13.1438 77.133L14.7539 75.9466ZM14.5052 75.6092L13.0222 73.6661L11.4323 74.8794L12.9153 76.8226L14.5052 75.6092ZM15.4205 72.6364C15.4205 73.4375 15.2759 74.0743 15.0259 74.5786L16.8178 75.4669C17.2326 74.6303 17.4205 73.6761 17.4205 72.6364H15.4205ZM15.0259 74.5786C14.7676 75.0997 14.4312 75.4704 14.0225 75.7268L15.0855 77.4209C15.8358 76.9501 16.4114 76.2867 16.8178 75.4669L15.0259 74.5786ZM14.0225 75.7268C13.6161 75.9818 13.1416 76.1193 12.5682 76.1193V78.1193C13.4834 78.1193 14.3327 77.8932 15.0855 77.4209L14.0225 75.7268ZM12.5682 76.1193C11.9947 76.1193 11.5202 75.9818 11.1139 75.7268L10.0509 77.4209C10.8036 77.8932 11.653 78.1193 12.5682 78.1193V76.1193ZM11.1139 75.7268C10.7052 75.4704 10.3688 75.0997 10.1104 74.5786L8.31855 75.4669C8.72496 76.2867 9.30052 76.9501 10.0509 77.4209L11.1139 75.7268ZM10.1104 74.5786C9.86043 74.0743 9.71591 73.4375 9.71591 72.6364H7.71591C7.71591 73.6761 7.90378 74.6303 8.31855 75.4669L10.1104 74.5786ZM9.71591 72.6364C9.71591 71.8352 9.86043 71.1985 10.1104 70.6942L8.31855 69.8058C7.90378 70.6425 7.71591 71.5966 7.71591 72.6364H9.71591ZM10.1104 70.6942C10.3688 70.173 10.7052 69.8024 11.1139 69.5459L10.0509 67.8518C9.30052 68.3226 8.72496 68.9861 8.31855 69.8058L10.1104 70.6942ZM11.1139 69.5459C11.5202 69.291 11.9947 69.1534 12.5682 69.1534V67.1534C11.653 67.1534 10.8036 67.3795 10.0509 67.8518L11.1139 69.5459ZM12.5682 69.1534C13.1416 69.1534 13.6161 69.291 14.0225 69.5459L15.0855 67.8518C14.3327 67.3795 13.4834 67.1534 12.5682 67.1534V69.1534ZM14.0225 69.5459C14.4312 69.8024 14.7676 70.173 15.0259 70.6942L16.8178 69.8058C16.4114 68.9861 15.8358 68.3226 15.0855 67.8518L14.0225 69.5459ZM15.0259 70.6942C15.2759 71.1985 15.4205 71.8352 15.4205 72.6364H17.4205C17.4205 71.5966 17.2326 70.6425 16.8178 69.8058L15.0259 70.6942ZM16.3977 72.6364C16.3977 71.7739 16.254 70.977 15.9178 70.2857L14.1192 71.1604C14.2886 71.5088 14.3977 71.9875 14.3977 72.6364H16.3977ZM15.9197 70.2896C15.5994 69.6235 15.1405 69.0747 14.5285 68.6937L13.4715 70.3916C13.7174 70.5446 13.9376 70.7827 14.1173 71.1564L15.9197 70.2896ZM14.531 68.6953C13.9375 68.3233 13.2744 68.142 12.5682 68.142V70.142C12.9188 70.142 13.2103 70.2278 13.469 70.39L14.531 68.6953ZM12.5682 68.142C11.8619 68.142 11.1986 68.3233 10.6036 68.6937L11.6606 70.3916C11.9235 70.2279 12.2176 70.142 12.5682 70.142V68.142ZM10.6011 68.6953C9.99359 69.0759 9.5366 69.623 9.21435 70.2857L11.0129 71.1604C11.1964 70.7832 11.4183 70.5434 11.6631 70.39L10.6011 68.6953ZM9.21242 70.2896C8.8805 70.9799 8.73864 71.7753 8.73864 72.6364H10.7386C10.7386 71.9861 10.8468 71.5059 11.0149 71.1564L9.21242 70.2896ZM8.73864 72.6364C8.73864 73.4975 8.8805 74.2928 9.21242 74.9831L11.0149 74.1163C10.8468 73.7668 10.7386 73.2866 10.7386 72.6364H8.73864ZM9.21435 74.9871C9.5366 75.6497 9.99359 76.1968 10.6011 76.5775L11.6631 74.8828C11.4183 74.7294 11.1964 74.4895 11.0129 74.1124L9.21435 74.9871ZM10.6036 76.5791C11.1986 76.9495 11.8619 77.1307 12.5682 77.1307V75.1307C12.2176 75.1307 11.9235 75.0449 11.6606 74.8812L10.6036 76.5791ZM12.5682 77.1307C13.2744 77.1307 13.9375 76.9494 14.531 76.5775L13.469 74.8828C13.2103 75.0449 12.9188 75.1307 12.5682 75.1307V77.1307ZM14.5285 76.5791C15.1405 76.198 15.5994 75.6492 15.9197 74.9831L14.1173 74.1163C13.9376 74.49 13.7174 74.7281 13.4715 74.8812L14.5285 76.5791ZM15.9178 74.9871C16.254 74.2957 16.3977 73.4989 16.3977 72.6364H14.3977C14.3977 73.2852 14.2886 73.7639 14.1192 74.1124L15.9178 74.9871ZM23.9247 68.2727V67.2727H22.9247V68.2727H23.9247ZM24.9815 68.2727H25.9815V67.2727H24.9815V68.2727ZM24.5597 75.6491L23.7022 75.1347L23.7012 75.1362L24.5597 75.6491ZM23.3793 76.7528L23.8442 77.6382L23.8481 77.6361L23.3793 76.7528ZM19.7997 76.7528L19.3309 77.6362L19.3348 77.6382L19.7997 76.7528ZM18.6151 75.6491L17.7553 76.1598L17.7589 76.1659L18.6151 75.6491ZM18.1974 68.2727V67.2727H17.1974V68.2727H18.1974ZM19.2543 68.2727H20.2543V67.2727H19.2543V68.2727ZM19.5355 75.1037L18.6645 75.595L18.6663 75.5982L19.5355 75.1037ZM20.3366 75.8835L19.8553 76.7601L19.8638 76.7647L20.3366 75.8835ZM22.8423 75.8835L23.3152 76.7647L23.3207 76.7617L22.8423 75.8835ZM23.6435 75.1037L22.7725 74.6124L22.7711 74.6149L23.6435 75.1037ZM23.9247 69.2727H24.9815V67.2727H23.9247V69.2727ZM23.9815 68.2727V74.0511H25.9815V68.2727H23.9815ZM23.9815 74.0511C23.9815 74.4836 23.8817 74.8354 23.7022 75.1347L25.4172 76.1636C25.8001 75.5254 25.9815 74.8119 25.9815 74.0511H23.9815ZM23.7012 75.1362C23.5222 75.4358 23.2679 75.6798 22.9105 75.8695L23.8481 77.6361C24.5076 77.2861 25.0403 76.7943 25.4181 76.1621L23.7012 75.1362ZM22.9143 75.8675C22.5743 76.046 22.1431 76.1534 21.5895 76.1534V78.1534C22.4052 78.1534 23.1672 77.9937 23.8442 77.6382L22.9143 75.8675ZM21.5895 76.1534C21.0358 76.1534 20.6047 76.046 20.2646 75.8675L19.3348 77.6382C20.0118 77.9937 20.7738 78.1534 21.5895 78.1534V76.1534ZM20.2685 75.8695C19.9102 75.6794 19.6534 75.4342 19.4712 75.1324L17.7589 76.1659C18.1392 76.7959 18.6721 77.2865 19.3309 77.6361L20.2685 75.8695ZM19.4748 75.1385C19.2967 74.8386 19.1974 74.4855 19.1974 74.0511H17.1974C17.1974 74.81 17.3766 75.5222 17.7553 76.1598L19.4748 75.1385ZM19.1974 74.0511V68.2727H17.1974V74.0511H19.1974ZM18.1974 69.2727H19.2543V67.2727H18.1974V69.2727ZM18.2543 68.2727V73.9659H20.2543V68.2727H18.2543ZM18.2543 73.9659C18.2543 74.5437 18.3829 75.0958 18.6645 75.595L20.4065 74.6124C20.3131 74.4468 20.2543 74.2404 20.2543 73.9659H18.2543ZM18.6663 75.5982C18.9493 76.0956 19.3539 76.4847 19.8553 76.76L20.818 75.007C20.6262 74.9017 20.4967 74.7709 20.4047 74.6092L18.6663 75.5982ZM19.8638 76.7647C20.3879 77.0459 20.9754 77.1648 21.5895 77.1648V75.1648C21.232 75.1648 20.9843 75.0962 20.8095 75.0024L19.8638 76.7647ZM21.5895 77.1648C22.2036 77.1648 22.7911 77.0459 23.3151 76.7647L22.3695 75.0024C22.1947 75.0962 21.947 75.1648 21.5895 75.1648V77.1648ZM23.3207 76.7617C23.8263 76.4863 24.2341 76.0953 24.5158 75.5925L22.7711 74.6149C22.6835 74.7712 22.5573 74.9001 22.364 75.0054L23.3207 76.7617ZM24.5144 75.595C24.7961 75.0958 24.9247 74.5437 24.9247 73.9659H22.9247C22.9247 74.2404 22.8659 74.4468 22.7725 74.6124L24.5144 75.595ZM24.9247 73.9659V68.2727H22.9247V73.9659H24.9247ZM27.4499 77V78H28.1561L28.3923 77.3345L27.4499 77ZM26.342 77L25.4033 76.6553L24.9095 78H26.342V77ZM29.5465 68.2727V67.2727H28.8484L28.6078 67.928L29.5465 68.2727ZM30.6374 68.2727L31.5761 67.928L31.3355 67.2727H30.6374V68.2727ZM33.842 77V78H35.2744L34.7807 76.6553L33.842 77ZM32.734 77L31.7916 77.3345L32.0279 78H32.734V77ZM30.1261 69.6534L31.0684 69.3189L30.8322 68.6534H30.1261V69.6534ZM30.0579 69.6534V68.6534H29.3517L29.1155 69.3189L30.0579 69.6534ZM27.859 73.5909V72.5909H26.859V73.5909H27.859ZM32.3249 73.5909H33.3249V72.5909H32.3249V73.5909ZM32.3249 74.5284V75.5284H33.3249V74.5284H32.3249ZM27.859 74.5284H26.859V75.5284H27.859V74.5284ZM27.4499 76H26.342V78H27.4499V76ZM27.2807 77.3447L30.4852 68.6174L28.6078 67.928L25.4033 76.6553L27.2807 77.3447ZM29.5465 69.2727H30.6374V67.2727H29.5465V69.2727ZM29.6987 68.6174L32.9033 77.3447L34.7807 76.6553L31.5761 67.928L29.6987 68.6174ZM33.842 76H32.734V78H33.842V76ZM33.6764 76.6655L31.0684 69.3189L29.1837 69.9879L31.7916 77.3345L33.6764 76.6655ZM30.1261 68.6534H30.0579V70.6534H30.1261V68.6534ZM29.1155 69.3189L26.5075 76.6655L28.3923 77.3345L31.0003 69.9879L29.1155 69.3189ZM27.859 74.5909H32.3249V72.5909H27.859V74.5909ZM31.3249 73.5909V74.5284H33.3249V73.5909H31.3249ZM32.3249 73.5284H27.859V75.5284H32.3249V73.5284ZM28.859 74.5284V73.5909H26.859V74.5284H28.859ZM35.2013 77H34.2013V78H35.2013V77ZM35.2013 68.2727V67.2727H34.2013V68.2727H35.2013ZM39.8292 68.6222L39.3592 69.5048L39.3637 69.5072L39.8292 68.6222ZM40.8008 69.5724L39.914 70.0346L39.914 70.0346L40.8008 69.5724ZM40.8008 72.3168L39.9167 71.8495L39.9167 71.8495L40.8008 72.3168ZM39.8335 73.2543L40.2922 74.1428L40.2968 74.1404L39.8335 73.2543ZM35.7809 73.5909H34.7809V74.5909H35.7809V73.5909ZM35.7809 72.6364V71.6364H34.7809V72.6364H35.7809ZM39.2582 72.4318L38.8289 71.5286L38.8254 71.5303L39.2582 72.4318ZM39.8803 71.8523L38.992 71.3931L38.99 71.397L39.8803 71.8523ZM39.2539 69.4276L38.8031 70.3202L38.8102 70.3238L39.2539 69.4276ZM36.2582 69.2102V68.2102H35.2582V69.2102H36.2582ZM36.2582 77V78H37.2582V77H36.2582ZM39.3093 73.0795L40.1863 72.5991L39.9017 72.0795H39.3093V73.0795ZM41.457 77V78H43.1451L42.3341 76.5195L41.457 77ZM40.2298 77L39.3495 77.4746L39.6328 78H40.2298V77ZM38.1161 73.0795V72.0795H36.4409L37.2359 73.5541L38.1161 73.0795ZM36.2013 77V68.2727H34.2013V77H36.2013ZM35.2013 69.2727H38.1502V67.2727H35.2013V69.2727ZM38.1502 69.2727C38.7266 69.2727 39.1104 69.3724 39.3592 69.5048L40.2992 67.7395C39.6729 67.406 38.9375 67.2727 38.1502 67.2727V69.2727ZM39.3637 69.5072C39.6374 69.6511 39.8061 69.8275 39.914 70.0346L41.6876 69.1103C41.375 68.5106 40.896 68.0534 40.2947 67.7371L39.3637 69.5072ZM39.914 70.0346C40.0406 70.2776 40.1161 70.5744 40.1161 70.9489H42.1161C42.1161 70.295 41.9814 69.6741 41.6876 69.1103L39.914 70.0346ZM40.1161 70.9489C40.1161 71.3237 40.0405 71.6152 39.9167 71.8495L41.6849 72.7841C41.9815 72.2229 42.1161 71.6025 42.1161 70.9489H40.1161ZM39.9167 71.8495C39.8096 72.052 39.6423 72.2258 39.3701 72.3681L40.2968 74.1404C40.8939 73.8282 41.3715 73.377 41.6849 72.7841L39.9167 71.8495ZM39.3747 72.3657C39.1255 72.4944 38.7415 72.5909 38.1673 72.5909V74.5909C38.9453 74.5909 39.6721 74.463 40.2922 74.1428L39.3747 72.3657ZM38.1673 72.5909H35.7809V74.5909H38.1673V72.5909ZM36.7809 73.5909V72.6364H34.7809V73.5909H36.7809ZM35.7809 73.6364H38.1332V71.6364H35.7809V73.6364ZM38.1332 73.6364C38.6831 73.6364 39.2229 73.558 39.6909 73.3333L38.8254 71.5303C38.7253 71.5784 38.5151 71.6364 38.1332 71.6364V73.6364ZM39.6874 73.335C40.1457 73.1172 40.5296 72.779 40.7707 72.3076L38.99 71.397C38.9754 71.4256 38.9445 71.4737 38.8289 71.5286L39.6874 73.335ZM40.7687 72.3114C40.9876 71.8879 41.0763 71.4222 41.0763 70.9489H39.0763C39.0763 71.1744 39.0344 71.311 38.992 71.3931L40.7687 72.3114ZM41.0763 70.9489C41.0763 70.4743 40.9872 70.0103 40.7748 69.5855L38.9859 70.4799C39.0348 70.5778 39.0763 70.7246 39.0763 70.9489H41.0763ZM40.7748 69.5855C40.5373 69.1105 40.1599 68.7602 39.6976 68.5314L38.8102 70.3238C38.9218 70.379 38.962 70.4321 38.9859 70.4799L40.7748 69.5855ZM39.7047 68.5349C39.228 68.2942 38.6767 68.2102 38.1161 68.2102V70.2102C38.4987 70.2102 38.7059 70.2711 38.8032 70.3202L39.7047 68.5349ZM38.1161 68.2102H36.2582V70.2102H38.1161V68.2102ZM35.2582 69.2102V77H37.2582V69.2102H35.2582ZM36.2582 76H35.2013V78H36.2582V76ZM38.4323 73.56L40.58 77.4805L42.3341 76.5195L40.1863 72.5991L38.4323 73.56ZM41.457 76H40.2298V78H41.457V76ZM41.11 76.5254L38.9963 72.605L37.2359 73.5541L39.3495 77.4746L41.11 76.5254ZM38.1161 74.0795H39.3093V72.0795H38.1161V74.0795ZM42.3999 69.2102H41.3999V70.2102H42.3999V69.2102ZM42.3999 68.2727V67.2727H41.3999V68.2727H42.3999ZM48.9453 68.2727H49.9453V67.2727H48.9453V68.2727ZM48.9453 69.2102V70.2102H49.9453V69.2102H48.9453ZM46.201 69.2102V68.2102H45.201V69.2102H46.201ZM46.201 77V78H47.201V77H46.201ZM45.1442 77H44.1442V78H45.1442V77ZM45.1442 69.2102H46.1442V68.2102H45.1442V69.2102ZM43.3999 69.2102V68.2727H41.3999V69.2102H43.3999ZM42.3999 69.2727H48.9453V67.2727H42.3999V69.2727ZM47.9453 68.2727V69.2102H49.9453V68.2727H47.9453ZM48.9453 68.2102H46.201V70.2102H48.9453V68.2102ZM45.201 69.2102V77H47.201V69.2102H45.201ZM46.201 76H45.1442V78H46.201V76ZM46.1442 77V69.2102H44.1442V77H46.1442ZM45.1442 68.2102H42.3999V70.2102H45.1442V68.2102ZM49.9148 77V78H50.6209L50.8572 77.3345L49.9148 77ZM48.8068 77L47.8681 76.6553L47.3743 78H48.8068V77ZM52.0114 68.2727V67.2727H51.3133L51.0726 67.928L52.0114 68.2727ZM53.1023 68.2727L54.041 67.928L53.8004 67.2727H53.1023V68.2727ZM56.3068 77V78H57.7393L57.2455 76.6553L56.3068 77ZM55.1989 77L54.2565 77.3345L54.4927 78H55.1989V77ZM52.5909 69.6534L53.5333 69.3189L53.2971 68.6534H52.5909V69.6534ZM52.5227 69.6534V68.6534H51.8166L51.5803 69.3189L52.5227 69.6534ZM50.3239 73.5909V72.5909H49.3239V73.5909H50.3239ZM54.7898 73.5909H55.7898V72.5909H54.7898V73.5909ZM54.7898 74.5284V75.5284H55.7898V74.5284H54.7898ZM50.3239 74.5284H49.3239V75.5284H50.3239V74.5284ZM49.9148 76H48.8068V78H49.9148V76ZM49.7455 77.3447L52.9501 68.6174L51.0726 67.928L47.8681 76.6553L49.7455 77.3447ZM52.0114 69.2727H53.1023V67.2727H52.0114V69.2727ZM52.1636 68.6174L55.3681 77.3447L57.2455 76.6553L54.041 67.928L52.1636 68.6174ZM56.3068 76H55.1989V78H56.3068V76ZM56.1412 76.6655L53.5333 69.3189L51.6485 69.9879L54.2565 77.3345L56.1412 76.6655ZM52.5909 68.6534H52.5227V70.6534H52.5909V68.6534ZM51.5803 69.3189L48.9724 76.6655L50.8572 77.3345L53.4651 69.9879L51.5803 69.3189ZM50.3239 74.5909H54.7898V72.5909H50.3239V74.5909ZM53.7898 73.5909V74.5284H55.7898V73.5909H53.7898ZM54.7898 73.5284H50.3239V75.5284H54.7898V73.5284ZM51.3239 74.5284V73.5909H49.3239V74.5284H51.3239Z" fill="black" mask="url(#path-4-outside-1_52_10)"/>
<defs>
<clipPath id="clip0_52_10">
<rect width="42.65" height="42.65" fill="white" transform="translate(23.5049 3.75262) rotate(27.2641)"/>
</clipPath>
</defs>
</svg>
