<svg width="66" height="83" viewBox="0 0 66 83" fill="none" xmlns="http://www.w3.org/2000/svg">
<mask id="path-1-outside-1_129_46" maskUnits="userSpaceOnUse" x="7.00003" y="66.3524" width="51" height="15" fill="black">
<rect fill="white" x="7.00003" y="66.3524" width="51" height="15"/>
<path d="M13.8296 72.8069C13.7784 72.3751 13.5711 72.0399 13.2074 71.8012C12.8438 71.5626 12.3978 71.4433 11.8693 71.4433C11.483 71.4433 11.1449 71.5058 10.8551 71.6308C10.5682 71.7558 10.3438 71.9276 10.1818 72.1464C10.0228 72.3651 9.94321 72.6137 9.94321 72.8921C9.94321 73.1251 9.99861 73.3254 10.1094 73.493C10.223 73.6578 10.3679 73.7955 10.5441 73.9063C10.7202 74.0143 10.9049 74.1038 11.098 74.1748C11.2912 74.243 11.4688 74.2984 11.6307 74.341L12.5171 74.5796C12.7443 74.6393 12.9972 74.7217 13.2756 74.8268C13.5568 74.9319 13.8253 75.0754 14.081 75.2572C14.3395 75.4362 14.5526 75.6663 14.7202 75.9475C14.8878 76.2288 14.9716 76.5739 14.9716 76.983C14.9716 77.4546 14.848 77.8808 14.6009 78.2614C14.3566 78.6421 13.9986 78.9447 13.527 79.1691C13.0583 79.3935 12.4887 79.5058 11.8182 79.5058C11.1932 79.5058 10.652 79.4049 10.1946 79.2032C9.74009 79.0015 9.38213 78.7203 9.12077 78.3595C8.86225 77.9987 8.71594 77.5796 8.68185 77.1024H9.77276C9.80117 77.4319 9.91196 77.7046 10.1051 77.9205C10.3012 78.1336 10.5483 78.2927 10.8466 78.3978C11.1478 78.5001 11.4716 78.5512 11.8182 78.5512C12.2216 78.5512 12.5838 78.4859 12.9049 78.3552C13.2259 78.2217 13.4801 78.037 13.6676 77.8012C13.8551 77.5626 13.9489 77.2842 13.9489 76.966C13.9489 76.6762 13.8679 76.4404 13.706 76.2586C13.5441 76.0768 13.331 75.9291 13.0668 75.8154C12.8026 75.7018 12.5171 75.6024 12.2103 75.5171L11.1364 75.2103C10.4546 75.0143 9.9148 74.7345 9.51708 74.3708C9.11935 74.0072 8.92049 73.5313 8.92049 72.9433C8.92049 72.4546 9.05259 72.0285 9.31679 71.6649C9.58384 71.2984 9.94179 71.0143 10.3907 70.8126C10.8424 70.608 11.3466 70.5058 11.9034 70.5058C12.4659 70.5058 12.9659 70.6066 13.4034 70.8083C13.8409 71.0072 14.1875 71.2799 14.4432 71.6265C14.7017 71.9731 14.8381 72.3666 14.8523 72.8069H13.8296ZM17.0671 79.3524H15.9592L19.1637 70.6251H20.2546L23.4592 79.3524H22.3512L19.7433 72.0058H19.6751L17.0671 79.3524ZM17.4762 75.9433H21.9421V76.8808H17.4762V75.9433ZM19.249 69.7387L20.2887 67.7614H21.4649L20.1353 69.7387H19.249ZM24.8186 79.3524V70.6251H27.8697C28.4777 70.6251 28.9791 70.7302 29.374 70.9404C29.7689 71.1478 30.0629 71.4276 30.2561 71.7799C30.4492 72.1293 30.5458 72.5171 30.5458 72.9433C30.5458 73.3183 30.4791 73.6279 30.3456 73.8722C30.2149 74.1166 30.0416 74.3097 29.8257 74.4518C29.6126 74.5938 29.3811 74.6989 29.1311 74.7671V74.8524C29.3981 74.8694 29.6666 74.9632 29.9365 75.1336C30.2064 75.3041 30.4322 75.5484 30.614 75.8666C30.7958 76.1847 30.8867 76.5739 30.8867 77.0342C30.8867 77.4717 30.7873 77.8651 30.5885 78.2146C30.3896 78.564 30.0757 78.841 29.6467 79.0455C29.2177 79.2501 28.6595 79.3524 27.972 79.3524H24.8186ZM25.8754 78.4149H27.972C28.6623 78.4149 29.1524 78.2813 29.4421 78.0143C29.7348 77.7444 29.8811 77.4177 29.8811 77.0342C29.8811 76.7387 29.8058 76.466 29.6552 76.216C29.5046 75.9632 29.2902 75.7614 29.0117 75.6109C28.7333 75.4575 28.4038 75.3808 28.0231 75.3808H25.8754V78.4149ZM25.8754 74.4603H27.8356C28.1538 74.4603 28.4407 74.3978 28.6964 74.2728C28.9549 74.1478 29.1595 73.9717 29.31 73.7444C29.4635 73.5171 29.5402 73.2501 29.5402 72.9433C29.5402 72.5597 29.4066 72.2345 29.1396 71.9674C28.8725 71.6975 28.4492 71.5626 27.8697 71.5626H25.8754V74.4603ZM32.9812 79.3524H31.8733L35.0778 70.6251H36.1687L39.3733 79.3524H38.2653L35.6573 72.0058H35.5892L32.9812 79.3524ZM33.3903 75.9433H37.8562V76.8808H33.3903V75.9433ZM43.4258 79.3524H40.7326V70.6251H43.5451C44.3917 70.6251 45.1162 70.7998 45.7184 71.1492C46.3207 71.4958 46.7823 71.9944 47.1034 72.645C47.4244 73.2927 47.5849 74.0683 47.5849 74.9717C47.5849 75.8808 47.423 76.6634 47.0991 77.3197C46.7752 77.9731 46.3037 78.4759 45.6843 78.8282C45.065 79.1776 44.3122 79.3524 43.4258 79.3524ZM41.7894 78.4149H43.3576C44.0792 78.4149 44.6772 78.2757 45.1517 77.9972C45.6261 77.7188 45.9798 77.3225 46.2127 76.8083C46.4457 76.2941 46.5622 75.6819 46.5622 74.9717C46.5622 74.2671 46.4471 73.6606 46.217 73.1521C45.9869 72.6407 45.6431 72.2487 45.1858 71.9759C44.7284 71.7004 44.1588 71.5626 43.4769 71.5626H41.7894V78.4149ZM56.7213 74.9887C56.7213 75.9092 56.5551 76.7046 56.2227 77.3751C55.8903 78.0455 55.4343 78.5626 54.8548 78.9262C54.2752 79.2899 53.6133 79.4717 52.869 79.4717C52.1247 79.4717 51.4627 79.2899 50.8832 78.9262C50.3037 78.5626 49.8477 78.0455 49.5153 77.3751C49.1829 76.7046 49.0167 75.9092 49.0167 74.9887C49.0167 74.0683 49.1829 73.2728 49.5153 72.6024C49.8477 71.9319 50.3037 71.4149 50.8832 71.0512C51.4627 70.6876 52.1247 70.5058 52.869 70.5058C53.6133 70.5058 54.2752 70.6876 54.8548 71.0512C55.4343 71.4149 55.8903 71.9319 56.2227 72.6024C56.5551 73.2728 56.7213 74.0683 56.7213 74.9887ZM55.6985 74.9887C55.6985 74.233 55.5721 73.5953 55.3193 73.0754C55.0693 72.5555 54.7298 72.162 54.3008 71.895C53.8747 71.6279 53.3974 71.4944 52.869 71.4944C52.3406 71.4944 51.8619 71.6279 51.4329 71.895C51.0068 72.162 50.6673 72.5555 50.4144 73.0754C50.1644 73.5953 50.0394 74.233 50.0394 74.9887C50.0394 75.7444 50.1644 76.3822 50.4144 76.9021C50.6673 77.422 51.0068 77.8154 51.4329 78.0825C51.8619 78.3495 52.3406 78.483 52.869 78.483C53.3974 78.483 53.8747 78.3495 54.3008 78.0825C54.7298 77.8154 55.0693 77.422 55.3193 76.9021C55.5721 76.3822 55.6985 75.7444 55.6985 74.9887Z"/>
</mask>
<path d="M13.8296 72.8069C13.7784 72.3751 13.5711 72.0399 13.2074 71.8012C12.8438 71.5626 12.3978 71.4433 11.8693 71.4433C11.483 71.4433 11.1449 71.5058 10.8551 71.6308C10.5682 71.7558 10.3438 71.9276 10.1818 72.1464C10.0228 72.3651 9.94321 72.6137 9.94321 72.8921C9.94321 73.1251 9.99861 73.3254 10.1094 73.493C10.223 73.6578 10.3679 73.7955 10.5441 73.9063C10.7202 74.0143 10.9049 74.1038 11.098 74.1748C11.2912 74.243 11.4688 74.2984 11.6307 74.341L12.5171 74.5796C12.7443 74.6393 12.9972 74.7217 13.2756 74.8268C13.5568 74.9319 13.8253 75.0754 14.081 75.2572C14.3395 75.4362 14.5526 75.6663 14.7202 75.9475C14.8878 76.2288 14.9716 76.5739 14.9716 76.983C14.9716 77.4546 14.848 77.8808 14.6009 78.2614C14.3566 78.6421 13.9986 78.9447 13.527 79.1691C13.0583 79.3935 12.4887 79.5058 11.8182 79.5058C11.1932 79.5058 10.652 79.4049 10.1946 79.2032C9.74009 79.0015 9.38213 78.7203 9.12077 78.3595C8.86225 77.9987 8.71594 77.5796 8.68185 77.1024H9.77276C9.80117 77.4319 9.91196 77.7046 10.1051 77.9205C10.3012 78.1336 10.5483 78.2927 10.8466 78.3978C11.1478 78.5001 11.4716 78.5512 11.8182 78.5512C12.2216 78.5512 12.5838 78.4859 12.9049 78.3552C13.2259 78.2217 13.4801 78.037 13.6676 77.8012C13.8551 77.5626 13.9489 77.2842 13.9489 76.966C13.9489 76.6762 13.8679 76.4404 13.706 76.2586C13.5441 76.0768 13.331 75.9291 13.0668 75.8154C12.8026 75.7018 12.5171 75.6024 12.2103 75.5171L11.1364 75.2103C10.4546 75.0143 9.9148 74.7345 9.51708 74.3708C9.11935 74.0072 8.92049 73.5313 8.92049 72.9433C8.92049 72.4546 9.05259 72.0285 9.31679 71.6649C9.58384 71.2984 9.94179 71.0143 10.3907 70.8126C10.8424 70.608 11.3466 70.5058 11.9034 70.5058C12.4659 70.5058 12.9659 70.6066 13.4034 70.8083C13.8409 71.0072 14.1875 71.2799 14.4432 71.6265C14.7017 71.9731 14.8381 72.3666 14.8523 72.8069H13.8296ZM17.0671 79.3524H15.9592L19.1637 70.6251H20.2546L23.4592 79.3524H22.3512L19.7433 72.0058H19.6751L17.0671 79.3524ZM17.4762 75.9433H21.9421V76.8808H17.4762V75.9433ZM19.249 69.7387L20.2887 67.7614H21.4649L20.1353 69.7387H19.249ZM24.8186 79.3524V70.6251H27.8697C28.4777 70.6251 28.9791 70.7302 29.374 70.9404C29.7689 71.1478 30.0629 71.4276 30.2561 71.7799C30.4492 72.1293 30.5458 72.5171 30.5458 72.9433C30.5458 73.3183 30.4791 73.6279 30.3456 73.8722C30.2149 74.1166 30.0416 74.3097 29.8257 74.4518C29.6126 74.5938 29.3811 74.6989 29.1311 74.7671V74.8524C29.3981 74.8694 29.6666 74.9632 29.9365 75.1336C30.2064 75.3041 30.4322 75.5484 30.614 75.8666C30.7958 76.1847 30.8867 76.5739 30.8867 77.0342C30.8867 77.4717 30.7873 77.8651 30.5885 78.2146C30.3896 78.564 30.0757 78.841 29.6467 79.0455C29.2177 79.2501 28.6595 79.3524 27.972 79.3524H24.8186ZM25.8754 78.4149H27.972C28.6623 78.4149 29.1524 78.2813 29.4421 78.0143C29.7348 77.7444 29.8811 77.4177 29.8811 77.0342C29.8811 76.7387 29.8058 76.466 29.6552 76.216C29.5046 75.9632 29.2902 75.7614 29.0117 75.6109C28.7333 75.4575 28.4038 75.3808 28.0231 75.3808H25.8754V78.4149ZM25.8754 74.4603H27.8356C28.1538 74.4603 28.4407 74.3978 28.6964 74.2728C28.9549 74.1478 29.1595 73.9717 29.31 73.7444C29.4635 73.5171 29.5402 73.2501 29.5402 72.9433C29.5402 72.5597 29.4066 72.2345 29.1396 71.9674C28.8725 71.6975 28.4492 71.5626 27.8697 71.5626H25.8754V74.4603ZM32.9812 79.3524H31.8733L35.0778 70.6251H36.1687L39.3733 79.3524H38.2653L35.6573 72.0058H35.5892L32.9812 79.3524ZM33.3903 75.9433H37.8562V76.8808H33.3903V75.9433ZM43.4258 79.3524H40.7326V70.6251H43.5451C44.3917 70.6251 45.1162 70.7998 45.7184 71.1492C46.3207 71.4958 46.7823 71.9944 47.1034 72.645C47.4244 73.2927 47.5849 74.0683 47.5849 74.9717C47.5849 75.8808 47.423 76.6634 47.0991 77.3197C46.7752 77.9731 46.3037 78.4759 45.6843 78.8282C45.065 79.1776 44.3122 79.3524 43.4258 79.3524ZM41.7894 78.4149H43.3576C44.0792 78.4149 44.6772 78.2757 45.1517 77.9972C45.6261 77.7188 45.9798 77.3225 46.2127 76.8083C46.4457 76.2941 46.5622 75.6819 46.5622 74.9717C46.5622 74.2671 46.4471 73.6606 46.217 73.1521C45.9869 72.6407 45.6431 72.2487 45.1858 71.9759C44.7284 71.7004 44.1588 71.5626 43.4769 71.5626H41.7894V78.4149ZM56.7213 74.9887C56.7213 75.9092 56.5551 76.7046 56.2227 77.3751C55.8903 78.0455 55.4343 78.5626 54.8548 78.9262C54.2752 79.2899 53.6133 79.4717 52.869 79.4717C52.1247 79.4717 51.4627 79.2899 50.8832 78.9262C50.3037 78.5626 49.8477 78.0455 49.5153 77.3751C49.1829 76.7046 49.0167 75.9092 49.0167 74.9887C49.0167 74.0683 49.1829 73.2728 49.5153 72.6024C49.8477 71.9319 50.3037 71.4149 50.8832 71.0512C51.4627 70.6876 52.1247 70.5058 52.869 70.5058C53.6133 70.5058 54.2752 70.6876 54.8548 71.0512C55.4343 71.4149 55.8903 71.9319 56.2227 72.6024C56.5551 73.2728 56.7213 74.0683 56.7213 74.9887ZM55.6985 74.9887C55.6985 74.233 55.5721 73.5953 55.3193 73.0754C55.0693 72.5555 54.7298 72.162 54.3008 71.895C53.8747 71.6279 53.3974 71.4944 52.869 71.4944C52.3406 71.4944 51.8619 71.6279 51.4329 71.895C51.0068 72.162 50.6673 72.5555 50.4144 73.0754C50.1644 73.5953 50.0394 74.233 50.0394 74.9887C50.0394 75.7444 50.1644 76.3822 50.4144 76.9021C50.6673 77.422 51.0068 77.8154 51.4329 78.0825C51.8619 78.3495 52.3406 78.483 52.869 78.483C53.3974 78.483 53.8747 78.3495 54.3008 78.0825C54.7298 77.8154 55.0693 77.422 55.3193 76.9021C55.5721 76.3822 55.6985 75.7444 55.6985 74.9887Z" fill="white"/>
<path d="M13.8296 72.8069L12.8365 72.9245L12.941 73.8069H13.8296V72.8069ZM13.2074 71.8012L12.6588 72.6373H12.6588L13.2074 71.8012ZM10.8551 71.6308L10.4591 70.7125L10.4558 70.714L10.8551 71.6308ZM10.1818 72.1464L9.37808 71.5514L9.37311 71.5582L10.1818 72.1464ZM10.1094 73.493L9.27519 74.0444L9.28061 74.0526L9.28619 74.0607L10.1094 73.493ZM10.5441 73.9063L10.0116 74.7529L10.0215 74.7589L10.5441 73.9063ZM11.098 74.1748L10.7529 75.1135L10.7652 75.1178L11.098 74.1748ZM11.6307 74.341L11.8907 73.3754L11.8852 73.3739L11.6307 74.341ZM12.5171 74.5796L12.2571 75.5453L12.2632 75.5469L12.5171 74.5796ZM13.2756 74.8268L12.9224 75.7623L12.9255 75.7635L13.2756 74.8268ZM14.081 75.2572L13.5014 76.0722L13.5118 76.0794L14.081 75.2572ZM14.7202 75.9475L15.5792 75.4356L15.5792 75.4356L14.7202 75.9475ZM14.6009 78.2614L13.7621 77.7169L13.7593 77.7213L14.6009 78.2614ZM13.527 79.1691L13.0973 78.2662L13.0952 78.2672L13.527 79.1691ZM10.1946 79.2032L9.78902 80.1173L9.79113 80.1182L10.1946 79.2032ZM9.12077 78.3595L8.30789 78.9419L8.31093 78.9461L9.12077 78.3595ZM8.68185 77.1024V76.1024H7.60787L7.68439 77.1736L8.68185 77.1024ZM9.77276 77.1024L10.7691 77.0165L10.6903 76.1024H9.77276V77.1024ZM10.1051 77.9205L9.35983 78.5874L9.36921 78.5976L10.1051 77.9205ZM10.8466 78.3978L10.5142 79.341L10.525 79.3447L10.8466 78.3978ZM12.9049 78.3552L13.2819 79.2814L13.2889 79.2785L12.9049 78.3552ZM13.6676 77.8012L14.4504 78.4236L14.454 78.419L13.6676 77.8012ZM13.706 76.2586L14.4528 75.5935H14.4528L13.706 76.2586ZM13.0668 75.8154L12.6717 76.7341H12.6717L13.0668 75.8154ZM12.2103 75.5171L11.9355 76.4787L11.9426 76.4806L12.2103 75.5171ZM11.1364 75.2103L10.8601 76.1714L10.8617 76.1718L11.1364 75.2103ZM9.51708 74.3708L8.84231 75.1089L8.84231 75.1089L9.51708 74.3708ZM9.31679 71.6649L8.5086 71.0759L8.50778 71.0771L9.31679 71.6649ZM10.3907 70.8126L10.8005 71.7247L10.8032 71.7235L10.3907 70.8126ZM13.4034 70.8083L12.9847 71.7165L12.9896 71.7187L13.4034 70.8083ZM14.4432 71.6265L13.6385 72.2202L13.6416 72.2244L14.4432 71.6265ZM14.8523 72.8069V73.8069H15.8851L15.8518 72.7747L14.8523 72.8069ZM14.8226 72.6893C14.7367 71.964 14.3666 71.3658 13.7561 70.9652L12.6588 72.6373C12.7755 72.7139 12.8201 72.7861 12.8365 72.9245L14.8226 72.6893ZM13.7561 70.9652C13.1974 70.5985 12.5504 70.4433 11.8693 70.4433V72.4433C12.2451 72.4433 12.4902 72.5266 12.6588 72.6373L13.7561 70.9652ZM11.8693 70.4433C11.3765 70.4433 10.8986 70.5229 10.4591 70.7126L11.2512 72.549C11.3912 72.4886 11.5894 72.4433 11.8693 72.4433V70.4433ZM10.4558 70.714C10.0326 70.8983 9.65908 71.1718 9.37811 71.5514L10.9856 72.7414C11.0285 72.6834 11.1038 72.6132 11.2545 72.5475L10.4558 70.714ZM9.37311 71.5582C9.08587 71.9532 8.94321 72.409 8.94321 72.8921H10.9432C10.9432 72.8184 10.9596 72.7771 10.9906 72.7346L9.37311 71.5582ZM8.94321 72.8921C8.94321 73.2891 9.03985 73.6884 9.27519 74.0444L10.9436 72.9415C10.9481 72.9483 10.9493 72.953 10.9486 72.9505C10.9476 72.9469 10.9432 72.9292 10.9432 72.8921H8.94321ZM9.28619 74.0607C9.4799 74.3416 9.7253 74.5727 10.0116 74.7528L11.0765 73.0599C11.0106 73.0184 10.9662 72.9739 10.9326 72.9252L9.28619 74.0607ZM10.0215 74.7589C10.2536 74.9012 10.4977 75.0195 10.753 75.1134L11.4431 73.2362C11.312 73.188 11.1868 73.1274 11.0666 73.0537L10.0215 74.7589ZM10.7652 75.1178C10.9787 75.1931 11.1828 75.2572 11.3762 75.3081L11.8852 73.3739C11.7548 73.3396 11.6037 73.2928 11.4309 73.2318L10.7652 75.1178ZM11.3707 75.3066L12.2571 75.5452L12.777 73.614L11.8907 73.3754L11.3707 75.3066ZM12.2632 75.5469C12.4494 75.5957 12.6684 75.6664 12.9224 75.7623L13.6288 73.8912C13.326 73.7769 13.0393 73.6828 12.771 73.6124L12.2632 75.5469ZM12.9255 75.7635C13.1217 75.8368 13.3135 75.9384 13.5015 76.0721L14.6605 74.4422C14.3372 74.2123 13.992 74.027 13.6257 73.8901L12.9255 75.7635ZM13.5118 76.0794C13.6477 76.1735 13.7638 76.296 13.8612 76.4595L15.5792 75.4356C15.3414 75.0366 15.0313 74.6988 14.6502 74.435L13.5118 76.0794ZM13.8612 76.4595C13.9161 76.5516 13.9716 76.7096 13.9716 76.983H15.9716C15.9716 76.4383 15.8595 75.9059 15.5792 75.4356L13.8612 76.4595ZM13.9716 76.983C13.9716 77.2693 13.8998 77.5049 13.7622 77.7169L15.4396 78.806C15.7963 78.2566 15.9716 77.64 15.9716 76.983H13.9716ZM13.7593 77.7213C13.6305 77.922 13.427 78.1093 13.0973 78.2662L13.9567 80.0721C14.5702 79.7801 15.0826 79.3623 15.4425 78.8016L13.7593 77.7213ZM13.0952 78.2672C12.7944 78.4112 12.381 78.5058 11.8182 78.5058V80.5058C12.5963 80.5058 13.3221 80.3759 13.9589 80.0711L13.0952 78.2672ZM11.8182 78.5058C11.2985 78.5058 10.9008 78.4217 10.5981 78.2882L9.79113 80.1182C10.4032 80.3881 11.088 80.5058 11.8182 80.5058V78.5058ZM10.6002 78.2892C10.2878 78.1505 10.0768 77.9746 9.93061 77.7728L8.31093 78.9461C8.68745 79.4659 9.19239 79.8525 9.78902 80.1173L10.6002 78.2892ZM9.93364 77.777C9.79105 77.578 9.70131 77.3391 9.67931 77.0311L7.68439 77.1736C7.73057 77.8201 7.93344 78.4193 8.3079 78.9419L9.93364 77.777ZM8.68185 78.1024H9.77276V76.1024H8.68185V78.1024ZM8.77645 77.1882C8.82071 77.7016 9.00236 78.1877 9.3599 78.5873L10.8504 77.2537C10.8216 77.2215 10.7816 77.1622 10.7691 77.0165L8.77645 77.1882ZM9.36921 78.5976C9.68598 78.9419 10.0763 79.1866 10.5143 79.341L11.179 77.4547C11.0204 77.3988 10.9164 77.3253 10.8411 77.2435L9.36921 78.5976ZM10.525 79.3447C10.9386 79.4852 11.372 79.5512 11.8182 79.5512V77.5512C11.5712 77.5512 11.3569 77.515 11.1682 77.4509L10.525 79.3447ZM11.8182 79.5512C12.33 79.5512 12.8232 79.4681 13.2819 79.2814L12.5278 77.429C12.3445 77.5036 12.1133 77.5512 11.8182 77.5512V79.5512ZM13.2889 79.2785C13.7418 79.0901 14.1423 78.811 14.4503 78.4236L12.8849 77.1788C12.818 77.263 12.7099 77.3532 12.5208 77.4319L13.2889 79.2785ZM14.454 78.419C14.7869 77.9953 14.9489 77.4966 14.9489 76.966H12.9489C12.9489 77.0718 12.9234 77.1299 12.8813 77.1834L14.454 78.419ZM14.9489 76.966C14.9489 76.4802 14.8078 75.9922 14.4528 75.5935L12.9592 76.9237C12.9555 76.9195 12.9514 76.914 12.9478 76.9079C12.9443 76.9017 12.9427 76.8975 12.9424 76.8966C12.9417 76.8945 12.9489 76.914 12.9489 76.966H14.9489ZM14.4528 75.5935C14.1775 75.2845 13.8363 75.0578 13.4619 74.8968L12.6717 76.7341C12.8256 76.8003 12.9106 76.8691 12.9592 76.9237L14.4528 75.5935ZM13.4619 74.8968C13.1521 74.7636 12.8236 74.6496 12.4779 74.5536L11.9426 76.4806C12.2105 76.5551 12.453 76.64 12.6717 76.7341L13.4619 74.8968ZM12.485 74.5556L11.4111 74.2488L10.8617 76.1718L11.9355 76.4787L12.485 74.5556ZM11.4127 74.2492C10.8341 74.0829 10.4456 73.8648 10.1918 73.6328L8.84231 75.1089C9.38403 75.6041 10.075 75.9457 10.8601 76.1714L11.4127 74.2492ZM10.1918 73.6328C10.0215 73.4771 9.92049 73.2792 9.92049 72.9433H7.92049C7.92049 73.7835 8.21715 74.5373 8.84231 75.1089L10.1918 73.6328ZM9.92049 72.9433C9.92049 72.6464 9.99667 72.4304 10.1258 72.2527L8.50778 71.0771C8.1085 71.6266 7.92049 72.2629 7.92049 72.9433H9.92049ZM10.125 72.2538C10.281 72.0397 10.4964 71.8614 10.8005 71.7247L9.98077 69.9004C9.38722 70.1672 8.88668 70.5571 8.5086 71.0759L10.125 72.2538ZM10.8032 71.7235C11.1102 71.5845 11.4713 71.5058 11.9034 71.5058V69.5058C11.2219 69.5058 10.5745 69.6316 9.97815 69.9016L10.8032 71.7235ZM11.9034 71.5058C12.3454 71.5058 12.6988 71.5846 12.9848 71.7165L13.8221 69.9002C13.2331 69.6286 12.5865 69.5058 11.9034 69.5058V71.5058ZM12.9896 71.7187C13.2903 71.8554 13.4953 72.0261 13.6385 72.2202L15.2479 71.0329C14.8798 70.5338 14.3916 70.159 13.8172 69.898L12.9896 71.7187ZM13.6416 72.2244C13.7755 72.4038 13.8451 72.599 13.8528 72.8391L15.8518 72.7747C15.8311 72.1341 15.628 71.5424 15.2448 71.0286L13.6416 72.2244ZM14.8523 71.8069H13.8296V73.8069H14.8523V71.8069ZM17.0671 79.3524V80.3524H17.7733L18.0095 79.6869L17.0671 79.3524ZM15.9592 79.3524L15.0205 79.0077L14.5267 80.3524H15.9592V79.3524ZM19.1637 70.6251V69.6251H18.4656L18.225 70.2804L19.1637 70.6251ZM20.2546 70.6251L21.1934 70.2804L20.9527 69.6251H20.2546V70.6251ZM23.4592 79.3524V80.3524H24.8917L24.3979 79.0077L23.4592 79.3524ZM22.3512 79.3524L21.4089 79.6869L21.6451 80.3524H22.3512V79.3524ZM19.7433 72.0058L20.6857 71.6712L20.4494 71.0058H19.7433V72.0058ZM19.6751 72.0058V71.0058H18.969L18.7327 71.6712L19.6751 72.0058ZM17.4762 75.9433V74.9433H16.4762V75.9433H17.4762ZM21.9421 75.9433H22.9421V74.9433H21.9421V75.9433ZM21.9421 76.8808V77.8808H22.9421V76.8808H21.9421ZM17.4762 76.8808H16.4762V77.8808H17.4762V76.8808ZM19.249 69.7387L18.3639 69.2733L17.5933 70.7387H19.249V69.7387ZM20.2887 67.7614V66.7614H19.6848L19.4037 67.296L20.2887 67.7614ZM21.4649 67.7614L22.2947 68.3194L23.3423 66.7614H21.4649V67.7614ZM20.1353 69.7387V70.7387H20.668L20.9652 70.2967L20.1353 69.7387ZM17.0671 78.3524H15.9592V80.3524H17.0671V78.3524ZM16.8979 79.697L20.1025 70.9698L18.225 70.2804L15.0205 79.0077L16.8979 79.697ZM19.1637 71.6251H20.2546V69.6251H19.1637V71.6251ZM19.3159 70.9698L22.5205 79.697L24.3979 79.0077L21.1934 70.2804L19.3159 70.9698ZM23.4592 78.3524H22.3512V80.3524H23.4592V78.3524ZM23.2936 79.0178L20.6857 71.6712L18.8009 72.3403L21.4089 79.6869L23.2936 79.0178ZM19.7433 71.0058H19.6751V73.0058H19.7433V71.0058ZM18.7327 71.6712L16.1248 79.0178L18.0095 79.6869L20.6175 72.3403L18.7327 71.6712ZM17.4762 76.9433H21.9421V74.9433H17.4762V76.9433ZM20.9421 75.9433V76.8808H22.9421V75.9433H20.9421ZM21.9421 75.8808H17.4762V77.8808H21.9421V75.8808ZM18.4762 76.8808V75.9433H16.4762V76.8808H18.4762ZM20.134 70.2042L21.1738 68.2269L19.4037 67.296L18.3639 69.2733L20.134 70.2042ZM20.2887 68.7614H21.4649V66.7614H20.2887V68.7614ZM20.635 67.2034L19.3055 69.1807L20.9652 70.2967L22.2947 68.3194L20.635 67.2034ZM20.1353 68.7387H19.249V70.7387H20.1353V68.7387ZM24.8186 79.3524H23.8186V80.3524H24.8186V79.3524ZM24.8186 70.6251V69.6251H23.8186V70.6251H24.8186ZM29.374 70.9404L28.904 71.8231L28.909 71.8258L29.374 70.9404ZM30.2561 71.7799L29.3792 72.2607L29.3809 72.2637L30.2561 71.7799ZM30.3456 73.8722L29.468 73.3927L29.4638 73.4006L30.3456 73.8722ZM29.8257 74.4518L29.276 73.6164L29.271 73.6197L29.8257 74.4518ZM29.1311 74.7671L28.868 73.8024L28.1311 74.0033V74.7671H29.1311ZM29.1311 74.8524H28.1311V75.7906L29.0674 75.8503L29.1311 74.8524ZM29.9365 75.1336L29.4025 75.9791L29.4025 75.9791L29.9365 75.1336ZM30.5885 78.2146L31.4576 78.7092L30.5885 78.2146ZM29.6467 79.0455L29.2163 78.1429L29.6467 79.0455ZM25.8754 78.4149H24.8754V79.4149H25.8754V78.4149ZM29.4421 78.0143L30.1198 78.7496L30.1201 78.7494L29.4421 78.0143ZM29.6552 76.216L28.796 76.7277L28.7986 76.7319L29.6552 76.216ZM29.0117 75.6109L28.5291 76.4867L28.536 76.4905L29.0117 75.6109ZM25.8754 75.3808V74.3808H24.8754V75.3808H25.8754ZM25.8754 74.4603H24.8754V75.4603H25.8754V74.4603ZM28.6964 74.2728L28.2611 73.3725L28.2572 73.3744L28.6964 74.2728ZM29.31 73.7444L28.4812 73.1849L28.4764 73.1921L29.31 73.7444ZM29.1396 71.9674L28.4287 72.6708L28.4325 72.6745L29.1396 71.9674ZM25.8754 71.5626V70.5626H24.8754V71.5626H25.8754ZM25.8186 79.3524V70.6251H23.8186V79.3524H25.8186ZM24.8186 71.6251H27.8697V69.6251H24.8186V71.6251ZM27.8697 71.6251C28.3699 71.6251 28.6964 71.7126 28.904 71.8231L29.8439 70.0577C29.2618 69.7478 28.5854 69.6251 27.8697 69.6251V71.6251ZM28.909 71.8258C29.1497 71.9522 29.2909 72.0996 29.3793 72.2607L31.1329 71.2991C30.8349 70.7557 30.388 70.3434 29.8389 70.0551L28.909 71.8258ZM29.3809 72.2637C29.4867 72.4551 29.5458 72.6746 29.5458 72.9433H31.5458C31.5458 72.3596 31.4118 71.8036 31.1312 71.2961L29.3809 72.2637ZM29.5458 72.9433C29.5458 73.2064 29.4981 73.3376 29.4681 73.3927L31.2231 74.3518C31.46 73.9182 31.5458 73.4301 31.5458 72.9433H29.5458ZM29.4638 73.4006C29.4059 73.5088 29.3427 73.5726 29.2761 73.6164L30.3753 75.2872C30.7405 75.0469 31.0238 74.7244 31.2273 74.3439L29.4638 73.4006ZM29.271 73.6197C29.1484 73.7014 29.0155 73.7621 28.868 73.8024L29.3942 75.7319C29.7466 75.6358 30.0768 75.4862 30.3804 75.2838L29.271 73.6197ZM28.1311 74.7671V74.8524H30.1311V74.7671H28.1311ZM29.0674 75.8503C29.1379 75.8548 29.2469 75.8808 29.4025 75.9791L30.4705 74.2881C30.0863 74.0455 29.6583 73.884 29.1948 73.8544L29.0674 75.8503ZM29.4025 75.9791C29.5148 76.05 29.633 76.1654 29.7458 76.3627L31.4823 75.3704C31.2314 74.9314 30.8979 74.5581 30.4705 74.2881L29.4025 75.9791ZM29.7458 76.3627C29.8218 76.4958 29.8867 76.7041 29.8867 77.0342H31.8867C31.8867 76.4438 31.7699 75.8737 31.4823 75.3704L29.7458 76.3627ZM29.8867 77.0342C29.8867 77.314 29.825 77.5344 29.7193 77.72L31.4576 78.7092C31.7497 78.1959 31.8867 77.6294 31.8867 77.0342H29.8867ZM29.7193 77.72C29.6389 77.8613 29.4952 78.0099 29.2163 78.1429L30.0771 79.9482C30.6562 79.6721 31.1403 79.2667 31.4576 78.7092L29.7193 77.72ZM29.2163 78.1429C28.968 78.2613 28.5721 78.3524 27.972 78.3524V80.3524C28.7469 80.3524 29.4674 80.2389 30.0771 79.9482L29.2163 78.1429ZM27.972 78.3524H24.8186V80.3524H27.972V78.3524ZM25.8754 79.4149H27.972V77.4149H25.8754V79.4149ZM27.972 79.4149C28.7409 79.4149 29.5489 79.2758 30.1198 78.7496L28.7645 77.2789C28.7666 77.277 28.7281 77.3135 28.5944 77.3499C28.4595 77.3867 28.2578 77.4149 27.972 77.4149V79.4149ZM30.1201 78.7494C30.6092 78.2983 30.8811 77.7087 30.8811 77.0342H28.8811C28.8811 77.1267 28.8603 77.1905 28.7642 77.2792L30.1201 78.7494ZM30.8811 77.0342C30.8811 76.5593 30.7574 76.1078 30.5118 75.7001L28.7986 76.7319C28.8541 76.8242 28.8811 76.9182 28.8811 77.0342H30.8811ZM30.5144 75.7043C30.2646 75.2848 29.9121 74.9609 29.4875 74.7313L28.536 76.4905C28.6682 76.562 28.7447 76.6415 28.796 76.7276L30.5144 75.7043ZM29.4944 74.735C29.0415 74.4855 28.5393 74.3808 28.0231 74.3808V76.3808C28.2683 76.3808 28.4252 76.4294 28.5291 76.4867L29.4944 74.735ZM28.0231 74.3808H25.8754V76.3808H28.0231V74.3808ZM24.8754 75.3808V78.4149H26.8754V75.3808H24.8754ZM25.8754 75.4603H27.8356V73.4603H25.8754V75.4603ZM27.8356 75.4603C28.2879 75.4603 28.7278 75.3706 29.1356 75.1712L28.2572 73.3744C28.1537 73.425 28.0197 73.4603 27.8356 73.4603V75.4603ZM29.1317 75.1731C29.5429 74.9743 29.8886 74.6817 30.1437 74.2967L28.4764 73.1921C28.4303 73.2616 28.367 73.3213 28.2611 73.3725L29.1317 75.1731ZM30.1389 74.3039C30.4169 73.8921 30.5402 73.4249 30.5402 72.9433H28.5402C28.5402 73.0753 28.51 73.1422 28.4812 73.1849L30.1389 74.3039ZM30.5402 72.9433C30.5402 72.2991 30.3045 71.7181 29.8467 71.2603L28.4325 72.6745C28.5087 72.7508 28.5402 72.8203 28.5402 72.9433H30.5402ZM29.8504 71.2641C29.3167 70.7246 28.5781 70.5626 27.8697 70.5626V72.5626C28.3204 72.5626 28.4284 72.6704 28.4288 72.6708L29.8504 71.2641ZM27.8697 70.5626H25.8754V72.5626H27.8697V70.5626ZM24.8754 71.5626V74.4603H26.8754V71.5626H24.8754ZM32.9812 79.3524V80.3524H33.6874L33.9236 79.6869L32.9812 79.3524ZM31.8733 79.3524L30.9345 79.0077L30.4408 80.3524H31.8733V79.3524ZM35.0778 70.6251V69.6251H34.3797L34.1391 70.2804L35.0778 70.6251ZM36.1687 70.6251L37.1074 70.2804L36.8668 69.6251H36.1687V70.6251ZM39.3733 79.3524V80.3524H40.8057L40.312 79.0077L39.3733 79.3524ZM38.2653 79.3524L37.3229 79.6869L37.5591 80.3524H38.2653V79.3524ZM35.6573 72.0058L36.5997 71.6712L36.3635 71.0058H35.6573V72.0058ZM35.5892 72.0058V71.0058H34.883L34.6468 71.6712L35.5892 72.0058ZM33.3903 75.9433V74.9433H32.3903V75.9433H33.3903ZM37.8562 75.9433H38.8562V74.9433H37.8562V75.9433ZM37.8562 76.8808V77.8808H38.8562V76.8808H37.8562ZM33.3903 76.8808H32.3903V77.8808H33.3903V76.8808ZM32.9812 78.3524H31.8733V80.3524H32.9812V78.3524ZM32.812 79.697L36.0165 70.9698L34.1391 70.2804L30.9345 79.0077L32.812 79.697ZM35.0778 71.6251H36.1687V69.6251H35.0778V71.6251ZM35.23 70.9698L38.4345 79.697L40.312 79.0077L37.1074 70.2804L35.23 70.9698ZM39.3733 78.3524H38.2653V80.3524H39.3733V78.3524ZM39.2077 79.0178L36.5997 71.6712L34.715 72.3403L37.3229 79.6869L39.2077 79.0178ZM35.6573 71.0058H35.5892V73.0058H35.6573V71.0058ZM34.6468 71.6712L32.0388 79.0178L33.9236 79.6869L36.5315 72.3403L34.6468 71.6712ZM33.3903 76.9433H37.8562V74.9433H33.3903V76.9433ZM36.8562 75.9433V76.8808H38.8562V75.9433H36.8562ZM37.8562 75.8808H33.3903V77.8808H37.8562V75.8808ZM34.3903 76.8808V75.9433H32.3903V76.8808H34.3903ZM40.7326 79.3524H39.7326V80.3524H40.7326V79.3524ZM40.7326 70.6251V69.6251H39.7326V70.6251H40.7326ZM45.7184 71.1492L45.2166 72.0142L45.2196 72.016L45.7184 71.1492ZM47.1034 72.645L46.2066 73.0875L46.2074 73.089L47.1034 72.645ZM47.0991 77.3197L47.9951 77.7638L47.9959 77.7622L47.0991 77.3197ZM45.6843 78.8282L46.1757 79.6991L46.1788 79.6974L45.6843 78.8282ZM41.7894 78.4149H40.7894V79.4149H41.7894V78.4149ZM46.217 73.1521L45.3051 73.5624L45.3059 73.5643L46.217 73.1521ZM45.1858 71.9759L44.6697 72.8325L44.6736 72.8348L45.1858 71.9759ZM41.7894 71.5626V70.5626H40.7894V71.5626H41.7894ZM43.4258 78.3524H40.7326V80.3524H43.4258V78.3524ZM41.7326 79.3524V70.6251H39.7326V79.3524H41.7326ZM40.7326 71.6251H43.5451V69.6251H40.7326V71.6251ZM43.5451 71.6251C44.2534 71.6251 44.7965 71.7705 45.2166 72.0142L46.2203 70.2843C45.4358 69.8291 44.53 69.6251 43.5451 69.6251V71.6251ZM45.2196 72.016C45.6423 72.2592 45.9692 72.6064 46.2066 73.0875L48.0001 72.2025C47.5955 71.3824 46.9991 70.7324 46.2172 70.2825L45.2196 72.016ZM46.2074 73.089C46.4451 73.5686 46.5849 74.1848 46.5849 74.9717H48.5849C48.5849 73.9518 48.4037 73.0168 47.9994 72.2009L46.2074 73.089ZM46.5849 74.9717C46.5849 75.7636 46.4439 76.3878 46.2024 76.8771L47.9959 77.7622C48.4021 76.9391 48.5849 75.9979 48.5849 74.9717H46.5849ZM46.2031 76.8756C45.9655 77.3549 45.6317 77.7077 45.1899 77.959L46.1788 79.6974C46.9756 79.2442 47.5849 78.5913 47.9951 77.7638L46.2031 76.8756ZM45.1929 77.9573C44.7563 78.2037 44.1819 78.3524 43.4258 78.3524V80.3524C44.4425 80.3524 45.3738 80.1516 46.1757 79.6991L45.1929 77.9573ZM41.7894 79.4149H43.3576V77.4149H41.7894V79.4149ZM43.3576 79.4149C44.2031 79.4149 44.9892 79.2521 45.6578 78.8597L44.6455 77.1348C44.3653 77.2992 43.9553 77.4149 43.3576 77.4149V79.4149ZM45.6578 78.8597C46.3153 78.4739 46.8078 77.9181 47.1236 77.221L45.3019 76.3957C45.1518 76.727 44.9369 76.9638 44.6455 77.1348L45.6578 78.8597ZM47.1236 77.221C47.4284 76.5482 47.5622 75.7886 47.5622 74.9717H45.5622C45.5622 75.5752 45.463 76.04 45.3019 76.3957L47.1236 77.221ZM47.5622 74.9717C47.5622 74.161 47.43 73.4071 47.1281 72.7398L45.3059 73.5643C45.4642 73.9141 45.5622 74.3732 45.5622 74.9717H47.5622ZM47.1289 72.7417C46.8194 72.0539 46.341 71.5005 45.6979 71.117L44.6736 72.8348C44.9453 72.9968 45.1544 73.2275 45.3051 73.5624L47.1289 72.7417ZM45.7018 71.1194C45.051 70.7273 44.291 70.5626 43.4769 70.5626V72.5626C44.0265 72.5626 44.4057 72.6734 44.6697 72.8325L45.7018 71.1194ZM43.4769 70.5626H41.7894V72.5626H43.4769V70.5626ZM40.7894 71.5626V78.4149H42.7894V71.5626H40.7894ZM56.2227 77.3751L55.3267 76.9309L56.2227 77.3751ZM54.8548 78.9262L55.3863 79.7733L54.8548 78.9262ZM50.8832 78.9262L50.3517 79.7733L50.8832 78.9262ZM49.5153 77.3751L50.4112 76.9309L49.5153 77.3751ZM54.8548 71.0512L55.3863 70.2042V70.2042L54.8548 71.0512ZM56.2227 72.6024L55.3267 73.0465V73.0465L56.2227 72.6024ZM55.3193 73.0754L54.4181 73.5087L54.42 73.5127L55.3193 73.0754ZM54.3008 71.895L53.7698 72.7423L53.7723 72.7439L54.3008 71.895ZM51.4329 71.895L50.9044 71.046L50.9019 71.0476L51.4329 71.895ZM50.4144 73.0754L49.5152 72.638L49.5132 72.642L50.4144 73.0754ZM50.4144 76.9021L49.5132 77.3354L49.5152 77.3394L50.4144 76.9021ZM51.4329 78.0825L50.9019 78.9298L50.9044 78.9314L51.4329 78.0825ZM54.3008 78.0825L53.7723 77.2335L53.7698 77.2351L54.3008 78.0825ZM55.3193 76.9021L54.42 76.4647L54.4181 76.4687L55.3193 76.9021ZM55.7213 74.9887C55.7213 75.7899 55.5767 76.4266 55.3267 76.9309L57.1186 77.8193C57.5334 76.9826 57.7213 76.0285 57.7213 74.9887H55.7213ZM55.3267 76.9309C55.0684 77.452 54.732 77.8227 54.3233 78.0792L55.3863 79.7733C56.1367 79.3025 56.7122 78.639 57.1186 77.8193L55.3267 76.9309ZM54.3233 78.0792C53.917 78.3341 53.4425 78.4717 52.869 78.4717V80.4717C53.7842 80.4717 54.6335 80.2456 55.3863 79.7733L54.3233 78.0792ZM52.869 78.4717C52.2955 78.4717 51.821 78.3341 51.4147 78.0792L50.3517 79.7733C51.1045 80.2456 51.9538 80.4717 52.869 80.4717V78.4717ZM51.4147 78.0792C51.006 77.8227 50.6696 77.452 50.4112 76.9309L48.6194 77.8193C49.0258 78.639 49.6013 79.3025 50.3517 79.7733L51.4147 78.0792ZM50.4112 76.9309C50.1612 76.4266 50.0167 75.7899 50.0167 74.9887H48.0167C48.0167 76.0285 48.2046 76.9826 48.6194 77.8193L50.4112 76.9309ZM50.0167 74.9887C50.0167 74.1876 50.1612 73.5508 50.4112 73.0465L48.6194 72.1582C48.2046 72.9948 48.0167 73.949 48.0167 74.9887H50.0167ZM50.4112 73.0465C50.6696 72.5254 51.006 72.1547 51.4147 71.8983L50.3517 70.2042C49.6013 70.675 49.0258 71.3384 48.6194 72.1582L50.4112 73.0465ZM51.4147 71.8983C51.821 71.6433 52.2955 71.5058 52.869 71.5058V69.5058C51.9538 69.5058 51.1045 69.7318 50.3517 70.2042L51.4147 71.8983ZM52.869 71.5058C53.4425 71.5058 53.917 71.6433 54.3233 71.8983L55.3863 70.2042C54.6335 69.7318 53.7842 69.5058 52.869 69.5058V71.5058ZM54.3233 71.8983C54.732 72.1547 55.0684 72.5254 55.3267 73.0465L57.1186 72.1582C56.7122 71.3384 56.1367 70.675 55.3863 70.2042L54.3233 71.8983ZM55.3267 73.0465C55.5767 73.5508 55.7213 74.1876 55.7213 74.9887H57.7213C57.7213 73.949 57.5334 72.9948 57.1186 72.1582L55.3267 73.0465ZM56.6985 74.9887C56.6985 74.1262 56.5548 73.3294 56.2186 72.638L54.42 73.5127C54.5894 73.8611 54.6985 74.3399 54.6985 74.9887H56.6985ZM56.2205 72.642C55.9002 71.9759 55.4414 71.427 54.8293 71.046L53.7723 72.7439C54.0182 72.897 54.2384 73.1351 54.4181 73.5087L56.2205 72.642ZM54.8318 71.0476C54.2383 70.6756 53.5752 70.4944 52.869 70.4944V72.4944C53.2196 72.4944 53.5111 72.5802 53.7698 72.7423L54.8318 71.0476ZM52.869 70.4944C52.1627 70.4944 51.4994 70.6756 50.9044 71.046L51.9614 72.7439C52.2243 72.5802 52.5184 72.4944 52.869 72.4944V70.4944ZM50.9019 71.0476C50.2944 71.4283 49.8374 71.9754 49.5152 72.638L51.3137 73.5127C51.4972 73.1356 51.7192 72.8957 51.9639 72.7423L50.9019 71.0476ZM49.5132 72.642C49.1813 73.3323 49.0394 74.1276 49.0394 74.9887H51.0394C51.0394 74.3385 51.1476 73.8583 51.3157 73.5087L49.5132 72.642ZM49.0394 74.9887C49.0394 75.8498 49.1813 76.6452 49.5132 77.3354L51.3157 76.4687C51.1476 76.1192 51.0394 75.639 51.0394 74.9887H49.0394ZM49.5152 77.3394C49.8374 78.002 50.2944 78.5491 50.9019 78.9298L51.9639 77.2351C51.7192 77.0817 51.4972 76.8419 51.3137 76.4647L49.5152 77.3394ZM50.9044 78.9314C51.4994 79.3018 52.1627 79.483 52.869 79.483V77.483C52.5184 77.483 52.2243 77.3972 51.9614 77.2335L50.9044 78.9314ZM52.869 79.483C53.5752 79.483 54.2383 79.3018 54.8318 78.9298L53.7698 77.2351C53.5111 77.3972 53.2196 77.483 52.869 77.483V79.483ZM54.8293 78.9314C55.4414 78.5504 55.9002 78.0016 56.2205 77.3354L54.4181 76.4687C54.2384 76.8423 54.0182 77.0805 53.7723 77.2335L54.8293 78.9314ZM56.2186 77.3394C56.5548 76.6481 56.6985 75.8512 56.6985 74.9887H54.6985C54.6985 75.6376 54.5894 76.1163 54.42 76.4647L56.2186 77.3394Z" fill="black" mask="url(#path-1-outside-1_129_46)"/>
<rect x="0.434827" y="1.24486" width="63.9212" height="63.3665" rx="21.5692" transform="rotate(-0.537736 0.434827 1.24486)" stroke="#B7CAD0" stroke-width="0.861606"/>
<g clip-path="url(#clip0_129_46)">
<path d="M41.2391 16.0403C37.9586 14.3498 34.2505 13.6699 30.5836 14.0868C26.9167 14.5037 23.4559 15.9985 20.6386 18.3823C17.8213 20.7662 15.7742 23.9319 14.7561 27.4791C13.738 31.0264 13.7946 34.7959 14.9188 38.311C16.0431 41.826 18.1844 44.9288 21.072 47.2269C23.9597 49.5249 27.4639 50.9151 31.1416 51.2216C34.8194 51.5282 38.5054 50.7372 41.7336 48.9488C44.9618 47.1604 47.5872 44.4549 49.2778 41.1745C51.5448 36.7755 51.9714 31.6561 50.4639 26.9425C48.9563 22.229 45.6381 18.3073 41.2391 16.0403ZM26.5495 47.4542L27.16 46.2695C27.322 45.9553 27.3524 45.5896 27.2448 45.2529C27.1371 44.9162 26.9001 44.6361 26.5858 44.4742C26.2716 44.3122 25.906 44.2818 25.5693 44.3894C25.2326 44.4971 24.9525 44.7342 24.7905 45.0484L24.18 46.2331C20.9708 44.2199 18.5804 41.133 17.4346 37.522C16.2887 33.9111 16.4619 30.0106 17.9231 26.5154L19.0486 27.0954C19.3628 27.2573 19.7285 27.2878 20.0652 27.1801C20.4019 27.0725 20.682 26.8354 20.8439 26.5212C21.0058 26.207 21.0363 25.8413 20.9286 25.5047C20.821 25.168 20.5839 24.8879 20.2697 24.7259L19.085 24.1154C21.0982 20.9062 24.1851 18.5158 27.7961 17.3699C31.407 16.2241 35.3075 16.3972 38.8027 17.8585L38.2227 18.984C38.0607 19.2982 38.0303 19.6639 38.1379 20.0006C38.2456 20.3373 38.4826 20.6174 38.7969 20.7793C39.1111 20.9412 39.4767 20.9717 39.8134 20.864C40.1501 20.7563 40.4302 20.5193 40.5922 20.2051L41.2027 19.0204C44.4294 21.0256 46.8369 24.114 47.9942 27.7324C49.1515 31.3508 48.983 35.2631 47.5188 38.7686L46.3341 38.1581C46.0199 37.9961 45.6542 37.9657 45.3175 38.0733C44.9808 38.181 44.7007 38.418 44.5388 38.7322C44.3769 39.0465 44.3464 39.4121 44.4541 39.7488C44.5617 40.0855 44.7988 40.3656 45.113 40.5275L46.2977 41.1381C44.2925 44.3648 41.2041 46.7723 37.5857 47.9296C33.9672 49.0869 30.055 48.9184 26.5495 47.4542Z" fill="#304046"/>
<path d="M43.5701 26.7627L32.7569 31.1611L27.3782 28.3892C27.064 28.2273 26.6983 28.1968 26.3616 28.3045C26.0249 28.4122 25.7448 28.6492 25.5829 28.9634C25.421 29.2776 25.3905 29.6433 25.4982 29.98C25.6059 30.3167 25.8429 30.5968 26.1571 30.7587L32.0808 33.8115C32.2442 33.8974 32.4251 33.9445 32.6097 33.949L32.735 33.9387C32.8755 33.9383 33.0149 33.9138 33.1471 33.8662L44.5295 29.2363C44.6915 29.1702 44.839 29.0728 44.9634 28.9497C45.0878 28.8265 45.1868 28.6801 45.2546 28.5188C45.3225 28.3574 45.3579 28.1843 45.3588 28.0092C45.3597 27.8342 45.3261 27.6607 45.26 27.4986C45.1939 27.3366 45.0965 27.1891 44.9734 27.0647C44.8503 26.9403 44.7039 26.8413 44.5425 26.7735C44.3811 26.7056 44.208 26.6703 44.033 26.6693C43.8579 26.6684 43.6844 26.702 43.5224 26.7681L43.5701 26.7627Z" fill="#304046"/>
</g>
<defs>
<clipPath id="clip0_129_46">
<rect width="42.65" height="42.65" fill="white" transform="translate(23.5043 3.90204) rotate(27.2641)"/>
</clipPath>
</defs>
</svg>
