<svg width="66" height="80" viewBox="0 0 66 80" fill="none" xmlns="http://www.w3.org/2000/svg">
<rect x="0.434827" y="1.03471" width="63.9212" height="63.488" rx="21.5692" transform="rotate(-0.537736 0.434827 1.03471)" stroke="#B7CAD0" stroke-width="0.861606"/>
<g clip-path="url(#clip0_52_10)">
<path d="M41.2397 15.8909C37.9592 14.2003 34.2511 13.5205 30.5842 13.9374C26.9174 14.3542 23.4565 15.8491 20.6392 18.2329C17.8219 20.6167 15.7748 23.7824 14.7567 27.3297C13.7386 30.877 13.7952 34.6465 14.9195 38.1615C16.0437 41.6766 18.185 44.7794 21.0726 47.0775C23.9603 49.3755 27.4645 50.7657 31.1422 51.0722C34.82 51.3787 38.506 50.5878 41.7342 48.7994C44.9624 47.011 47.5878 44.3055 49.2784 41.025C51.5454 36.626 51.972 31.5067 50.4645 26.7931C48.9569 22.0795 45.6387 18.1579 41.2397 15.8909ZM26.5501 47.3048L27.1606 46.1201C27.3226 45.8058 27.353 45.4402 27.2454 45.1035C27.1377 44.7668 26.9007 44.4867 26.5865 44.3248C26.2722 44.1628 25.9066 44.1324 25.5699 44.24C25.2332 44.3477 24.9531 44.5847 24.7912 44.8989L24.1806 46.0837C20.9714 44.0705 18.581 40.9835 17.4352 37.3726C16.2893 33.7617 16.4625 29.8612 17.9237 26.366L19.0492 26.946C19.3634 27.1079 19.7291 27.1384 20.0658 27.0307C20.4025 26.923 20.6826 26.686 20.8445 26.3718C21.0065 26.0576 21.0369 25.6919 20.9292 25.3552C20.8216 25.0186 20.5845 24.7384 20.2703 24.5765L19.0856 23.966C21.0988 20.7568 24.1857 18.3664 27.7967 17.2205C31.4076 16.0747 35.3081 16.2478 38.8033 17.7091L38.2233 18.8346C38.0613 19.1488 38.0309 19.5145 38.1386 19.8512C38.2462 20.1878 38.4833 20.468 38.7975 20.6299C39.1117 20.7918 39.4774 20.8223 39.814 20.7146C40.1507 20.6069 40.4308 20.3699 40.5928 20.0557L41.2033 18.871C44.43 20.8762 46.8375 23.9645 47.9948 27.583C49.1521 31.2014 48.9836 35.1137 47.5194 38.6192L46.3347 38.0086C46.0205 37.8467 45.6548 37.8162 45.3181 37.9239C44.9814 38.0316 44.7013 38.2686 44.5394 38.5828C44.3775 38.897 44.347 39.2627 44.4547 39.5994C44.5624 39.9361 44.7994 40.2162 45.1136 40.3781L46.2983 40.9887C44.2931 44.2153 41.2047 46.6229 37.5863 47.7802C33.9679 48.9374 30.0556 48.7689 26.5501 47.3048Z" fill="#304046"/>
<path d="M43.5708 26.6133L32.7576 31.0117L27.3788 28.2398C27.0646 28.0779 26.6989 28.0474 26.3623 28.1551C26.0256 28.2628 25.7455 28.4998 25.5835 28.814C25.4216 29.1282 25.3911 29.4939 25.4988 29.8306C25.6065 30.1672 25.8435 30.4474 26.1577 30.6093L32.0814 33.662C32.2448 33.748 32.4258 33.7951 32.6103 33.7996L32.7356 33.7892C32.8761 33.7889 33.0155 33.7644 33.1478 33.7168L44.5301 29.0869C44.6922 29.0208 44.8396 28.9234 44.964 28.8002C45.0885 28.6771 45.1874 28.5307 45.2552 28.3694C45.3231 28.208 45.3585 28.0349 45.3594 27.8598C45.3603 27.6848 45.3268 27.5113 45.2606 27.3492C45.1945 27.1872 45.0971 27.0397 44.974 26.9153C44.8509 26.7909 44.7045 26.6919 44.5431 26.6241C44.3818 26.5562 44.2086 26.5208 44.0336 26.5199C43.8586 26.519 43.6851 26.5525 43.523 26.6187L43.5708 26.6133Z" fill="#304046"/>
</g>
<mask id="path-4-outside-1_52_10" maskUnits="userSpaceOnUse" x="3" y="67" width="61" height="12" fill="black">
<rect fill="white" x="3" y="67" width="61" height="12"/>
<path d="M9.82955 70.4545C9.77841 70.0227 9.57102 69.6875 9.20739 69.4489C8.84375 69.2102 8.39773 69.0909 7.86932 69.0909C7.48295 69.0909 7.14489 69.1534 6.85511 69.2784C6.56818 69.4034 6.34375 69.5753 6.18182 69.794C6.02273 70.0128 5.94318 70.2614 5.94318 70.5398C5.94318 70.7727 5.99858 70.973 6.10938 71.1406C6.22301 71.3054 6.3679 71.4432 6.54403 71.554C6.72017 71.6619 6.90483 71.7514 7.09801 71.8224C7.29119 71.8906 7.46875 71.946 7.63068 71.9886L8.51705 72.2273C8.74432 72.2869 8.99716 72.3693 9.27557 72.4744C9.55682 72.5795 9.82528 72.723 10.081 72.9048C10.3395 73.0838 10.5526 73.3139 10.7202 73.5952C10.8878 73.8764 10.9716 74.2216 10.9716 74.6307C10.9716 75.1023 10.848 75.5284 10.6009 75.9091C10.3565 76.2898 9.99858 76.5923 9.52699 76.8168C9.05824 77.0412 8.48864 77.1534 7.81818 77.1534C7.19318 77.1534 6.65199 77.0526 6.1946 76.8509C5.74006 76.6491 5.3821 76.3679 5.12074 76.0071C4.86222 75.6463 4.71591 75.2273 4.68182 74.75H5.77273C5.80114 75.0795 5.91193 75.3523 6.10511 75.5682C6.30114 75.7812 6.5483 75.9403 6.84659 76.0455C7.14773 76.1477 7.47159 76.1989 7.81818 76.1989C8.22159 76.1989 8.58381 76.1335 8.90483 76.0028C9.22585 75.8693 9.48011 75.6847 9.66761 75.4489C9.85511 75.2102 9.94886 74.9318 9.94886 74.6136C9.94886 74.3239 9.8679 74.0881 9.70597 73.9062C9.54403 73.7244 9.33097 73.5767 9.06676 73.4631C8.80256 73.3494 8.51705 73.25 8.21023 73.1648L7.13636 72.858C6.45455 72.6619 5.91477 72.3821 5.51705 72.0185C5.11932 71.6548 4.92045 71.179 4.92045 70.5909C4.92045 70.1023 5.05256 69.6761 5.31676 69.3125C5.58381 68.946 5.94176 68.6619 6.39062 68.4602C6.84233 68.2557 7.34659 68.1534 7.90341 68.1534C8.46591 68.1534 8.96591 68.2543 9.40341 68.456C9.84091 68.6548 10.1875 68.9276 10.4432 69.2741C10.7017 69.6207 10.8381 70.0142 10.8523 70.4545H9.82955ZM12.7092 77V68.2727H17.9762V69.2102H13.766V72.1591H17.7035V73.0966H13.766V76.0625H18.0444V77H12.7092ZM25.8469 71C25.7532 70.7131 25.6296 70.456 25.4762 70.2287C25.3256 69.9986 25.1452 69.8026 24.935 69.6406C24.7276 69.4787 24.4918 69.3551 24.2276 69.2699C23.9634 69.1847 23.6737 69.142 23.3583 69.142C22.8413 69.142 22.3711 69.2756 21.9478 69.5426C21.5245 69.8097 21.1879 70.2031 20.9379 70.723C20.6879 71.2429 20.5629 71.8807 20.5629 72.6364C20.5629 73.392 20.6893 74.0298 20.9421 74.5497C21.195 75.0696 21.5373 75.4631 21.9691 75.7301C22.4009 75.9972 22.8867 76.1307 23.4265 76.1307C23.9265 76.1307 24.3668 76.0241 24.7475 75.8111C25.131 75.5952 25.4293 75.2912 25.6424 74.8991C25.8583 74.5043 25.9663 74.0398 25.9663 73.5057L26.2901 73.5739H23.6651V72.6364H26.989V73.5739C26.989 74.2926 26.8356 74.9176 26.5288 75.4489C26.2248 75.9801 25.8043 76.392 25.2674 76.6847C24.7333 76.9744 24.1197 77.1193 23.4265 77.1193C22.6538 77.1193 21.9748 76.9375 21.3896 76.5739C20.8072 76.2102 20.3526 75.6932 20.0259 75.0227C19.7021 74.3523 19.5401 73.5568 19.5401 72.6364C19.5401 71.946 19.6325 71.3253 19.8171 70.7741C20.0046 70.2202 20.2688 69.7486 20.6097 69.3594C20.9506 68.9702 21.354 68.6719 21.82 68.4645C22.2859 68.2571 22.7987 68.1534 23.3583 68.1534C23.8185 68.1534 24.2475 68.223 24.6452 68.3622C25.0458 68.4986 25.4023 68.6932 25.7148 68.946C26.0302 69.196 26.293 69.4957 26.5032 69.8452C26.7134 70.1918 26.8583 70.5767 26.9379 71H25.8469ZM34.5263 68.2727H35.5831V74.0511C35.5831 74.6477 35.4425 75.1804 35.1612 75.6491C34.8828 76.1151 34.4893 76.483 33.9808 76.7528C33.4723 77.0199 32.8757 77.1534 32.1911 77.1534C31.5064 77.1534 30.9098 77.0199 30.4013 76.7528C29.8928 76.483 29.4979 76.1151 29.2166 75.6491C28.9382 75.1804 28.799 74.6477 28.799 74.0511V68.2727H29.8558V73.9659C29.8558 74.392 29.9496 74.7713 30.1371 75.1037C30.3246 75.4332 30.5916 75.6932 30.9382 75.8835C31.2876 76.071 31.7053 76.1648 32.1911 76.1648C32.6768 76.1648 33.0945 76.071 33.4439 75.8835C33.7933 75.6932 34.0604 75.4332 34.245 75.1037C34.4325 74.7713 34.5263 74.392 34.5263 73.9659V68.2727ZM44.614 68.2727V77H43.5913L38.8356 70.1477H38.7504V77H37.6935V68.2727H38.7163L43.489 75.142H43.5742V68.2727H44.614ZM49.4219 77H46.7287V68.2727H49.5412C50.3878 68.2727 51.1122 68.4474 51.7145 68.7969C52.3168 69.1435 52.7784 69.642 53.0994 70.2926C53.4205 70.9403 53.581 71.7159 53.581 72.6193C53.581 73.5284 53.419 74.3111 53.0952 74.9673C52.7713 75.6207 52.2997 76.1236 51.6804 76.4759C51.0611 76.8253 50.3082 77 49.4219 77ZM47.7855 76.0625H49.3537C50.0753 76.0625 50.6733 75.9233 51.1477 75.6449C51.6222 75.3665 51.9759 74.9702 52.2088 74.456C52.4418 73.9418 52.5582 73.3295 52.5582 72.6193C52.5582 71.9148 52.4432 71.3082 52.2131 70.7997C51.983 70.2884 51.6392 69.8963 51.1818 69.6236C50.7244 69.348 50.1548 69.2102 49.473 69.2102H47.7855V76.0625ZM55.3015 77H54.1935L57.3981 68.2727H58.489L61.6935 77H60.5856L57.9776 69.6534H57.9094L55.3015 77ZM55.7106 73.5909H60.1765V74.5284H55.7106V73.5909Z"/>
</mask>
<path d="M9.82955 70.4545C9.77841 70.0227 9.57102 69.6875 9.20739 69.4489C8.84375 69.2102 8.39773 69.0909 7.86932 69.0909C7.48295 69.0909 7.14489 69.1534 6.85511 69.2784C6.56818 69.4034 6.34375 69.5753 6.18182 69.794C6.02273 70.0128 5.94318 70.2614 5.94318 70.5398C5.94318 70.7727 5.99858 70.973 6.10938 71.1406C6.22301 71.3054 6.3679 71.4432 6.54403 71.554C6.72017 71.6619 6.90483 71.7514 7.09801 71.8224C7.29119 71.8906 7.46875 71.946 7.63068 71.9886L8.51705 72.2273C8.74432 72.2869 8.99716 72.3693 9.27557 72.4744C9.55682 72.5795 9.82528 72.723 10.081 72.9048C10.3395 73.0838 10.5526 73.3139 10.7202 73.5952C10.8878 73.8764 10.9716 74.2216 10.9716 74.6307C10.9716 75.1023 10.848 75.5284 10.6009 75.9091C10.3565 76.2898 9.99858 76.5923 9.52699 76.8168C9.05824 77.0412 8.48864 77.1534 7.81818 77.1534C7.19318 77.1534 6.65199 77.0526 6.1946 76.8509C5.74006 76.6491 5.3821 76.3679 5.12074 76.0071C4.86222 75.6463 4.71591 75.2273 4.68182 74.75H5.77273C5.80114 75.0795 5.91193 75.3523 6.10511 75.5682C6.30114 75.7812 6.5483 75.9403 6.84659 76.0455C7.14773 76.1477 7.47159 76.1989 7.81818 76.1989C8.22159 76.1989 8.58381 76.1335 8.90483 76.0028C9.22585 75.8693 9.48011 75.6847 9.66761 75.4489C9.85511 75.2102 9.94886 74.9318 9.94886 74.6136C9.94886 74.3239 9.8679 74.0881 9.70597 73.9062C9.54403 73.7244 9.33097 73.5767 9.06676 73.4631C8.80256 73.3494 8.51705 73.25 8.21023 73.1648L7.13636 72.858C6.45455 72.6619 5.91477 72.3821 5.51705 72.0185C5.11932 71.6548 4.92045 71.179 4.92045 70.5909C4.92045 70.1023 5.05256 69.6761 5.31676 69.3125C5.58381 68.946 5.94176 68.6619 6.39062 68.4602C6.84233 68.2557 7.34659 68.1534 7.90341 68.1534C8.46591 68.1534 8.96591 68.2543 9.40341 68.456C9.84091 68.6548 10.1875 68.9276 10.4432 69.2741C10.7017 69.6207 10.8381 70.0142 10.8523 70.4545H9.82955ZM12.7092 77V68.2727H17.9762V69.2102H13.766V72.1591H17.7035V73.0966H13.766V76.0625H18.0444V77H12.7092ZM25.8469 71C25.7532 70.7131 25.6296 70.456 25.4762 70.2287C25.3256 69.9986 25.1452 69.8026 24.935 69.6406C24.7276 69.4787 24.4918 69.3551 24.2276 69.2699C23.9634 69.1847 23.6737 69.142 23.3583 69.142C22.8413 69.142 22.3711 69.2756 21.9478 69.5426C21.5245 69.8097 21.1879 70.2031 20.9379 70.723C20.6879 71.2429 20.5629 71.8807 20.5629 72.6364C20.5629 73.392 20.6893 74.0298 20.9421 74.5497C21.195 75.0696 21.5373 75.4631 21.9691 75.7301C22.4009 75.9972 22.8867 76.1307 23.4265 76.1307C23.9265 76.1307 24.3668 76.0241 24.7475 75.8111C25.131 75.5952 25.4293 75.2912 25.6424 74.8991C25.8583 74.5043 25.9663 74.0398 25.9663 73.5057L26.2901 73.5739H23.6651V72.6364H26.989V73.5739C26.989 74.2926 26.8356 74.9176 26.5288 75.4489C26.2248 75.9801 25.8043 76.392 25.2674 76.6847C24.7333 76.9744 24.1197 77.1193 23.4265 77.1193C22.6538 77.1193 21.9748 76.9375 21.3896 76.5739C20.8072 76.2102 20.3526 75.6932 20.0259 75.0227C19.7021 74.3523 19.5401 73.5568 19.5401 72.6364C19.5401 71.946 19.6325 71.3253 19.8171 70.7741C20.0046 70.2202 20.2688 69.7486 20.6097 69.3594C20.9506 68.9702 21.354 68.6719 21.82 68.4645C22.2859 68.2571 22.7987 68.1534 23.3583 68.1534C23.8185 68.1534 24.2475 68.223 24.6452 68.3622C25.0458 68.4986 25.4023 68.6932 25.7148 68.946C26.0302 69.196 26.293 69.4957 26.5032 69.8452C26.7134 70.1918 26.8583 70.5767 26.9379 71H25.8469ZM34.5263 68.2727H35.5831V74.0511C35.5831 74.6477 35.4425 75.1804 35.1612 75.6491C34.8828 76.1151 34.4893 76.483 33.9808 76.7528C33.4723 77.0199 32.8757 77.1534 32.1911 77.1534C31.5064 77.1534 30.9098 77.0199 30.4013 76.7528C29.8928 76.483 29.4979 76.1151 29.2166 75.6491C28.9382 75.1804 28.799 74.6477 28.799 74.0511V68.2727H29.8558V73.9659C29.8558 74.392 29.9496 74.7713 30.1371 75.1037C30.3246 75.4332 30.5916 75.6932 30.9382 75.8835C31.2876 76.071 31.7053 76.1648 32.1911 76.1648C32.6768 76.1648 33.0945 76.071 33.4439 75.8835C33.7933 75.6932 34.0604 75.4332 34.245 75.1037C34.4325 74.7713 34.5263 74.392 34.5263 73.9659V68.2727ZM44.614 68.2727V77H43.5913L38.8356 70.1477H38.7504V77H37.6935V68.2727H38.7163L43.489 75.142H43.5742V68.2727H44.614ZM49.4219 77H46.7287V68.2727H49.5412C50.3878 68.2727 51.1122 68.4474 51.7145 68.7969C52.3168 69.1435 52.7784 69.642 53.0994 70.2926C53.4205 70.9403 53.581 71.7159 53.581 72.6193C53.581 73.5284 53.419 74.3111 53.0952 74.9673C52.7713 75.6207 52.2997 76.1236 51.6804 76.4759C51.0611 76.8253 50.3082 77 49.4219 77ZM47.7855 76.0625H49.3537C50.0753 76.0625 50.6733 75.9233 51.1477 75.6449C51.6222 75.3665 51.9759 74.9702 52.2088 74.456C52.4418 73.9418 52.5582 73.3295 52.5582 72.6193C52.5582 71.9148 52.4432 71.3082 52.2131 70.7997C51.983 70.2884 51.6392 69.8963 51.1818 69.6236C50.7244 69.348 50.1548 69.2102 49.473 69.2102H47.7855V76.0625ZM55.3015 77H54.1935L57.3981 68.2727H58.489L61.6935 77H60.5856L57.9776 69.6534H57.9094L55.3015 77ZM55.7106 73.5909H60.1765V74.5284H55.7106V73.5909Z" fill="white"/>
<path d="M9.82955 70.4545L8.83648 70.5721L8.94098 71.4545H9.82955V70.4545ZM9.20739 69.4489L8.65873 70.2849L8.65873 70.2849L9.20739 69.4489ZM6.85511 69.2784L6.45902 68.3602L6.45572 68.3616L6.85511 69.2784ZM6.18182 69.794L5.37805 69.199L5.37308 69.2059L6.18182 69.794ZM6.10938 71.1406L5.27516 71.6921L5.28058 71.7003L5.28616 71.7084L6.10938 71.1406ZM6.54403 71.554L6.01155 72.4005L6.02147 72.4066L6.54403 71.554ZM7.09801 71.8224L6.75292 72.7611L6.76519 72.7654L7.09801 71.8224ZM7.63068 71.9886L7.89066 71.023L7.88517 71.0216L7.63068 71.9886ZM8.51705 72.2273L8.25707 73.1929L8.26315 73.1945L8.51705 72.2273ZM9.27557 72.4744L8.92235 73.41L8.92548 73.4111L9.27557 72.4744ZM10.081 72.9048L9.5014 73.7198L9.51176 73.727L10.081 72.9048ZM10.7202 73.5952L11.5792 73.0832L11.5792 73.0832L10.7202 73.5952ZM10.6009 75.9091L9.76211 75.3645L9.75927 75.369L10.6009 75.9091ZM9.52699 76.8168L9.09727 75.9138L9.09515 75.9148L9.52699 76.8168ZM6.1946 76.8509L5.78899 77.7649L5.7911 77.7658L6.1946 76.8509ZM5.12074 76.0071L4.30786 76.5896L4.3109 76.5938L5.12074 76.0071ZM4.68182 74.75V73.75H3.60784L3.68436 74.8212L4.68182 74.75ZM5.77273 74.75L6.76903 74.6641L6.69023 73.75H5.77273V74.75ZM6.10511 75.5682L5.3598 76.235L5.36918 76.2452L6.10511 75.5682ZM6.84659 76.0455L6.51422 76.9887L6.52501 76.9923L6.84659 76.0455ZM8.90483 76.0028L9.28188 76.9291L9.28886 76.9262L8.90483 76.0028ZM9.66761 75.4489L10.4503 76.0713L10.4539 76.0667L9.66761 75.4489ZM9.70597 73.9062L10.4527 73.2412L10.4527 73.2412L9.70597 73.9062ZM9.06676 73.4631L8.67165 74.3817L8.67165 74.3817L9.06676 73.4631ZM8.21023 73.1648L7.9355 74.1263L7.94258 74.1283L8.21023 73.1648ZM7.13636 72.858L6.86006 73.819L6.86164 73.8195L7.13636 72.858ZM5.51705 72.0185L4.84228 72.7565L4.84228 72.7565L5.51705 72.0185ZM5.31676 69.3125L4.50857 68.7236L4.50775 68.7247L5.31676 69.3125ZM6.39062 68.4602L6.80051 69.3724L6.80313 69.3712L6.39062 68.4602ZM9.40341 68.456L8.98472 69.3641L8.98961 69.3663L9.40341 68.456ZM10.4432 69.2741L9.63845 69.8678L9.64161 69.872L10.4432 69.2741ZM10.8523 70.4545V71.4545H11.8851L11.8518 70.4223L10.8523 70.4545ZM10.8226 70.3369C10.7367 69.6117 10.3666 69.0135 9.75604 68.6128L8.65873 70.2849C8.77546 70.3615 8.8201 70.4338 8.83648 70.5721L10.8226 70.3369ZM9.75604 68.6128C9.19733 68.2462 8.5504 68.0909 7.86932 68.0909V70.0909C8.24505 70.0909 8.49017 70.1743 8.65873 70.2849L9.75604 68.6128ZM7.86932 68.0909C7.3765 68.0909 6.89859 68.1706 6.45902 68.3602L7.2512 70.1966C7.39119 70.1362 7.58941 70.0909 7.86932 70.0909V68.0909ZM6.45572 68.3616C6.03257 68.546 5.65905 68.8195 5.37808 69.1991L6.98556 70.389C7.02845 70.3311 7.1038 70.2608 7.2545 70.1952L6.45572 68.3616ZM5.37308 69.2059C5.08584 69.6008 4.94318 70.0567 4.94318 70.5398H6.94318C6.94318 70.4661 6.95961 70.4247 6.99055 70.3822L5.37308 69.2059ZM4.94318 70.5398C4.94318 70.9368 5.03982 71.336 5.27516 71.6921L6.94359 70.5892C6.94804 70.5959 6.94923 70.6006 6.94854 70.5981C6.94756 70.5946 6.94318 70.5769 6.94318 70.5398H4.94318ZM5.28616 71.7084C5.47987 71.9892 5.72527 72.2203 6.01158 72.4004L7.07649 70.7075C7.01053 70.666 6.96616 70.6216 6.93259 70.5729L5.28616 71.7084ZM6.02147 72.4066C6.25359 72.5488 6.49768 72.6672 6.75295 72.761L7.44308 70.8839C7.31198 70.8357 7.18675 70.775 7.0666 70.7014L6.02147 72.4066ZM6.76519 72.7654C6.9787 72.8408 7.18278 72.9048 7.37619 72.9557L7.88517 71.0216C7.75472 70.9872 7.60369 70.9405 7.43083 70.8795L6.76519 72.7654ZM7.37071 72.9543L8.25707 73.1929L8.77702 71.2617L7.89066 71.023L7.37071 72.9543ZM8.26315 73.1945C8.44933 73.2434 8.66836 73.3141 8.92235 73.41L9.62878 71.5389C9.32596 71.4246 9.03931 71.3305 8.77094 71.26L8.26315 73.1945ZM8.92548 73.4111C9.1217 73.4845 9.31343 73.5861 9.50144 73.7198L10.6605 72.0899C10.3371 71.8599 9.99194 71.6746 9.62565 71.5377L8.92548 73.4111ZM9.51176 73.727C9.64771 73.8211 9.76372 73.9436 9.86115 74.1071L11.5792 73.0832C11.3414 72.6842 11.0313 72.3465 10.6502 72.0826L9.51176 73.727ZM9.86115 74.1071C9.91608 74.1993 9.97159 74.3573 9.97159 74.6307H11.9716C11.9716 74.0859 11.8595 73.5536 11.5792 73.0832L9.86115 74.1071ZM9.97159 74.6307C9.97159 74.9169 9.89978 75.1525 9.76212 75.3645L11.4396 76.4536C11.7962 75.9043 11.9716 75.2876 11.9716 74.6307H9.97159ZM9.75927 75.369C9.63049 75.5696 9.42697 75.7569 9.09727 75.9138L9.95671 77.7197C10.5702 77.4278 11.0826 77.0099 11.4424 76.4492L9.75927 75.369ZM9.09515 75.9148C8.79441 76.0588 8.38096 76.1534 7.81818 76.1534V78.1534C8.59631 78.1534 9.32206 78.0236 9.95883 77.7187L9.09515 75.9148ZM7.81818 76.1534C7.29843 76.1534 6.90077 76.0693 6.5981 75.9359L5.7911 77.7658C6.40321 78.0358 7.08794 78.1534 7.81818 78.1534V76.1534ZM6.60021 75.9368C6.28775 75.7982 6.07678 75.6223 5.93058 75.4204L4.3109 76.5938C4.68742 77.1135 5.19236 77.5001 5.78899 77.7649L6.60021 75.9368ZM5.93361 75.4247C5.79102 75.2257 5.70128 74.9868 5.67928 74.6788L3.68436 74.8212C3.73054 75.4678 3.93341 76.0669 4.30787 76.5896L5.93361 75.4247ZM4.68182 75.75H5.77273V73.75H4.68182V75.75ZM4.77642 74.8359C4.82068 75.3492 5.00233 75.8354 5.35987 76.235L6.85035 74.9014C6.82153 74.8692 6.7816 74.8099 6.76903 74.6641L4.77642 74.8359ZM5.36918 76.2452C5.68595 76.5896 6.07625 76.8343 6.51424 76.9886L7.17894 75.1023C7.02034 75.0464 6.91632 74.9729 6.84104 74.8911L5.36918 76.2452ZM6.52501 76.9923C6.9386 77.1328 7.37201 77.1989 7.81818 77.1989V75.1989C7.57117 75.1989 7.35685 75.1627 7.16817 75.0986L6.52501 76.9923ZM7.81818 77.1989C8.32996 77.1989 8.82317 77.1158 9.28187 76.929L8.52779 75.0766C8.34445 75.1513 8.11323 75.1989 7.81818 75.1989V77.1989ZM9.28886 76.9262C9.7418 76.7378 10.1423 76.4586 10.4503 76.0713L8.88491 74.8265C8.81795 74.9107 8.70991 75.0009 8.52079 75.0795L9.28886 76.9262ZM10.4539 76.0667C10.7869 75.6429 10.9489 75.1442 10.9489 74.6136H8.94886C8.94886 74.7194 8.92332 74.7776 8.8813 74.831L10.4539 76.0667ZM10.9489 74.6136C10.9489 74.1278 10.8078 73.6398 10.4527 73.2412L8.9592 74.5713C8.95548 74.5672 8.9514 74.5617 8.94782 74.5555C8.94426 74.5494 8.94266 74.5451 8.94234 74.5442C8.94165 74.5422 8.94886 74.5617 8.94886 74.6136H10.9489ZM10.4527 73.2412C10.1775 72.9321 9.83632 72.7055 9.46187 72.5444L8.67165 74.3817C8.82562 74.4479 8.9106 74.5168 8.9592 74.5713L10.4527 73.2412ZM9.46187 72.5444C9.15212 72.4112 8.82359 72.2973 8.47787 72.2013L7.94258 74.1283C8.2105 74.2027 8.453 74.2877 8.67165 74.3817L9.46187 72.5444ZM8.48495 72.2032L7.41109 71.8964L6.86164 73.8195L7.93551 74.1263L8.48495 72.2032ZM7.41267 71.8969C6.83408 71.7305 6.44555 71.5124 6.19181 71.2804L4.84228 72.7565C5.384 73.2518 6.07502 73.5933 6.86006 73.819L7.41267 71.8969ZM6.19181 71.2804C6.02151 71.1247 5.92045 70.9268 5.92045 70.5909H3.92045C3.92045 71.4311 4.21712 72.1849 4.84228 72.7565L6.19181 71.2804ZM5.92045 70.5909C5.92045 70.294 5.99664 70.078 6.12577 69.9003L4.50775 68.7247C4.10847 69.2742 3.92045 69.9105 3.92045 70.5909H5.92045ZM6.12496 69.9014C6.28096 69.6873 6.49634 69.5091 6.80051 69.3724L5.98074 67.5481C5.38719 67.8148 4.88665 68.2047 4.50857 68.7236L6.12496 69.9014ZM6.80313 69.3712C7.11015 69.2322 7.47132 69.1534 7.90341 69.1534V67.1534C7.22186 67.1534 6.57451 67.2792 5.97812 67.5493L6.80313 69.3712ZM7.90341 69.1534C8.3454 69.1534 8.69872 69.2322 8.98473 69.3641L9.82209 67.5478C9.2331 67.2763 8.58642 67.1534 7.90341 67.1534V69.1534ZM8.98961 69.3663C9.29027 69.503 9.49528 69.6737 9.63846 69.8678L11.2479 68.6805C10.8797 68.1814 10.3916 67.8067 9.81721 67.5456L8.98961 69.3663ZM9.64161 69.872C9.77544 70.0515 9.84505 70.2467 9.85279 70.4868L11.8518 70.4223C11.8311 69.7817 11.628 69.19 11.2448 68.6763L9.64161 69.872ZM10.8523 69.4545H9.82955V71.4545H10.8523V69.4545ZM12.7092 77H11.7092V78H12.7092V77ZM12.7092 68.2727V67.2727H11.7092V68.2727H12.7092ZM17.9762 68.2727H18.9762V67.2727H17.9762V68.2727ZM17.9762 69.2102V70.2102H18.9762V69.2102H17.9762ZM13.766 69.2102V68.2102H12.766V69.2102H13.766ZM13.766 72.1591H12.766V73.1591H13.766V72.1591ZM17.7035 72.1591H18.7035V71.1591H17.7035V72.1591ZM17.7035 73.0966V74.0966H18.7035V73.0966H17.7035ZM13.766 73.0966V72.0966H12.766V73.0966H13.766ZM13.766 76.0625H12.766V77.0625H13.766V76.0625ZM18.0444 76.0625H19.0444V75.0625H18.0444V76.0625ZM18.0444 77V78H19.0444V77H18.0444ZM13.7092 77V68.2727H11.7092V77H13.7092ZM12.7092 69.2727H17.9762V67.2727H12.7092V69.2727ZM16.9762 68.2727V69.2102H18.9762V68.2727H16.9762ZM17.9762 68.2102H13.766V70.2102H17.9762V68.2102ZM12.766 69.2102V72.1591H14.766V69.2102H12.766ZM13.766 73.1591H17.7035V71.1591H13.766V73.1591ZM16.7035 72.1591V73.0966H18.7035V72.1591H16.7035ZM17.7035 72.0966H13.766V74.0966H17.7035V72.0966ZM12.766 73.0966V76.0625H14.766V73.0966H12.766ZM13.766 77.0625H18.0444V75.0625H13.766V77.0625ZM17.0444 76.0625V77H19.0444V76.0625H17.0444ZM18.0444 76H12.7092V78H18.0444V76ZM25.8469 71L24.8964 71.3106L25.1217 72H25.8469V71ZM25.4762 70.2287L24.6394 70.7762L24.6433 70.7822L24.6474 70.7882L25.4762 70.2287ZM24.935 69.6406L24.3196 70.4288L24.3248 70.4329L24.935 69.6406ZM24.2276 69.2699L24.5346 68.3182L24.5346 68.3182L24.2276 69.2699ZM20.9379 70.723L21.8391 71.1564L21.8391 71.1564L20.9379 70.723ZM20.9421 74.5497L20.0428 74.9871L20.0428 74.9871L20.9421 74.5497ZM24.7475 75.8111L25.2359 76.6837L25.2381 76.6825L24.7475 75.8111ZM25.6424 74.8991L24.765 74.4194L24.7638 74.4216L25.6424 74.8991ZM25.9663 73.5057L26.1723 72.5271L24.9663 72.2732V73.5057H25.9663ZM26.2901 73.5739V74.5739L26.4961 72.5953L26.2901 73.5739ZM23.6651 73.5739H22.6651V74.5739H23.6651V73.5739ZM23.6651 72.6364V71.6364H22.6651V72.6364H23.6651ZM26.989 72.6364H27.989V71.6364H26.989V72.6364ZM26.5288 75.4489L25.6628 74.9487L25.6608 74.9522L26.5288 75.4489ZM25.2674 76.6847L25.7443 77.5636L25.7459 77.5627L25.2674 76.6847ZM21.3896 76.5739L20.8599 77.4221L20.8618 77.4232L21.3896 76.5739ZM20.0259 75.0227L19.1255 75.4577L19.127 75.4608L20.0259 75.0227ZM19.8171 70.7741L18.8699 70.4535L18.8689 70.4565L19.8171 70.7741ZM20.6097 69.3594L21.362 70.0183L21.362 70.0183L20.6097 69.3594ZM24.6452 68.3622L24.3149 69.3061L24.323 69.3089L24.6452 68.3622ZM25.7148 68.946L25.0858 69.7235L25.0936 69.7296L25.7148 68.946ZM26.5032 69.8452L25.6463 70.3607L25.6482 70.3638L26.5032 69.8452ZM26.9379 71V72H28.1433L27.9207 70.8153L26.9379 71ZM26.7975 70.6894C26.6778 70.3231 26.5153 69.9807 26.3051 69.6692L24.6474 70.7882C24.7439 70.9312 24.8286 71.1031 24.8964 71.3106L26.7975 70.6894ZM26.313 69.6812C26.1034 69.3608 25.8474 69.0811 25.5452 68.8484L24.3248 70.4329C24.4431 70.524 24.5479 70.6363 24.6394 70.7762L26.313 69.6812ZM25.5504 68.8524C25.2456 68.6144 24.9042 68.4374 24.5346 68.3182L23.9206 70.2216C24.0794 70.2728 24.2096 70.343 24.3196 70.4288L25.5504 68.8524ZM24.5346 68.3182C24.1588 68.1969 23.7639 68.142 23.3583 68.142V70.142C23.5834 70.142 23.7681 70.1724 23.9206 70.2216L24.5346 68.3182ZM23.3583 68.142C22.659 68.142 22.0027 68.3256 21.4142 68.6969L22.4814 70.3884C22.7395 70.2255 23.0235 70.142 23.3583 70.142V68.142ZM21.4142 68.6969C20.809 69.0787 20.3553 69.6269 20.0366 70.2896L21.8391 71.1564C22.0204 70.7794 22.24 70.5407 22.4814 70.3884L21.4142 68.6969ZM20.0366 70.2896C19.7047 70.9799 19.5629 71.7753 19.5629 72.6364H21.5629C21.5629 71.9861 21.671 71.5059 21.8391 71.1564L20.0366 70.2896ZM19.5629 72.6364C19.5629 73.4989 19.7066 74.2957 20.0428 74.9871L21.8414 74.1124C21.672 73.7639 21.5629 73.2852 21.5629 72.6364H19.5629ZM20.0428 74.9871C20.3667 75.653 20.8288 76.2007 21.4431 76.5806L22.4951 74.8796C22.2458 74.7254 22.0232 74.4862 21.8414 74.1124L20.0428 74.9871ZM21.4431 76.5806C22.0431 76.9516 22.7132 77.1307 23.4265 77.1307V75.1307C23.0603 75.1307 22.7588 75.0427 22.4951 74.8796L21.4431 76.5806ZM23.4265 77.1307C24.0722 77.1307 24.6854 76.9918 25.2359 76.6837L24.2591 74.9385C24.0483 75.0565 23.7808 75.1307 23.4265 75.1307V77.1307ZM25.2381 76.6825C25.7878 76.373 26.2195 75.9315 26.521 75.3767L24.7638 74.4216C24.6392 74.6509 24.4743 74.8173 24.2569 74.9397L25.2381 76.6825ZM26.5198 75.3789C26.8299 74.8117 26.9663 74.1761 26.9663 73.5057H24.9663C24.9663 73.9034 24.8867 74.1968 24.765 74.4194L26.5198 75.3789ZM25.7603 74.4842L26.0841 74.5524L26.4961 72.5953L26.1723 72.5271L25.7603 74.4842ZM26.2901 72.5739H23.6651V74.5739H26.2901V72.5739ZM24.6651 73.5739V72.6364H22.6651V73.5739H24.6651ZM23.6651 73.6364H26.989V71.6364H23.6651V73.6364ZM25.989 72.6364V73.5739H27.989V72.6364H25.989ZM25.989 73.5739C25.989 74.1474 25.8678 74.5938 25.6628 74.9487L27.3947 75.949C27.8034 75.2414 27.989 74.4378 27.989 73.5739H25.989ZM25.6608 74.9522C25.4487 75.3229 25.163 75.6027 24.7889 75.8066L25.7459 77.5627C26.4457 77.1814 27.0009 76.6373 27.3967 75.9455L25.6608 74.9522ZM24.7905 75.8057C24.4223 76.0054 23.9768 76.1193 23.4265 76.1193V78.1193C24.2625 78.1193 25.0443 77.9434 25.7443 77.5636L24.7905 75.8057ZM23.4265 76.1193C22.817 76.1193 22.3254 75.9781 21.9173 75.7245L20.8618 77.4232C21.6241 77.8969 22.4905 78.1193 23.4265 78.1193V76.1193ZM21.9192 75.7256C21.5096 75.4699 21.1768 75.1016 20.9249 74.5847L19.127 75.4608C19.5285 76.2848 20.1047 76.9505 20.8599 77.4221L21.9192 75.7256ZM20.9264 74.5878C20.6816 74.0811 20.5401 73.441 20.5401 72.6364H18.5401C18.5401 73.6726 18.7225 74.6234 19.1255 75.4577L20.9264 74.5878ZM20.5401 72.6364C20.5401 72.0343 20.6207 71.5234 20.7653 71.0918L18.8689 70.4565C18.6442 71.1271 18.5401 71.8577 18.5401 72.6364H20.5401ZM20.7643 71.0947C20.9152 70.6491 21.1182 70.2965 21.362 70.0183L19.8575 68.7005C19.4194 69.2006 19.0941 69.7913 18.8699 70.4536L20.7643 71.0947ZM21.362 70.0183C21.6089 69.7363 21.8949 69.5257 22.2266 69.3781L21.4133 67.5509C20.8131 67.818 20.2924 68.204 19.8575 68.7005L21.362 70.0183ZM22.2266 69.3781C22.5525 69.233 22.925 69.1534 23.3583 69.1534V67.1534C22.6723 67.1534 22.0192 67.2812 21.4133 67.5509L22.2266 69.3781ZM23.3583 69.1534C23.7164 69.1534 24.0327 69.2073 24.3149 69.3061L24.9756 67.4184C24.4623 67.2387 23.9207 67.1534 23.3583 67.1534V69.1534ZM24.323 69.3089C24.6181 69.4093 24.8696 69.5485 25.0858 69.7234L26.3438 68.1686C25.9351 67.8379 25.4736 67.5878 24.9675 67.4156L24.323 69.3089ZM25.0936 69.7296C25.3137 69.9041 25.4971 70.1126 25.6463 70.3607L27.3601 69.3297C27.0889 68.8788 26.7467 68.4879 26.3361 68.1624L25.0936 69.7296ZM25.6482 70.3638C25.7923 70.6014 25.8963 70.872 25.9551 71.1847L27.9207 70.8153C27.8203 70.2814 27.6346 69.7822 27.3582 69.3266L25.6482 70.3638ZM26.9379 70H25.8469V72H26.9379V70ZM34.5263 68.2727V67.2727H33.5263V68.2727H34.5263ZM35.5831 68.2727H36.5831V67.2727H35.5831V68.2727ZM35.1612 75.6491L34.3037 75.1347L34.3028 75.1362L35.1612 75.6491ZM33.9808 76.7528L34.4458 77.6382L34.4496 77.6361L33.9808 76.7528ZM30.4013 76.7528L29.9325 77.6362L29.9363 77.6382L30.4013 76.7528ZM29.2166 75.6491L28.3568 76.1598L28.3605 76.1659L29.2166 75.6491ZM28.799 68.2727V67.2727H27.799V68.2727H28.799ZM29.8558 68.2727H30.8558V67.2727H29.8558V68.2727ZM30.1371 75.1037L29.2661 75.595L29.2679 75.5982L30.1371 75.1037ZM30.9382 75.8835L30.4568 76.7601L30.4654 76.7647L30.9382 75.8835ZM33.4439 75.8835L33.9167 76.7647L33.9222 76.7617L33.4439 75.8835ZM34.245 75.1037L33.374 74.6124L33.3727 74.6149L34.245 75.1037ZM34.5263 69.2727H35.5831V67.2727H34.5263V69.2727ZM34.5831 68.2727V74.0511H36.5831V68.2727H34.5831ZM34.5831 74.0511C34.5831 74.4836 34.4833 74.8354 34.3037 75.1347L36.0187 76.1636C36.4016 75.5254 36.5831 74.8119 36.5831 74.0511H34.5831ZM34.3028 75.1362C34.1238 75.4358 33.8695 75.6798 33.512 75.8695L34.4496 77.6361C35.1092 77.2861 35.6418 76.7943 36.0196 76.1621L34.3028 75.1362ZM33.5159 75.8675C33.1759 76.046 32.7447 76.1534 32.1911 76.1534V78.1534C33.0067 78.1534 33.7687 77.9937 34.4458 77.6382L33.5159 75.8675ZM32.1911 76.1534C31.6374 76.1534 31.2062 76.046 30.8662 75.8675L29.9363 77.6382C30.6134 77.9937 31.3754 78.1534 32.1911 78.1534V76.1534ZM30.8701 75.8695C30.5118 75.6794 30.2549 75.4342 30.0727 75.1324L28.3605 76.1659C28.7408 76.7959 29.2737 77.2865 29.9325 77.6361L30.8701 75.8695ZM30.0764 75.1385C29.8983 74.8386 29.799 74.4855 29.799 74.0511H27.799C27.799 74.81 27.9781 75.5222 28.3568 76.1598L30.0764 75.1385ZM29.799 74.0511V68.2727H27.799V74.0511H29.799ZM28.799 69.2727H29.8558V67.2727H28.799V69.2727ZM28.8558 68.2727V73.9659H30.8558V68.2727H28.8558ZM28.8558 73.9659C28.8558 74.5437 28.9845 75.0958 29.2661 75.595L31.0081 74.6124C30.9147 74.4468 30.8558 74.2404 30.8558 73.9659H28.8558ZM29.2679 75.5982C29.5509 76.0956 29.9554 76.4847 30.4568 76.76L31.4196 75.007C31.2278 74.9017 31.0983 74.7709 31.0062 74.6092L29.2679 75.5982ZM30.4654 76.7647C30.9894 77.0459 31.577 77.1648 32.1911 77.1648V75.1648C31.8336 75.1648 31.5858 75.0962 31.411 75.0024L30.4654 76.7647ZM32.1911 77.1648C32.8051 77.1648 33.3927 77.0459 33.9167 76.7647L32.9711 75.0024C32.7963 75.0962 32.5486 75.1648 32.1911 75.1648V77.1648ZM33.9222 76.7617C34.4278 76.4863 34.8357 76.0953 35.1174 75.5925L33.3727 74.6149C33.2851 74.7712 33.1588 74.9001 32.9655 75.0054L33.9222 76.7617ZM35.116 75.595C35.3976 75.0958 35.5263 74.5437 35.5263 73.9659H33.5263C33.5263 74.2404 33.4674 74.4468 33.3741 74.6124L35.116 75.595ZM35.5263 73.9659V68.2727H33.5263V73.9659H35.5263ZM44.614 68.2727H45.614V67.2727H44.614V68.2727ZM44.614 77V78H45.614V77H44.614ZM43.5913 77L42.7697 77.5702L43.0681 78H43.5913V77ZM38.8356 70.1477L39.6571 69.5776L39.3588 69.1477H38.8356V70.1477ZM38.7504 70.1477V69.1477H37.7504V70.1477H38.7504ZM38.7504 77V78H39.7504V77H38.7504ZM37.6935 77H36.6935V78H37.6935V77ZM37.6935 68.2727V67.2727H36.6935V68.2727H37.6935ZM38.7163 68.2727L39.5375 67.7021L39.2391 67.2727H38.7163V68.2727ZM43.489 75.142L42.6678 75.7126L42.9661 76.142H43.489V75.142ZM43.5742 75.142V76.142H44.5742V75.142H43.5742ZM43.5742 68.2727V67.2727H42.5742V68.2727H43.5742ZM43.614 68.2727V77H45.614V68.2727H43.614ZM44.614 76H43.5913V78H44.614V76ZM44.4128 76.4298L39.6571 69.5776L38.0141 70.7179L42.7697 77.5702L44.4128 76.4298ZM38.8356 69.1477H38.7504V71.1477H38.8356V69.1477ZM37.7504 70.1477V77H39.7504V70.1477H37.7504ZM38.7504 76H37.6935V78H38.7504V76ZM38.6935 77V68.2727H36.6935V77H38.6935ZM37.6935 69.2727H38.7163V67.2727H37.6935V69.2727ZM37.895 68.8433L42.6678 75.7126L44.3102 74.5715L39.5375 67.7021L37.895 68.8433ZM43.489 76.142H43.5742V74.142H43.489V76.142ZM44.5742 75.142V68.2727H42.5742V75.142H44.5742ZM43.5742 69.2727H44.614V67.2727H43.5742V69.2727ZM46.7287 77H45.7287V78H46.7287V77ZM46.7287 68.2727V67.2727H45.7287V68.2727H46.7287ZM51.7145 68.7969L51.2126 69.6618L51.2157 69.6636L51.7145 68.7969ZM53.0994 70.2926L52.2027 70.7351L52.2034 70.7367L53.0994 70.2926ZM53.0952 74.9673L53.9912 75.4114L53.9919 75.4099L53.0952 74.9673ZM51.6804 76.4759L52.1718 77.3468L52.1748 77.3451L51.6804 76.4759ZM47.7855 76.0625H46.7855V77.0625H47.7855V76.0625ZM52.2131 70.7997L51.3011 71.2101L51.302 71.212L52.2131 70.7997ZM51.1818 69.6236L50.6658 70.4801L50.6697 70.4825L51.1818 69.6236ZM47.7855 69.2102V68.2102H46.7855V69.2102H47.7855ZM49.4219 76H46.7287V78H49.4219V76ZM47.7287 77V68.2727H45.7287V77H47.7287ZM46.7287 69.2727H49.5412V67.2727H46.7287V69.2727ZM49.5412 69.2727C50.2495 69.2727 50.7926 69.4181 51.2126 69.6618L52.2163 67.9319C51.4318 67.4768 50.5261 67.2727 49.5412 67.2727V69.2727ZM51.2157 69.6636C51.6384 69.9068 51.9653 70.254 52.2027 70.7351L53.9962 69.8501C53.5916 69.0301 52.9951 68.3801 52.2133 67.9301L51.2157 69.6636ZM52.2034 70.7367C52.4411 71.2163 52.581 71.8324 52.581 72.6193H54.581C54.581 71.5994 54.3998 70.6644 53.9954 69.8485L52.2034 70.7367ZM52.581 72.6193C52.581 73.4113 52.4399 74.0354 52.1984 74.5248L53.9919 75.4099C54.3981 74.5867 54.581 73.6455 54.581 72.6193H52.581ZM52.1992 74.5232C51.9616 75.0026 51.6278 75.3553 51.186 75.6066L52.1748 77.3451C52.9716 76.8918 53.581 76.2389 53.9912 75.4114L52.1992 74.5232ZM51.189 75.6049C50.7523 75.8513 50.1779 76 49.4219 76V78C50.4385 78 51.3698 77.7993 52.1718 77.3468L51.189 75.6049ZM47.7855 77.0625H49.3537V75.0625H47.7855V77.0625ZM49.3537 77.0625C50.1992 77.0625 50.9852 76.8997 51.6538 76.5074L50.6416 74.7824C50.3613 74.9469 49.9514 75.0625 49.3537 75.0625V77.0625ZM51.6538 76.5074C52.3113 76.1215 52.8039 75.5657 53.1197 74.8686L51.2979 74.0433C51.1478 74.3746 50.933 74.6114 50.6416 74.7824L51.6538 76.5074ZM53.1197 74.8686C53.4245 74.1959 53.5582 73.4363 53.5582 72.6193H51.5582C51.5582 73.2228 51.459 73.6877 51.2979 74.0433L53.1197 74.8686ZM53.5582 72.6193C53.5582 71.8087 53.4261 71.0548 53.1241 70.3874L51.302 71.212C51.4603 71.5617 51.5582 72.0209 51.5582 72.6193H53.5582ZM53.125 70.3894C52.8155 69.7015 52.3371 69.1481 51.694 68.7647L50.6697 70.4825C50.9413 70.6445 51.1504 70.8752 51.3011 71.2101L53.125 70.3894ZM51.6979 68.767C51.0471 68.3749 50.2871 68.2102 49.473 68.2102V70.2102C50.0226 70.2102 50.4018 70.3211 50.6658 70.4801L51.6979 68.767ZM49.473 68.2102H47.7855V70.2102H49.473V68.2102ZM46.7855 69.2102V76.0625H48.7855V69.2102H46.7855ZM55.3015 77V78H56.0076L56.2439 77.3345L55.3015 77ZM54.1935 77L53.2548 76.6553L52.7611 78H54.1935V77ZM57.3981 68.2727V67.2727H56.7L56.4594 67.928L57.3981 68.2727ZM58.489 68.2727L59.4277 67.928L59.1871 67.2727H58.489V68.2727ZM61.6935 77V78H63.126L62.6323 76.6553L61.6935 77ZM60.5856 77L59.6432 77.3345L59.8794 78H60.5856V77ZM57.9776 69.6534L58.92 69.3189L58.6838 68.6534H57.9776V69.6534ZM57.9094 69.6534V68.6534H57.2033L56.9671 69.3189L57.9094 69.6534ZM55.7106 73.5909V72.5909H54.7106V73.5909H55.7106ZM60.1765 73.5909H61.1765V72.5909H60.1765V73.5909ZM60.1765 74.5284V75.5284H61.1765V74.5284H60.1765ZM55.7106 74.5284H54.7106V75.5284H55.7106V74.5284ZM55.3015 76H54.1935V78H55.3015V76ZM55.1323 77.3447L58.3368 68.6174L56.4594 67.928L53.2548 76.6553L55.1323 77.3447ZM57.3981 69.2727H58.489V67.2727H57.3981V69.2727ZM57.5503 68.6174L60.7548 77.3447L62.6323 76.6553L59.4277 67.928L57.5503 68.6174ZM61.6935 76H60.5856V78H61.6935V76ZM61.528 76.6655L58.92 69.3189L57.0352 69.9879L59.6432 77.3345L61.528 76.6655ZM57.9776 68.6534H57.9094V70.6534H57.9776V68.6534ZM56.9671 69.3189L54.3591 76.6655L56.2439 77.3345L58.8518 69.9879L56.9671 69.3189ZM55.7106 74.5909H60.1765V72.5909H55.7106V74.5909ZM59.1765 73.5909V74.5284H61.1765V73.5909H59.1765ZM60.1765 73.5284H55.7106V75.5284H60.1765V73.5284ZM56.7106 74.5284V73.5909H54.7106V74.5284H56.7106Z" fill="black" mask="url(#path-4-outside-1_52_10)"/>
<defs>
<clipPath id="clip0_52_10">
<rect width="42.65" height="42.65" fill="white" transform="translate(23.5049 3.75262) rotate(27.2641)"/>
</clipPath>
</defs>
</svg>
