<svg width="66" height="83" viewBox="0 0 66 83" fill="none" xmlns="http://www.w3.org/2000/svg">
<rect x="0.434827" y="1.03471" width="63.9212" height="63.488" rx="21.5692" transform="rotate(-0.537736 0.434827 1.03471)" stroke="#B7CAD0" stroke-width="0.861606"/>
<g clip-path="url(#clip0_68_17)">
<path d="M41.2397 15.8909C37.9592 14.2003 34.2511 13.5205 30.5842 13.9374C26.9174 14.3542 23.4565 15.8491 20.6392 18.2329C17.8219 20.6167 15.7748 23.7824 14.7567 27.3297C13.7386 30.877 13.7952 34.6465 14.9195 38.1615C16.0437 41.6766 18.185 44.7794 21.0726 47.0775C23.9603 49.3755 27.4645 50.7657 31.1422 51.0722C34.82 51.3787 38.506 50.5878 41.7342 48.7994C44.9624 47.011 47.5878 44.3055 49.2784 41.025C51.5454 36.626 51.972 31.5067 50.4645 26.7931C48.9569 22.0795 45.6387 18.1579 41.2397 15.8909ZM26.5501 47.3048L27.1606 46.1201C27.3226 45.8058 27.353 45.4402 27.2454 45.1035C27.1377 44.7668 26.9007 44.4867 26.5865 44.3248C26.2722 44.1628 25.9066 44.1324 25.5699 44.24C25.2332 44.3477 24.9531 44.5847 24.7912 44.8989L24.1806 46.0837C20.9714 44.0705 18.581 40.9835 17.4352 37.3726C16.2893 33.7617 16.4625 29.8612 17.9237 26.366L19.0492 26.946C19.3634 27.1079 19.7291 27.1384 20.0658 27.0307C20.4025 26.923 20.6826 26.686 20.8445 26.3718C21.0065 26.0576 21.0369 25.6919 20.9292 25.3552C20.8216 25.0186 20.5845 24.7384 20.2703 24.5765L19.0856 23.966C21.0988 20.7568 24.1857 18.3664 27.7967 17.2205C31.4076 16.0747 35.3081 16.2478 38.8033 17.7091L38.2233 18.8346C38.0613 19.1488 38.0309 19.5145 38.1386 19.8512C38.2462 20.1878 38.4833 20.468 38.7975 20.6299C39.1117 20.7918 39.4774 20.8223 39.814 20.7146C40.1507 20.6069 40.4308 20.3699 40.5928 20.0557L41.2033 18.871C44.43 20.8762 46.8375 23.9645 47.9948 27.583C49.1521 31.2014 48.9836 35.1137 47.5194 38.6192L46.3347 38.0086C46.0205 37.8467 45.6548 37.8162 45.3181 37.9239C44.9814 38.0316 44.7013 38.2686 44.5394 38.5828C44.3775 38.897 44.347 39.2627 44.4547 39.5994C44.5624 39.9361 44.7994 40.2162 45.1136 40.3781L46.2983 40.9887C44.2931 44.2153 41.2047 46.6229 37.5863 47.7802C33.9679 48.9374 30.0556 48.7689 26.5501 47.3048Z" fill="#304046"/>
<path d="M43.5708 26.6133L32.7576 31.0117L27.3788 28.2398C27.0646 28.0779 26.6989 28.0474 26.3623 28.1551C26.0256 28.2628 25.7455 28.4998 25.5835 28.814C25.4216 29.1282 25.3911 29.4939 25.4988 29.8306C25.6065 30.1672 25.8435 30.4474 26.1577 30.6093L32.0814 33.662C32.2448 33.748 32.4258 33.7951 32.6103 33.7996L32.7356 33.7892C32.8761 33.7889 33.0155 33.7644 33.1478 33.7168L44.5301 29.0869C44.6922 29.0208 44.8396 28.9234 44.964 28.8002C45.0885 28.6771 45.1874 28.5307 45.2552 28.3694C45.3231 28.208 45.3585 28.0349 45.3594 27.8598C45.3603 27.6848 45.3268 27.5113 45.2606 27.3492C45.1945 27.1872 45.0971 27.0397 44.974 26.9153C44.8509 26.7909 44.7045 26.6919 44.5431 26.6241C44.3818 26.5562 44.2086 26.5208 44.0336 26.5199C43.8586 26.519 43.6851 26.5525 43.523 26.6187L43.5708 26.6133Z" fill="#304046"/>
</g>
<mask id="path-4-outside-1_68_17" maskUnits="userSpaceOnUse" x="9" y="70" width="48" height="12" fill="black">
<rect fill="white" x="9" y="70" width="48" height="12"/>
<path d="M14.2273 77.2727H15.3864L16.358 78.5511L16.6136 78.892L18.0625 80.8182H16.9034L15.9489 79.5398L15.7102 79.2159L14.2273 77.2727ZM18.4205 75.6364C18.4205 76.5568 18.2543 77.3523 17.9219 78.0227C17.5895 78.6932 17.1335 79.2102 16.554 79.5739C15.9744 79.9375 15.3125 80.1193 14.5682 80.1193C13.8239 80.1193 13.1619 79.9375 12.5824 79.5739C12.0028 79.2102 11.5469 78.6932 11.2145 78.0227C10.8821 77.3523 10.7159 76.5568 10.7159 75.6364C10.7159 74.7159 10.8821 73.9205 11.2145 73.25C11.5469 72.5795 12.0028 72.0625 12.5824 71.6989C13.1619 71.3352 13.8239 71.1534 14.5682 71.1534C15.3125 71.1534 15.9744 71.3352 16.554 71.6989C17.1335 72.0625 17.5895 72.5795 17.9219 73.25C18.2543 73.9205 18.4205 74.7159 18.4205 75.6364ZM17.3977 75.6364C17.3977 74.8807 17.2713 74.2429 17.0185 73.723C16.7685 73.2031 16.429 72.8097 16 72.5426C15.5739 72.2756 15.0966 72.142 14.5682 72.142C14.0398 72.142 13.5611 72.2756 13.1321 72.5426C12.706 72.8097 12.3665 73.2031 12.1136 73.723C11.8636 74.2429 11.7386 74.8807 11.7386 75.6364C11.7386 76.392 11.8636 77.0298 12.1136 77.5497C12.3665 78.0696 12.706 78.4631 13.1321 78.7301C13.5611 78.9972 14.0398 79.1307 14.5682 79.1307C15.0966 79.1307 15.5739 78.9972 16 78.7301C16.429 78.4631 16.7685 78.0696 17.0185 77.5497C17.2713 77.0298 17.3977 76.392 17.3977 75.6364ZM25.9247 71.2727H26.9815V77.0511C26.9815 77.6477 26.8409 78.1804 26.5597 78.6491C26.2813 79.1151 25.8878 79.483 25.3793 79.7528C24.8707 80.0199 24.2741 80.1534 23.5895 80.1534C22.9048 80.1534 22.3082 80.0199 21.7997 79.7528C21.2912 79.483 20.8963 79.1151 20.6151 78.6491C20.3366 78.1804 20.1974 77.6477 20.1974 77.0511V71.2727H21.2543V76.9659C21.2543 77.392 21.348 77.7713 21.5355 78.1037C21.723 78.4332 21.9901 78.6932 22.3366 78.8835C22.6861 79.071 23.1037 79.1648 23.5895 79.1648C24.0753 79.1648 24.4929 79.071 24.8423 78.8835C25.1918 78.6932 25.4588 78.4332 25.6435 78.1037C25.831 77.7713 25.9247 77.392 25.9247 76.9659V71.2727ZM30.1488 71.2727V80H29.092V71.2727H30.1488ZM39.1882 71.2727V80H38.1655L33.4098 73.1477H33.3246V80H32.2678V71.2727H33.2905L38.0632 78.142H38.1484V71.2727H39.1882ZM40.8256 72.2102V71.2727H47.3711V72.2102H44.6268V80H43.57V72.2102H40.8256ZM48.3406 80H47.2326L50.4371 71.2727H51.5281L54.7326 80H53.6246L51.0167 72.6534H50.9485L48.3406 80ZM48.7496 76.5909H53.2156V77.5284H48.7496V76.5909Z"/>
</mask>
<path d="M14.2273 77.2727H15.3864L16.358 78.5511L16.6136 78.892L18.0625 80.8182H16.9034L15.9489 79.5398L15.7102 79.2159L14.2273 77.2727ZM18.4205 75.6364C18.4205 76.5568 18.2543 77.3523 17.9219 78.0227C17.5895 78.6932 17.1335 79.2102 16.554 79.5739C15.9744 79.9375 15.3125 80.1193 14.5682 80.1193C13.8239 80.1193 13.1619 79.9375 12.5824 79.5739C12.0028 79.2102 11.5469 78.6932 11.2145 78.0227C10.8821 77.3523 10.7159 76.5568 10.7159 75.6364C10.7159 74.7159 10.8821 73.9205 11.2145 73.25C11.5469 72.5795 12.0028 72.0625 12.5824 71.6989C13.1619 71.3352 13.8239 71.1534 14.5682 71.1534C15.3125 71.1534 15.9744 71.3352 16.554 71.6989C17.1335 72.0625 17.5895 72.5795 17.9219 73.25C18.2543 73.9205 18.4205 74.7159 18.4205 75.6364ZM17.3977 75.6364C17.3977 74.8807 17.2713 74.2429 17.0185 73.723C16.7685 73.2031 16.429 72.8097 16 72.5426C15.5739 72.2756 15.0966 72.142 14.5682 72.142C14.0398 72.142 13.5611 72.2756 13.1321 72.5426C12.706 72.8097 12.3665 73.2031 12.1136 73.723C11.8636 74.2429 11.7386 74.8807 11.7386 75.6364C11.7386 76.392 11.8636 77.0298 12.1136 77.5497C12.3665 78.0696 12.706 78.4631 13.1321 78.7301C13.5611 78.9972 14.0398 79.1307 14.5682 79.1307C15.0966 79.1307 15.5739 78.9972 16 78.7301C16.429 78.4631 16.7685 78.0696 17.0185 77.5497C17.2713 77.0298 17.3977 76.392 17.3977 75.6364ZM25.9247 71.2727H26.9815V77.0511C26.9815 77.6477 26.8409 78.1804 26.5597 78.6491C26.2813 79.1151 25.8878 79.483 25.3793 79.7528C24.8707 80.0199 24.2741 80.1534 23.5895 80.1534C22.9048 80.1534 22.3082 80.0199 21.7997 79.7528C21.2912 79.483 20.8963 79.1151 20.6151 78.6491C20.3366 78.1804 20.1974 77.6477 20.1974 77.0511V71.2727H21.2543V76.9659C21.2543 77.392 21.348 77.7713 21.5355 78.1037C21.723 78.4332 21.9901 78.6932 22.3366 78.8835C22.6861 79.071 23.1037 79.1648 23.5895 79.1648C24.0753 79.1648 24.4929 79.071 24.8423 78.8835C25.1918 78.6932 25.4588 78.4332 25.6435 78.1037C25.831 77.7713 25.9247 77.392 25.9247 76.9659V71.2727ZM30.1488 71.2727V80H29.092V71.2727H30.1488ZM39.1882 71.2727V80H38.1655L33.4098 73.1477H33.3246V80H32.2678V71.2727H33.2905L38.0632 78.142H38.1484V71.2727H39.1882ZM40.8256 72.2102V71.2727H47.3711V72.2102H44.6268V80H43.57V72.2102H40.8256ZM48.3406 80H47.2326L50.4371 71.2727H51.5281L54.7326 80H53.6246L51.0167 72.6534H50.9485L48.3406 80ZM48.7496 76.5909H53.2156V77.5284H48.7496V76.5909Z" fill="white"/>
<path d="M14.2273 77.2727V76.2727H12.2062L13.4323 77.8794L14.2273 77.2727ZM15.3864 77.2727L16.1825 76.6676L15.8824 76.2727H15.3864V77.2727ZM16.358 78.5511L17.158 77.9511L17.1541 77.9461L16.358 78.5511ZM16.6136 78.892L15.8136 79.492L15.8145 79.4932L16.6136 78.892ZM18.0625 80.8182V81.8182H20.066L18.8617 80.2171L18.0625 80.8182ZM16.9034 80.8182L16.1021 81.4165L16.4021 81.8182H16.9034V80.8182ZM15.9489 79.5398L15.1438 80.133L15.1476 80.1381L15.9489 79.5398ZM15.7102 79.2159L16.5153 78.6227L16.5103 78.6159L16.5052 78.6092L15.7102 79.2159ZM17.9219 78.0227L17.0259 77.5786L17.0259 77.5786L17.9219 78.0227ZM16.554 79.5739L17.0855 80.4209L17.0855 80.4209L16.554 79.5739ZM12.5824 79.5739L12.0509 80.4209L12.0509 80.4209L12.5824 79.5739ZM11.2145 78.0227L12.1104 77.5786L12.1104 77.5786L11.2145 78.0227ZM16.554 71.6989L17.0855 70.8518L17.0855 70.8518L16.554 71.6989ZM17.9219 73.25L17.0259 73.6942L17.0259 73.6942L17.9219 73.25ZM17.0185 73.723L16.1172 74.1564L16.1192 74.1604L17.0185 73.723ZM16 72.5426L15.469 73.39L15.4715 73.3916L16 72.5426ZM13.1321 72.5426L12.6036 71.6937L12.6011 71.6953L13.1321 72.5426ZM12.1136 73.723L11.2143 73.2856L11.2124 73.2896L12.1136 73.723ZM12.1136 77.5497L11.2124 77.9831L11.2143 77.9871L12.1136 77.5497ZM13.1321 78.7301L12.6011 79.5775L12.6036 79.5791L13.1321 78.7301ZM16 78.7301L15.4715 77.8812L15.469 77.8828L16 78.7301ZM17.0185 77.5497L16.1192 77.1124L16.1173 77.1163L17.0185 77.5497ZM14.2273 78.2727H15.3864V76.2727H14.2273V78.2727ZM14.5902 77.8778L15.5618 79.1562L17.1541 77.9461L16.1825 76.6676L14.5902 77.8778ZM15.558 79.1511L15.8136 79.492L17.4136 78.292L17.158 77.9511L15.558 79.1511ZM15.8145 79.4932L17.2633 81.4193L18.8617 80.2171L17.4128 78.2909L15.8145 79.4932ZM18.0625 79.8182H16.9034V81.8182H18.0625V79.8182ZM17.7047 80.2199L16.7501 78.9415L15.1476 80.1381L16.1021 81.4165L17.7047 80.2199ZM16.7539 78.9466L16.5153 78.6227L14.9052 79.8091L15.1438 80.133L16.7539 78.9466ZM16.5052 78.6092L15.0222 76.6661L13.4323 77.8794L14.9153 79.8226L16.5052 78.6092ZM17.4205 75.6364C17.4205 76.4375 17.2759 77.0743 17.0259 77.5786L18.8178 78.4669C19.2326 77.6303 19.4205 76.6761 19.4205 75.6364H17.4205ZM17.0259 77.5786C16.7676 78.0997 16.4312 78.4704 16.0225 78.7268L17.0855 80.4209C17.8358 79.9501 18.4114 79.2867 18.8178 78.4669L17.0259 77.5786ZM16.0225 78.7268C15.6161 78.9818 15.1416 79.1193 14.5682 79.1193V81.1193C15.4834 81.1193 16.3327 80.8932 17.0855 80.4209L16.0225 78.7268ZM14.5682 79.1193C13.9947 79.1193 13.5202 78.9818 13.1139 78.7268L12.0509 80.4209C12.8036 80.8932 13.653 81.1193 14.5682 81.1193V79.1193ZM13.1139 78.7268C12.7052 78.4704 12.3688 78.0997 12.1104 77.5786L10.3185 78.4669C10.725 79.2867 11.3005 79.9501 12.0509 80.4209L13.1139 78.7268ZM12.1104 77.5786C11.8604 77.0743 11.7159 76.4375 11.7159 75.6364H9.71591C9.71591 76.6761 9.90378 77.6303 10.3185 78.4669L12.1104 77.5786ZM11.7159 75.6364C11.7159 74.8352 11.8604 74.1985 12.1104 73.6942L10.3185 72.8058C9.90378 73.6425 9.71591 74.5966 9.71591 75.6364H11.7159ZM12.1104 73.6942C12.3688 73.173 12.7052 72.8024 13.1139 72.5459L12.0509 70.8518C11.3005 71.3226 10.725 71.9861 10.3185 72.8058L12.1104 73.6942ZM13.1139 72.5459C13.5202 72.291 13.9947 72.1534 14.5682 72.1534V70.1534C13.653 70.1534 12.8036 70.3795 12.0509 70.8518L13.1139 72.5459ZM14.5682 72.1534C15.1416 72.1534 15.6161 72.291 16.0225 72.5459L17.0855 70.8518C16.3327 70.3795 15.4834 70.1534 14.5682 70.1534V72.1534ZM16.0225 72.5459C16.4312 72.8024 16.7676 73.173 17.0259 73.6942L18.8178 72.8058C18.4114 71.9861 17.8358 71.3226 17.0855 70.8518L16.0225 72.5459ZM17.0259 73.6942C17.2759 74.1985 17.4205 74.8352 17.4205 75.6364H19.4205C19.4205 74.5966 19.2326 73.6425 18.8178 72.8058L17.0259 73.6942ZM18.3977 75.6364C18.3977 74.7739 18.254 73.977 17.9178 73.2857L16.1192 74.1604C16.2886 74.5088 16.3977 74.9875 16.3977 75.6364H18.3977ZM17.9197 73.2896C17.5994 72.6235 17.1405 72.0747 16.5285 71.6937L15.4715 73.3916C15.7174 73.5446 15.9376 73.7827 16.1173 74.1564L17.9197 73.2896ZM16.531 71.6953C15.9375 71.3233 15.2744 71.142 14.5682 71.142V73.142C14.9188 73.142 15.2103 73.2278 15.469 73.39L16.531 71.6953ZM14.5682 71.142C13.8619 71.142 13.1986 71.3233 12.6036 71.6937L13.6606 73.3916C13.9235 73.2279 14.2176 73.142 14.5682 73.142V71.142ZM12.6011 71.6953C11.9936 72.0759 11.5366 72.623 11.2143 73.2857L13.0129 74.1604C13.1964 73.7832 13.4183 73.5434 13.6631 73.39L12.6011 71.6953ZM11.2124 73.2896C10.8805 73.9799 10.7386 74.7753 10.7386 75.6364H12.7386C12.7386 74.9861 12.8468 74.5059 13.0149 74.1564L11.2124 73.2896ZM10.7386 75.6364C10.7386 76.4975 10.8805 77.2928 11.2124 77.9831L13.0149 77.1163C12.8468 76.7668 12.7386 76.2866 12.7386 75.6364H10.7386ZM11.2143 77.9871C11.5366 78.6497 11.9936 79.1968 12.6011 79.5775L13.6631 77.8828C13.4183 77.7294 13.1964 77.4895 13.0129 77.1124L11.2143 77.9871ZM12.6036 79.5791C13.1986 79.9495 13.8619 80.1307 14.5682 80.1307V78.1307C14.2176 78.1307 13.9235 78.0449 13.6606 77.8812L12.6036 79.5791ZM14.5682 80.1307C15.2744 80.1307 15.9375 79.9494 16.531 79.5775L15.469 77.8828C15.2103 78.0449 14.9188 78.1307 14.5682 78.1307V80.1307ZM16.5285 79.5791C17.1405 79.198 17.5994 78.6492 17.9197 77.9831L16.1173 77.1163C15.9376 77.49 15.7174 77.7281 15.4715 77.8812L16.5285 79.5791ZM17.9178 77.9871C18.254 77.2957 18.3977 76.4989 18.3977 75.6364H16.3977C16.3977 76.2852 16.2886 76.7639 16.1192 77.1124L17.9178 77.9871ZM25.9247 71.2727V70.2727H24.9247V71.2727H25.9247ZM26.9815 71.2727H27.9815V70.2727H26.9815V71.2727ZM26.5597 78.6491L25.7022 78.1347L25.7012 78.1362L26.5597 78.6491ZM25.3793 79.7528L25.8442 80.6382L25.8481 80.6361L25.3793 79.7528ZM21.7997 79.7528L21.3309 80.6362L21.3348 80.6382L21.7997 79.7528ZM20.6151 78.6491L19.7553 79.1598L19.7589 79.1659L20.6151 78.6491ZM20.1974 71.2727V70.2727H19.1974V71.2727H20.1974ZM21.2543 71.2727H22.2543V70.2727H21.2543V71.2727ZM21.5355 78.1037L20.6645 78.595L20.6663 78.5982L21.5355 78.1037ZM22.3366 78.8835L21.8553 79.7601L21.8638 79.7647L22.3366 78.8835ZM24.8423 78.8835L25.3152 79.7647L25.3207 79.7617L24.8423 78.8835ZM25.6435 78.1037L24.7725 77.6124L24.7711 77.6149L25.6435 78.1037ZM25.9247 72.2727H26.9815V70.2727H25.9247V72.2727ZM25.9815 71.2727V77.0511H27.9815V71.2727H25.9815ZM25.9815 77.0511C25.9815 77.4836 25.8817 77.8354 25.7022 78.1347L27.4172 79.1636C27.8001 78.5254 27.9815 77.8119 27.9815 77.0511H25.9815ZM25.7012 78.1362C25.5222 78.4358 25.2679 78.6798 24.9105 78.8695L25.8481 80.6361C26.5076 80.2861 27.0403 79.7943 27.4181 79.1621L25.7012 78.1362ZM24.9143 78.8675C24.5743 79.046 24.1431 79.1534 23.5895 79.1534V81.1534C24.4052 81.1534 25.1672 80.9937 25.8442 80.6382L24.9143 78.8675ZM23.5895 79.1534C23.0358 79.1534 22.6047 79.046 22.2646 78.8675L21.3348 80.6382C22.0118 80.9937 22.7738 81.1534 23.5895 81.1534V79.1534ZM22.2685 78.8695C21.9102 78.6794 21.6534 78.4342 21.4712 78.1324L19.7589 79.1659C20.1392 79.7959 20.6721 80.2865 21.3309 80.6361L22.2685 78.8695ZM21.4748 78.1385C21.2967 77.8386 21.1974 77.4855 21.1974 77.0511H19.1974C19.1974 77.81 19.3766 78.5222 19.7553 79.1598L21.4748 78.1385ZM21.1974 77.0511V71.2727H19.1974V77.0511H21.1974ZM20.1974 72.2727H21.2543V70.2727H20.1974V72.2727ZM20.2543 71.2727V76.9659H22.2543V71.2727H20.2543ZM20.2543 76.9659C20.2543 77.5437 20.3829 78.0958 20.6645 78.595L22.4065 77.6124C22.3131 77.4468 22.2543 77.2404 22.2543 76.9659H20.2543ZM20.6663 78.5982C20.9493 79.0956 21.3539 79.4847 21.8553 79.76L22.818 78.007C22.6262 77.9017 22.4967 77.7709 22.4047 77.6092L20.6663 78.5982ZM21.8638 79.7647C22.3879 80.0459 22.9754 80.1648 23.5895 80.1648V78.1648C23.232 78.1648 22.9843 78.0962 22.8095 78.0024L21.8638 79.7647ZM23.5895 80.1648C24.2036 80.1648 24.7911 80.0459 25.3151 79.7647L24.3695 78.0024C24.1947 78.0962 23.947 78.1648 23.5895 78.1648V80.1648ZM25.3207 79.7617C25.8263 79.4863 26.2341 79.0953 26.5158 78.5925L24.7711 77.6149C24.6835 77.7712 24.5573 77.9001 24.364 78.0054L25.3207 79.7617ZM26.5144 78.595C26.7961 78.0958 26.9247 77.5437 26.9247 76.9659H24.9247C24.9247 77.2404 24.8659 77.4468 24.7725 77.6124L26.5144 78.595ZM26.9247 76.9659V71.2727H24.9247V76.9659H26.9247ZM30.1488 71.2727H31.1488V70.2727H30.1488V71.2727ZM30.1488 80V81H31.1488V80H30.1488ZM29.092 80H28.092V81H29.092V80ZM29.092 71.2727V70.2727H28.092V71.2727H29.092ZM29.1488 71.2727V80H31.1488V71.2727H29.1488ZM30.1488 79H29.092V81H30.1488V79ZM30.092 80V71.2727H28.092V80H30.092ZM29.092 72.2727H30.1488V70.2727H29.092V72.2727ZM39.1882 71.2727H40.1882V70.2727H39.1882V71.2727ZM39.1882 80V81H40.1882V80H39.1882ZM38.1655 80L37.344 80.5702L37.6423 81H38.1655V80ZM33.4098 73.1477L34.2313 72.5776L33.933 72.1477H33.4098V73.1477ZM33.3246 73.1477V72.1477H32.3246V73.1477H33.3246ZM33.3246 80V81H34.3246V80H33.3246ZM32.2678 80H31.2678V81H32.2678V80ZM32.2678 71.2727V70.2727H31.2678V71.2727H32.2678ZM33.2905 71.2727L34.1117 70.7021L33.8134 70.2727H33.2905V71.2727ZM38.0632 78.142L37.242 78.7126L37.5403 79.142H38.0632V78.142ZM38.1484 78.142V79.142H39.1484V78.142H38.1484ZM38.1484 71.2727V70.2727H37.1484V71.2727H38.1484ZM38.1882 71.2727V80H40.1882V71.2727H38.1882ZM39.1882 79H38.1655V81H39.1882V79ZM38.987 79.4298L34.2313 72.5776L32.5883 73.7179L37.344 80.5702L38.987 79.4298ZM33.4098 72.1477H33.3246V74.1477H33.4098V72.1477ZM32.3246 73.1477V80H34.3246V73.1477H32.3246ZM33.3246 79H32.2678V81H33.3246V79ZM33.2678 80V71.2727H31.2678V80H33.2678ZM32.2678 72.2727H33.2905V70.2727H32.2678V72.2727ZM32.4692 71.8433L37.242 78.7126L38.8844 77.5715L34.1117 70.7021L32.4692 71.8433ZM38.0632 79.142H38.1484V77.142H38.0632V79.142ZM39.1484 78.142V71.2727H37.1484V78.142H39.1484ZM38.1484 72.2727H39.1882V70.2727H38.1484V72.2727ZM40.8256 72.2102H39.8256V73.2102H40.8256V72.2102ZM40.8256 71.2727V70.2727H39.8256V71.2727H40.8256ZM47.3711 71.2727H48.3711V70.2727H47.3711V71.2727ZM47.3711 72.2102V73.2102H48.3711V72.2102H47.3711ZM44.6268 72.2102V71.2102H43.6268V72.2102H44.6268ZM44.6268 80V81H45.6268V80H44.6268ZM43.57 80H42.57V81H43.57V80ZM43.57 72.2102H44.57V71.2102H43.57V72.2102ZM41.8256 72.2102V71.2727H39.8256V72.2102H41.8256ZM40.8256 72.2727H47.3711V70.2727H40.8256V72.2727ZM46.3711 71.2727V72.2102H48.3711V71.2727H46.3711ZM47.3711 71.2102H44.6268V73.2102H47.3711V71.2102ZM43.6268 72.2102V80H45.6268V72.2102H43.6268ZM44.6268 79H43.57V81H44.6268V79ZM44.57 80V72.2102H42.57V80H44.57ZM43.57 71.2102H40.8256V73.2102H43.57V71.2102ZM48.3406 80V81H49.0467L49.2829 80.3345L48.3406 80ZM47.2326 80L46.2939 79.6553L45.8001 81H47.2326V80ZM50.4371 71.2727V70.2727H49.7391L49.4984 70.928L50.4371 71.2727ZM51.5281 71.2727L52.4668 70.928L52.2261 70.2727H51.5281V71.2727ZM54.7326 80V81H56.1651L55.6713 79.6553L54.7326 80ZM53.6246 80L52.6823 80.3345L52.9185 81H53.6246V80ZM51.0167 72.6534L51.9591 72.3189L51.7228 71.6534H51.0167V72.6534ZM50.9485 72.6534V71.6534H50.2424L50.0061 72.3189L50.9485 72.6534ZM48.7496 76.5909V75.5909H47.7496V76.5909H48.7496ZM53.2156 76.5909H54.2156V75.5909H53.2156V76.5909ZM53.2156 77.5284V78.5284H54.2156V77.5284H53.2156ZM48.7496 77.5284H47.7496V78.5284H48.7496V77.5284ZM48.3406 79H47.2326V81H48.3406V79ZM48.1713 80.3447L51.3759 71.6174L49.4984 70.928L46.2939 79.6553L48.1713 80.3447ZM50.4371 72.2727H51.5281V70.2727H50.4371V72.2727ZM50.5893 71.6174L53.7939 80.3447L55.6713 79.6553L52.4668 70.928L50.5893 71.6174ZM54.7326 79H53.6246V81H54.7326V79ZM54.567 79.6655L51.9591 72.3189L50.0743 72.9879L52.6823 80.3345L54.567 79.6655ZM51.0167 71.6534H50.9485V73.6534H51.0167V71.6534ZM50.0061 72.3189L47.3982 79.6655L49.2829 80.3345L51.8909 72.9879L50.0061 72.3189ZM48.7496 77.5909H53.2156V75.5909H48.7496V77.5909ZM52.2156 76.5909V77.5284H54.2156V76.5909H52.2156ZM53.2156 76.5284H48.7496V78.5284H53.2156V76.5284ZM49.7496 77.5284V76.5909H47.7496V77.5284H49.7496Z" fill="black" mask="url(#path-4-outside-1_68_17)"/>
<defs>
<clipPath id="clip0_68_17">
<rect width="42.65" height="42.65" fill="white" transform="translate(23.5049 3.75262) rotate(27.2641)"/>
</clipPath>
</defs>
</svg>
