<svg width="66" height="83" viewBox="0 0 66 83" fill="none" xmlns="http://www.w3.org/2000/svg">
<rect x="0.434827" y="1.03471" width="63.9212" height="63.488" rx="21.5692" transform="rotate(-0.537736 0.434827 1.03471)" stroke="#B7CAD0" stroke-width="0.861606"/>
<g clip-path="url(#clip0_68_35)">
<path d="M41.2397 15.8909C37.9592 14.2003 34.2511 13.5205 30.5842 13.9374C26.9174 14.3542 23.4565 15.8491 20.6392 18.2329C17.8219 20.6167 15.7748 23.7824 14.7567 27.3297C13.7386 30.877 13.7952 34.6465 14.9195 38.1615C16.0437 41.6766 18.185 44.7794 21.0726 47.0775C23.9603 49.3755 27.4645 50.7657 31.1422 51.0722C34.82 51.3787 38.506 50.5878 41.7342 48.7994C44.9624 47.011 47.5878 44.3055 49.2784 41.025C51.5454 36.626 51.972 31.5067 50.4645 26.7931C48.9569 22.0795 45.6387 18.1579 41.2397 15.8909ZM26.5501 47.3048L27.1606 46.1201C27.3226 45.8058 27.353 45.4402 27.2454 45.1035C27.1377 44.7668 26.9007 44.4867 26.5865 44.3248C26.2722 44.1628 25.9066 44.1324 25.5699 44.24C25.2332 44.3477 24.9531 44.5847 24.7912 44.8989L24.1806 46.0837C20.9714 44.0705 18.581 40.9835 17.4352 37.3726C16.2893 33.7617 16.4625 29.8612 17.9237 26.366L19.0492 26.946C19.3634 27.1079 19.7291 27.1384 20.0658 27.0307C20.4025 26.923 20.6826 26.686 20.8445 26.3718C21.0065 26.0576 21.0369 25.6919 20.9292 25.3552C20.8216 25.0186 20.5845 24.7384 20.2703 24.5765L19.0856 23.966C21.0988 20.7568 24.1857 18.3664 27.7967 17.2205C31.4076 16.0747 35.3081 16.2478 38.8033 17.7091L38.2233 18.8346C38.0613 19.1488 38.0309 19.5145 38.1386 19.8512C38.2462 20.1878 38.4833 20.468 38.7975 20.6299C39.1117 20.7918 39.4774 20.8223 39.814 20.7146C40.1507 20.6069 40.4308 20.3699 40.5928 20.0557L41.2033 18.871C44.43 20.8762 46.8375 23.9645 47.9948 27.583C49.1521 31.2014 48.9836 35.1137 47.5194 38.6192L46.3347 38.0086C46.0205 37.8467 45.6548 37.8162 45.3181 37.9239C44.9814 38.0316 44.7013 38.2686 44.5394 38.5828C44.3775 38.897 44.347 39.2627 44.4547 39.5994C44.5624 39.9361 44.7994 40.2162 45.1136 40.3781L46.2983 40.9887C44.2931 44.2153 41.2047 46.6229 37.5863 47.7802C33.9679 48.9374 30.0556 48.7689 26.5501 47.3048Z" fill="#304046"/>
<path d="M43.5708 26.6133L32.7576 31.0117L27.3788 28.2398C27.0646 28.0779 26.6989 28.0474 26.3623 28.1551C26.0256 28.2628 25.7455 28.4998 25.5835 28.814C25.4216 29.1282 25.3911 29.4939 25.4988 29.8306C25.6065 30.1672 25.8435 30.4474 26.1577 30.6093L32.0814 33.662C32.2448 33.748 32.4258 33.7951 32.6103 33.7996L32.7356 33.7892C32.8761 33.7889 33.0155 33.7644 33.1478 33.7168L44.5301 29.0869C44.6922 29.0208 44.8396 28.9234 44.964 28.8002C45.0885 28.6771 45.1874 28.5307 45.2552 28.3694C45.3231 28.208 45.3585 28.0349 45.3594 27.8598C45.3603 27.6848 45.3268 27.5113 45.2606 27.3492C45.1945 27.1872 45.0971 27.0397 44.974 26.9153C44.8509 26.7909 44.7045 26.6919 44.5431 26.6241C44.3818 26.5562 44.2086 26.5208 44.0336 26.5199C43.8586 26.519 43.6851 26.5525 43.523 26.6187L43.5708 26.6133Z" fill="#304046"/>
</g>
<mask id="path-4-outside-1_68_35" maskUnits="userSpaceOnUse" x="13" y="70" width="40" height="12" fill="black">
<rect fill="white" x="13" y="70" width="40" height="12"/>
<path d="M19.8295 73.4545C19.7784 73.0227 19.571 72.6875 19.2074 72.4489C18.8438 72.2102 18.3977 72.0909 17.8693 72.0909C17.483 72.0909 17.1449 72.1534 16.8551 72.2784C16.5682 72.4034 16.3438 72.5753 16.1818 72.794C16.0227 73.0128 15.9432 73.2614 15.9432 73.5398C15.9432 73.7727 15.9986 73.973 16.1094 74.1406C16.223 74.3054 16.3679 74.4432 16.544 74.554C16.7202 74.6619 16.9048 74.7514 17.098 74.8224C17.2912 74.8906 17.4688 74.946 17.6307 74.9886L18.517 75.2273C18.7443 75.2869 18.9972 75.3693 19.2756 75.4744C19.5568 75.5795 19.8253 75.723 20.081 75.9048C20.3395 76.0838 20.5526 76.3139 20.7202 76.5952C20.8878 76.8764 20.9716 77.2216 20.9716 77.6307C20.9716 78.1023 20.848 78.5284 20.6009 78.9091C20.3565 79.2898 19.9986 79.5923 19.527 79.8168C19.0582 80.0412 18.4886 80.1534 17.8182 80.1534C17.1932 80.1534 16.652 80.0526 16.1946 79.8509C15.7401 79.6491 15.3821 79.3679 15.1207 79.0071C14.8622 78.6463 14.7159 78.2273 14.6818 77.75H15.7727C15.8011 78.0795 15.9119 78.3523 16.1051 78.5682C16.3011 78.7812 16.5483 78.9403 16.8466 79.0455C17.1477 79.1477 17.4716 79.1989 17.8182 79.1989C18.2216 79.1989 18.5838 79.1335 18.9048 79.0028C19.2259 78.8693 19.4801 78.6847 19.6676 78.4489C19.8551 78.2102 19.9489 77.9318 19.9489 77.6136C19.9489 77.3239 19.8679 77.0881 19.706 76.9062C19.544 76.7244 19.331 76.5767 19.0668 76.4631C18.8026 76.3494 18.517 76.25 18.2102 76.1648L17.1364 75.858C16.4545 75.6619 15.9148 75.3821 15.517 75.0185C15.1193 74.6548 14.9205 74.179 14.9205 73.5909C14.9205 73.1023 15.0526 72.6761 15.3168 72.3125C15.5838 71.946 15.9418 71.6619 16.3906 71.4602C16.8423 71.2557 17.3466 71.1534 17.9034 71.1534C18.4659 71.1534 18.9659 71.2543 19.4034 71.456C19.8409 71.6548 20.1875 71.9276 20.4432 72.2741C20.7017 72.6207 20.8381 73.0142 20.8523 73.4545H19.8295ZM22.7092 80V71.2727H27.9762V72.2102H23.766V75.1591H27.7035V76.0966H23.766V79.0625H28.0444V80H22.7092ZM30.3924 71.2727L32.6424 74.9034H32.7106L34.9606 71.2727H36.2049L33.4606 75.6364L36.2049 80H34.9606L32.7106 76.4375H32.6424L30.3924 80H29.1481L31.9606 75.6364L29.1481 71.2727H30.3924ZM37.103 72.2102V71.2727H43.6484V72.2102H40.9041V80H39.8473V72.2102H37.103ZM44.6179 80H43.5099L46.7145 71.2727H47.8054L51.0099 80H49.902L47.294 72.6534H47.2259L44.6179 80ZM45.027 76.5909H49.4929V77.5284H45.027V76.5909Z"/>
</mask>
<path d="M19.8295 73.4545C19.7784 73.0227 19.571 72.6875 19.2074 72.4489C18.8438 72.2102 18.3977 72.0909 17.8693 72.0909C17.483 72.0909 17.1449 72.1534 16.8551 72.2784C16.5682 72.4034 16.3438 72.5753 16.1818 72.794C16.0227 73.0128 15.9432 73.2614 15.9432 73.5398C15.9432 73.7727 15.9986 73.973 16.1094 74.1406C16.223 74.3054 16.3679 74.4432 16.544 74.554C16.7202 74.6619 16.9048 74.7514 17.098 74.8224C17.2912 74.8906 17.4688 74.946 17.6307 74.9886L18.517 75.2273C18.7443 75.2869 18.9972 75.3693 19.2756 75.4744C19.5568 75.5795 19.8253 75.723 20.081 75.9048C20.3395 76.0838 20.5526 76.3139 20.7202 76.5952C20.8878 76.8764 20.9716 77.2216 20.9716 77.6307C20.9716 78.1023 20.848 78.5284 20.6009 78.9091C20.3565 79.2898 19.9986 79.5923 19.527 79.8168C19.0582 80.0412 18.4886 80.1534 17.8182 80.1534C17.1932 80.1534 16.652 80.0526 16.1946 79.8509C15.7401 79.6491 15.3821 79.3679 15.1207 79.0071C14.8622 78.6463 14.7159 78.2273 14.6818 77.75H15.7727C15.8011 78.0795 15.9119 78.3523 16.1051 78.5682C16.3011 78.7812 16.5483 78.9403 16.8466 79.0455C17.1477 79.1477 17.4716 79.1989 17.8182 79.1989C18.2216 79.1989 18.5838 79.1335 18.9048 79.0028C19.2259 78.8693 19.4801 78.6847 19.6676 78.4489C19.8551 78.2102 19.9489 77.9318 19.9489 77.6136C19.9489 77.3239 19.8679 77.0881 19.706 76.9062C19.544 76.7244 19.331 76.5767 19.0668 76.4631C18.8026 76.3494 18.517 76.25 18.2102 76.1648L17.1364 75.858C16.4545 75.6619 15.9148 75.3821 15.517 75.0185C15.1193 74.6548 14.9205 74.179 14.9205 73.5909C14.9205 73.1023 15.0526 72.6761 15.3168 72.3125C15.5838 71.946 15.9418 71.6619 16.3906 71.4602C16.8423 71.2557 17.3466 71.1534 17.9034 71.1534C18.4659 71.1534 18.9659 71.2543 19.4034 71.456C19.8409 71.6548 20.1875 71.9276 20.4432 72.2741C20.7017 72.6207 20.8381 73.0142 20.8523 73.4545H19.8295ZM22.7092 80V71.2727H27.9762V72.2102H23.766V75.1591H27.7035V76.0966H23.766V79.0625H28.0444V80H22.7092ZM30.3924 71.2727L32.6424 74.9034H32.7106L34.9606 71.2727H36.2049L33.4606 75.6364L36.2049 80H34.9606L32.7106 76.4375H32.6424L30.3924 80H29.1481L31.9606 75.6364L29.1481 71.2727H30.3924ZM37.103 72.2102V71.2727H43.6484V72.2102H40.9041V80H39.8473V72.2102H37.103ZM44.6179 80H43.5099L46.7145 71.2727H47.8054L51.0099 80H49.902L47.294 72.6534H47.2259L44.6179 80ZM45.027 76.5909H49.4929V77.5284H45.027V76.5909Z" fill="white"/>
<path d="M19.8295 73.4545L18.8365 73.5721L18.941 74.4545H19.8295V73.4545ZM19.2074 72.4489L18.6587 73.2849L18.6587 73.2849L19.2074 72.4489ZM16.8551 72.2784L16.459 71.3602L16.4557 71.3616L16.8551 72.2784ZM16.1818 72.794L15.378 72.199L15.3731 72.2059L16.1818 72.794ZM16.1094 74.1406L15.2752 74.6921L15.2806 74.7003L15.2862 74.7084L16.1094 74.1406ZM16.544 74.554L16.0115 75.4005L16.0215 75.4066L16.544 74.554ZM17.098 74.8224L16.7529 75.7611L16.7652 75.7654L17.098 74.8224ZM17.6307 74.9886L17.8907 74.023L17.8852 74.0216L17.6307 74.9886ZM18.517 75.2273L18.2571 76.1929L18.2631 76.1945L18.517 75.2273ZM19.2756 75.4744L18.9224 76.41L18.9255 76.4111L19.2756 75.4744ZM20.081 75.9048L19.5014 76.7198L19.5118 76.727L20.081 75.9048ZM20.7202 76.5952L21.5792 76.0832L21.5792 76.0832L20.7202 76.5952ZM20.6009 78.9091L19.7621 78.3645L19.7593 78.369L20.6009 78.9091ZM19.527 79.8168L19.0973 78.9138L19.0951 78.9148L19.527 79.8168ZM16.1946 79.8509L15.789 80.7649L15.7911 80.7658L16.1946 79.8509ZM15.1207 79.0071L14.3079 79.5896L14.3109 79.5938L15.1207 79.0071ZM14.6818 77.75V76.75H13.6078L13.6844 77.8212L14.6818 77.75ZM15.7727 77.75L16.769 77.6641L16.6902 76.75H15.7727V77.75ZM16.1051 78.5682L15.3598 79.235L15.3692 79.2452L16.1051 78.5682ZM16.8466 79.0455L16.5142 79.9887L16.525 79.9923L16.8466 79.0455ZM18.9048 79.0028L19.2819 79.9291L19.2889 79.9262L18.9048 79.0028ZM19.6676 78.4489L20.4503 79.0713L20.4539 79.0667L19.6676 78.4489ZM19.706 76.9062L20.4527 76.2412L20.4527 76.2412L19.706 76.9062ZM19.0668 76.4631L18.6716 77.3817L18.6717 77.3817L19.0668 76.4631ZM18.2102 76.1648L17.9355 77.1263L17.9426 77.1283L18.2102 76.1648ZM17.1364 75.858L16.8601 76.819L16.8616 76.8195L17.1364 75.858ZM15.517 75.0185L14.8423 75.7565L14.8423 75.7565L15.517 75.0185ZM15.3168 72.3125L14.5086 71.7236L14.5078 71.7247L15.3168 72.3125ZM16.3906 71.4602L16.8005 72.3724L16.8031 72.3712L16.3906 71.4602ZM19.4034 71.456L18.9847 72.3641L18.9896 72.3663L19.4034 71.456ZM20.4432 72.2741L19.6384 72.8678L19.6416 72.872L20.4432 72.2741ZM20.8523 73.4545V74.4545H21.8851L21.8518 73.4223L20.8523 73.4545ZM20.8226 73.3369C20.7367 72.6117 20.3666 72.0135 19.756 71.6128L18.6587 73.2849C18.7755 73.3615 18.8201 73.4338 18.8365 73.5721L20.8226 73.3369ZM19.756 71.6128C19.1973 71.2462 18.5504 71.0909 17.8693 71.0909V73.0909C18.2451 73.0909 18.4902 73.1743 18.6587 73.2849L19.756 71.6128ZM17.8693 71.0909C17.3765 71.0909 16.8986 71.1706 16.459 71.3602L17.2512 73.1966C17.3912 73.1362 17.5894 73.0909 17.8693 73.0909V71.0909ZM16.4557 71.3616C16.0326 71.546 15.6591 71.8195 15.3781 72.1991L16.9856 73.389C17.0284 73.3311 17.1038 73.2608 17.2545 73.1952L16.4557 71.3616ZM15.3731 72.2059C15.0858 72.6008 14.9432 73.0567 14.9432 73.5398H16.9432C16.9432 73.4661 16.9596 73.4247 16.9906 73.3822L15.3731 72.2059ZM14.9432 73.5398C14.9432 73.9368 15.0398 74.336 15.2752 74.6921L16.9436 73.5892C16.948 73.5959 16.9492 73.6006 16.9485 73.5981C16.9476 73.5946 16.9432 73.5769 16.9432 73.5398H14.9432ZM15.2862 74.7084C15.4799 74.9892 15.7253 75.2203 16.0116 75.4004L17.0765 73.7075C17.0105 73.666 16.9662 73.6216 16.9326 73.5729L15.2862 74.7084ZM16.0215 75.4066C16.2536 75.5488 16.4977 75.6672 16.7529 75.761L17.4431 73.8839C17.312 73.8357 17.1868 73.775 17.0666 73.7014L16.0215 75.4066ZM16.7652 75.7654C16.9787 75.8408 17.1828 75.9048 17.3762 75.9557L17.8852 74.0216C17.7547 73.9872 17.6037 73.9405 17.4308 73.8795L16.7652 75.7654ZM17.3707 75.9543L18.2571 76.1929L18.777 74.2617L17.8907 74.023L17.3707 75.9543ZM18.2631 76.1945C18.4493 76.2434 18.6684 76.3141 18.9224 76.41L19.6288 74.5389C19.326 74.4246 19.0393 74.3305 18.7709 74.26L18.2631 76.1945ZM18.9255 76.4111C19.1217 76.4845 19.3134 76.5861 19.5014 76.7198L20.6605 75.0899C20.3371 74.8599 19.9919 74.6746 19.6257 74.5377L18.9255 76.4111ZM19.5118 76.727C19.6477 76.8211 19.7637 76.9436 19.8612 77.1071L21.5792 76.0832C21.3414 75.6842 21.0313 75.3465 20.6502 75.0826L19.5118 76.727ZM19.8612 77.1071C19.9161 77.1993 19.9716 77.3573 19.9716 77.6307H21.9716C21.9716 77.0859 21.8595 76.5536 21.5792 76.0832L19.8612 77.1071ZM19.9716 77.6307C19.9716 77.9169 19.8998 78.1525 19.7621 78.3645L21.4396 79.4536C21.7962 78.9043 21.9716 78.2876 21.9716 77.6307H19.9716ZM19.7593 78.369C19.6305 78.5696 19.427 78.7569 19.0973 78.9138L19.9567 80.7197C20.5702 80.4278 21.0826 80.0099 21.4424 79.4492L19.7593 78.369ZM19.0951 78.9148C18.7944 79.0588 18.381 79.1534 17.8182 79.1534V81.1534C18.5963 81.1534 19.3221 81.0236 19.9588 80.7187L19.0951 78.9148ZM17.8182 79.1534C17.2984 79.1534 16.9008 79.0693 16.5981 78.9359L15.7911 80.7658C16.4032 81.0358 17.0879 81.1534 17.8182 81.1534V79.1534ZM16.6002 78.9368C16.2877 78.7982 16.0768 78.6223 15.9306 78.4204L14.3109 79.5938C14.6874 80.1135 15.1924 80.5001 15.789 80.7649L16.6002 78.9368ZM15.9336 78.4247C15.791 78.2257 15.7013 77.9868 15.6793 77.6788L13.6844 77.8212C13.7305 78.4678 13.9334 79.0669 14.3079 79.5896L15.9336 78.4247ZM14.6818 78.75H15.7727V76.75H14.6818V78.75ZM14.7764 77.8359C14.8207 78.3492 15.0023 78.8354 15.3599 79.235L16.8504 77.9014C16.8215 77.8692 16.7816 77.8099 16.769 77.6641L14.7764 77.8359ZM15.3692 79.2452C15.686 79.5896 16.0763 79.8343 16.5142 79.9886L17.1789 78.1023C17.0203 78.0464 16.9163 77.9729 16.841 77.8911L15.3692 79.2452ZM16.525 79.9923C16.9386 80.1328 17.372 80.1989 17.8182 80.1989V78.1989C17.5712 78.1989 17.3569 78.1627 17.1682 78.0986L16.525 79.9923ZM17.8182 80.1989C18.33 80.1989 18.8232 80.1158 19.2819 79.929L18.5278 78.0766C18.3444 78.1513 18.1132 78.1989 17.8182 78.1989V80.1989ZM19.2889 79.9262C19.7418 79.7378 20.1423 79.4586 20.4503 79.0713L18.8849 77.8265C18.8179 77.9107 18.7099 78.0009 18.5208 78.0795L19.2889 79.9262ZM20.4539 79.0667C20.7869 78.6429 20.9489 78.1442 20.9489 77.6136H18.9489C18.9489 77.7194 18.9233 77.7776 18.8813 77.831L20.4539 79.0667ZM20.9489 77.6136C20.9489 77.1278 20.8078 76.6398 20.4527 76.2412L18.9592 77.5713C18.9555 77.5672 18.9514 77.5617 18.9478 77.5555C18.9443 77.5494 18.9427 77.5451 18.9423 77.5442C18.9416 77.5422 18.9489 77.5617 18.9489 77.6136H20.9489ZM20.4527 76.2412C20.1775 75.9321 19.8363 75.7055 19.4619 75.5444L18.6717 77.3817C18.8256 77.4479 18.9106 77.5168 18.9592 77.5713L20.4527 76.2412ZM19.4619 75.5444C19.1521 75.4112 18.8236 75.2973 18.4779 75.2013L17.9426 77.1283C18.2105 77.2027 18.453 77.2877 18.6716 77.3817L19.4619 75.5444ZM18.4849 75.2032L17.4111 74.8964L16.8616 76.8195L17.9355 77.1263L18.4849 75.2032ZM17.4127 74.8969C16.8341 74.7305 16.4455 74.5124 16.1918 74.2804L14.8423 75.7565C15.384 76.2518 16.075 76.5933 16.8601 76.819L17.4127 74.8969ZM16.1918 74.2804C16.0215 74.1247 15.9205 73.9268 15.9205 73.5909H13.9205C13.9205 74.4311 14.2171 75.1849 14.8423 75.7565L16.1918 74.2804ZM15.9205 73.5909C15.9205 73.294 15.9966 73.078 16.1258 72.9003L14.5078 71.7247C14.1085 72.2742 13.9205 72.9105 13.9205 73.5909H15.9205ZM16.125 72.9014C16.281 72.6873 16.4963 72.5091 16.8005 72.3724L15.9807 70.5481C15.3872 70.8148 14.8867 71.2047 14.5086 71.7236L16.125 72.9014ZM16.8031 72.3712C17.1102 72.2322 17.4713 72.1534 17.9034 72.1534V70.1534C17.2219 70.1534 16.5745 70.2792 15.9781 70.5493L16.8031 72.3712ZM17.9034 72.1534C18.3454 72.1534 18.6987 72.2322 18.9847 72.3641L19.8221 70.5478C19.2331 70.2763 18.5864 70.1534 17.9034 70.1534V72.1534ZM18.9896 72.3663C19.2903 72.503 19.4953 72.6737 19.6385 72.8678L21.2479 71.6805C20.8797 71.1814 20.3916 70.8067 19.8172 70.5456L18.9896 72.3663ZM19.6416 72.872C19.7754 73.0515 19.845 73.2467 19.8528 73.4868L21.8518 73.4223C21.8311 72.7817 21.628 72.19 21.2448 71.6763L19.6416 72.872ZM20.8523 72.4545H19.8295V74.4545H20.8523V72.4545ZM22.7092 80H21.7092V81H22.7092V80ZM22.7092 71.2727V70.2727H21.7092V71.2727H22.7092ZM27.9762 71.2727H28.9762V70.2727H27.9762V71.2727ZM27.9762 72.2102V73.2102H28.9762V72.2102H27.9762ZM23.766 72.2102V71.2102H22.766V72.2102H23.766ZM23.766 75.1591H22.766V76.1591H23.766V75.1591ZM27.7035 75.1591H28.7035V74.1591H27.7035V75.1591ZM27.7035 76.0966V77.0966H28.7035V76.0966H27.7035ZM23.766 76.0966V75.0966H22.766V76.0966H23.766ZM23.766 79.0625H22.766V80.0625H23.766V79.0625ZM28.0444 79.0625H29.0444V78.0625H28.0444V79.0625ZM28.0444 80V81H29.0444V80H28.0444ZM23.7092 80V71.2727H21.7092V80H23.7092ZM22.7092 72.2727H27.9762V70.2727H22.7092V72.2727ZM26.9762 71.2727V72.2102H28.9762V71.2727H26.9762ZM27.9762 71.2102H23.766V73.2102H27.9762V71.2102ZM22.766 72.2102V75.1591H24.766V72.2102H22.766ZM23.766 76.1591H27.7035V74.1591H23.766V76.1591ZM26.7035 75.1591V76.0966H28.7035V75.1591H26.7035ZM27.7035 75.0966H23.766V77.0966H27.7035V75.0966ZM22.766 76.0966V79.0625H24.766V76.0966H22.766ZM23.766 80.0625H28.0444V78.0625H23.766V80.0625ZM27.0444 79.0625V80H29.0444V79.0625H27.0444ZM28.0444 79H22.7092V81H28.0444V79ZM30.3924 71.2727L31.2424 70.746L30.9491 70.2727H30.3924V71.2727ZM32.6424 74.9034L31.7924 75.4302L32.0857 75.9034H32.6424V74.9034ZM32.7106 74.9034V75.9034H33.2673L33.5606 75.4302L32.7106 74.9034ZM34.9606 71.2727V70.2727H34.4038L34.1106 70.746L34.9606 71.2727ZM36.2049 71.2727L37.0514 71.8051L38.0151 70.2727H36.2049V71.2727ZM33.4606 75.6364L32.6141 75.104L32.2793 75.6364L32.6141 76.1687L33.4606 75.6364ZM36.2049 80V81H38.0151L37.0514 79.4676L36.2049 80ZM34.9606 80L34.1151 80.534L34.4094 81H34.9606V80ZM32.7106 76.4375L33.5561 75.9035L33.2618 75.4375H32.7106V76.4375ZM32.6424 76.4375V75.4375H32.0912L31.7969 75.9035L32.6424 76.4375ZM30.3924 80V81H30.9436L31.2379 80.534L30.3924 80ZM29.1481 80L28.3075 79.4582L27.3138 81H29.1481V80ZM31.9606 75.6364L32.8011 76.1781L33.1503 75.6364L32.8011 75.0946L31.9606 75.6364ZM29.1481 71.2727V70.2727H27.3138L28.3075 71.8145L29.1481 71.2727ZM29.5424 71.7995L31.7924 75.4302L33.4924 74.3766L31.2424 70.746L29.5424 71.7995ZM32.6424 75.9034H32.7106V73.9034H32.6424V75.9034ZM33.5606 75.4302L35.8106 71.7995L34.1106 70.746L31.8606 74.3766L33.5606 75.4302ZM34.9606 72.2727H36.2049V70.2727H34.9606V72.2727ZM35.3584 70.7404L32.6141 75.104L34.3071 76.1687L37.0514 71.8051L35.3584 70.7404ZM32.6141 76.1687L35.3584 80.5324L37.0514 79.4676L34.3071 75.104L32.6141 76.1687ZM36.2049 79H34.9606V81H36.2049V79ZM35.8061 79.466L33.5561 75.9035L31.8651 76.9715L34.1151 80.534L35.8061 79.466ZM32.7106 75.4375H32.6424V77.4375H32.7106V75.4375ZM31.7969 75.9035L29.5469 79.466L31.2379 80.534L33.4879 76.9715L31.7969 75.9035ZM30.3924 79H29.1481V81H30.3924V79ZM29.9886 80.5418L32.8011 76.1781L31.12 75.0946L28.3075 79.4582L29.9886 80.5418ZM32.8011 75.0946L29.9886 70.731L28.3075 71.8145L31.12 76.1781L32.8011 75.0946ZM29.1481 72.2727H30.3924V70.2727H29.1481V72.2727ZM37.103 72.2102H36.103V73.2102H37.103V72.2102ZM37.103 71.2727V70.2727H36.103V71.2727H37.103ZM43.6484 71.2727H44.6484V70.2727H43.6484V71.2727ZM43.6484 72.2102V73.2102H44.6484V72.2102H43.6484ZM40.9041 72.2102V71.2102H39.9041V72.2102H40.9041ZM40.9041 80V81H41.9041V80H40.9041ZM39.8473 80H38.8473V81H39.8473V80ZM39.8473 72.2102H40.8473V71.2102H39.8473V72.2102ZM38.103 72.2102V71.2727H36.103V72.2102H38.103ZM37.103 72.2727H43.6484V70.2727H37.103V72.2727ZM42.6484 71.2727V72.2102H44.6484V71.2727H42.6484ZM43.6484 71.2102H40.9041V73.2102H43.6484V71.2102ZM39.9041 72.2102V80H41.9041V72.2102H39.9041ZM40.9041 79H39.8473V81H40.9041V79ZM40.8473 80V72.2102H38.8473V80H40.8473ZM39.8473 71.2102H37.103V73.2102H39.8473V71.2102ZM44.6179 80V81H45.324L45.5603 80.3345L44.6179 80ZM43.5099 80L42.5712 79.6553L42.0775 81H43.5099V80ZM46.7145 71.2727V70.2727H46.0164L45.7758 70.928L46.7145 71.2727ZM47.8054 71.2727L48.7441 70.928L48.5035 70.2727H47.8054V71.2727ZM51.0099 80V81H52.4424L51.9487 79.6553L51.0099 80ZM49.902 80L48.9596 80.3345L49.1958 81H49.902V80ZM47.294 72.6534L48.2364 72.3189L48.0002 71.6534H47.294V72.6534ZM47.2259 72.6534V71.6534H46.5197L46.2835 72.3189L47.2259 72.6534ZM45.027 76.5909V75.5909H44.027V76.5909H45.027ZM49.4929 76.5909H50.4929V75.5909H49.4929V76.5909ZM49.4929 77.5284V78.5284H50.4929V77.5284H49.4929ZM45.027 77.5284H44.027V78.5284H45.027V77.5284ZM44.6179 79H43.5099V81H44.6179V79ZM44.4487 80.3447L47.6532 71.6174L45.7758 70.928L42.5712 79.6553L44.4487 80.3447ZM46.7145 72.2727H47.8054V70.2727H46.7145V72.2727ZM46.8667 71.6174L50.0712 80.3447L51.9487 79.6553L48.7441 70.928L46.8667 71.6174ZM51.0099 79H49.902V81H51.0099V79ZM50.8444 79.6655L48.2364 72.3189L46.3517 72.9879L48.9596 80.3345L50.8444 79.6655ZM47.294 71.6534H47.2259V73.6534H47.294V71.6534ZM46.2835 72.3189L43.6755 79.6655L45.5603 80.3345L48.1682 72.9879L46.2835 72.3189ZM45.027 77.5909H49.4929V75.5909H45.027V77.5909ZM48.4929 76.5909V77.5284H50.4929V76.5909H48.4929ZM49.4929 76.5284H45.027V78.5284H49.4929V76.5284ZM46.027 77.5284V76.5909H44.027V77.5284H46.027Z" fill="black" mask="url(#path-4-outside-1_68_35)"/>
<defs>
<clipPath id="clip0_68_35">
<rect width="42.65" height="42.65" fill="white" transform="translate(23.5049 3.75262) rotate(27.2641)"/>
</clipPath>
</defs>
</svg>
