<svg width="66" height="83" viewBox="0 0 66 83" fill="none" xmlns="http://www.w3.org/2000/svg">
<rect x="0.434827" y="1.03471" width="63.9212" height="63.488" rx="21.5692" transform="rotate(-0.537736 0.434827 1.03471)" stroke="#B7CAD0" stroke-width="0.861606"/>
<g clip-path="url(#clip0_68_44)">
<path d="M41.2396 15.8909C37.9592 14.2003 34.251 13.5205 30.5842 13.9374C26.9173 14.3542 23.4564 15.8491 20.6392 18.2329C17.8219 20.6167 15.7748 23.7824 14.7567 27.3297C13.7385 30.877 13.7952 34.6465 14.9194 38.1615C16.0437 41.6766 18.185 44.7794 21.0726 47.0775C23.9602 49.3755 27.4645 50.7657 31.1422 51.0722C34.8199 51.3787 38.506 50.5878 41.7342 48.7994C44.9624 47.011 47.5878 44.3055 49.2783 41.025C51.5453 36.626 51.972 31.5067 50.4644 26.7931C48.9569 22.0795 45.6386 18.1579 41.2396 15.8909ZM26.5501 47.3048L27.1606 46.1201C27.3225 45.8058 27.353 45.4402 27.2453 45.1035C27.1377 44.7668 26.9006 44.4867 26.5864 44.3248C26.2722 44.1628 25.9065 44.1324 25.5699 44.24C25.2332 44.3477 24.9531 44.5847 24.7911 44.8989L24.1806 46.0837C20.9714 44.0705 18.581 40.9835 17.4351 37.3726C16.2893 33.7617 16.4624 29.8612 17.9237 26.366L19.0492 26.946C19.3634 27.1079 19.7291 27.1384 20.0658 27.0307C20.4025 26.923 20.6826 26.686 20.8445 26.3718C21.0064 26.0576 21.0369 25.6919 20.9292 25.3552C20.8215 25.0186 20.5845 24.7384 20.2703 24.5765L19.0856 23.966C21.0987 20.7568 24.1857 18.3664 27.7967 17.2205C31.4076 16.0747 35.308 16.2478 38.8033 17.7091L38.2232 18.8346C38.0613 19.1488 38.0308 19.5145 38.1385 19.8512C38.2462 20.1878 38.4832 20.468 38.7974 20.6299C39.1117 20.7918 39.4773 20.8223 39.814 20.7146C40.1507 20.6069 40.4308 20.3699 40.5927 20.0557L41.2033 18.871C44.43 20.8762 46.8375 23.9645 47.9948 27.583C49.1521 31.2014 48.9835 35.1137 47.5194 38.6192L46.3347 38.0086C46.0204 37.8467 45.6548 37.8162 45.3181 37.9239C44.9814 38.0316 44.7013 38.2686 44.5394 38.5828C44.3774 38.897 44.347 39.2627 44.4546 39.5994C44.5623 39.9361 44.7993 40.2162 45.1136 40.3781L46.2983 40.9887C44.293 44.2153 41.2047 46.6229 37.5863 47.7802C33.9678 48.9374 30.0556 48.7689 26.5501 47.3048Z" fill="#304046"/>
<path d="M43.5707 26.6133L32.7575 31.0117L27.3788 28.2398C27.0645 28.0779 26.6989 28.0474 26.3622 28.1551C26.0255 28.2628 25.7454 28.4998 25.5835 28.814C25.4215 29.1282 25.3911 29.4939 25.4987 29.8306C25.6064 30.1672 25.8434 30.4474 26.1577 30.6093L32.0814 33.662C32.2447 33.748 32.4257 33.7951 32.6102 33.7996L32.7355 33.7892C32.8761 33.7889 33.0155 33.7644 33.1477 33.7168L44.53 29.0869C44.6921 29.0208 44.8395 28.9234 44.964 28.8002C45.0884 28.6771 45.1873 28.5307 45.2552 28.3694C45.323 28.208 45.3584 28.0349 45.3593 27.8598C45.3603 27.6848 45.3267 27.5113 45.2606 27.3492C45.1945 27.1872 45.0971 27.0397 44.9739 26.9153C44.8508 26.7909 44.7044 26.6919 44.5431 26.6241C44.3817 26.5562 44.2086 26.5208 44.0335 26.5199C43.8585 26.519 43.685 26.5525 43.5229 26.6187L43.5707 26.6133Z" fill="#304046"/>
</g>
<mask id="path-4-outside-1_68_44" maskUnits="userSpaceOnUse" x="3" y="70" width="61" height="12" fill="black">
<rect fill="white" x="3" y="70" width="61" height="12"/>
<path d="M9.82955 73.4545C9.77841 73.0227 9.57102 72.6875 9.20739 72.4489C8.84375 72.2102 8.39773 72.0909 7.86932 72.0909C7.48295 72.0909 7.14489 72.1534 6.85511 72.2784C6.56818 72.4034 6.34375 72.5753 6.18182 72.794C6.02273 73.0128 5.94318 73.2614 5.94318 73.5398C5.94318 73.7727 5.99858 73.973 6.10938 74.1406C6.22301 74.3054 6.3679 74.4432 6.54403 74.554C6.72017 74.6619 6.90483 74.7514 7.09801 74.8224C7.29119 74.8906 7.46875 74.946 7.63068 74.9886L8.51705 75.2273C8.74432 75.2869 8.99716 75.3693 9.27557 75.4744C9.55682 75.5795 9.82528 75.723 10.081 75.9048C10.3395 76.0838 10.5526 76.3139 10.7202 76.5952C10.8878 76.8764 10.9716 77.2216 10.9716 77.6307C10.9716 78.1023 10.848 78.5284 10.6009 78.9091C10.3565 79.2898 9.99858 79.5923 9.52699 79.8168C9.05824 80.0412 8.48864 80.1534 7.81818 80.1534C7.19318 80.1534 6.65199 80.0526 6.1946 79.8509C5.74006 79.6491 5.3821 79.3679 5.12074 79.0071C4.86222 78.6463 4.71591 78.2273 4.68182 77.75H5.77273C5.80114 78.0795 5.91193 78.3523 6.10511 78.5682C6.30114 78.7812 6.5483 78.9403 6.84659 79.0455C7.14773 79.1477 7.47159 79.1989 7.81818 79.1989C8.22159 79.1989 8.58381 79.1335 8.90483 79.0028C9.22585 78.8693 9.48011 78.6847 9.66761 78.4489C9.85511 78.2102 9.94886 77.9318 9.94886 77.6136C9.94886 77.3239 9.8679 77.0881 9.70597 76.9062C9.54403 76.7244 9.33097 76.5767 9.06676 76.4631C8.80256 76.3494 8.51705 76.25 8.21023 76.1648L7.13636 75.858C6.45455 75.6619 5.91477 75.3821 5.51705 75.0185C5.11932 74.6548 4.92045 74.179 4.92045 73.5909C4.92045 73.1023 5.05256 72.6761 5.31676 72.3125C5.58381 71.946 5.94176 71.6619 6.39062 71.4602C6.84233 71.2557 7.34659 71.1534 7.90341 71.1534C8.46591 71.1534 8.96591 71.2543 9.40341 71.456C9.84091 71.6548 10.1875 71.9276 10.4432 72.2741C10.7017 72.6207 10.8381 73.0142 10.8523 73.4545H9.82955ZM12.7092 80V71.2727H17.9762V72.2102H13.766V75.1591H17.7035V76.0966H13.766V79.0625H18.0444V80H12.7092ZM25.8469 74C25.7532 73.7131 25.6296 73.456 25.4762 73.2287C25.3256 72.9986 25.1452 72.8026 24.935 72.6406C24.7276 72.4787 24.4918 72.3551 24.2276 72.2699C23.9634 72.1847 23.6737 72.142 23.3583 72.142C22.8413 72.142 22.3711 72.2756 21.9478 72.5426C21.5245 72.8097 21.1879 73.2031 20.9379 73.723C20.6879 74.2429 20.5629 74.8807 20.5629 75.6364C20.5629 76.392 20.6893 77.0298 20.9421 77.5497C21.195 78.0696 21.5373 78.4631 21.9691 78.7301C22.4009 78.9972 22.8867 79.1307 23.4265 79.1307C23.9265 79.1307 24.3668 79.0241 24.7475 78.8111C25.131 78.5952 25.4293 78.2912 25.6424 77.8991C25.8583 77.5043 25.9663 77.0398 25.9663 76.5057L26.2901 76.5739H23.6651V75.6364H26.989V76.5739C26.989 77.2926 26.8356 77.9176 26.5288 78.4489C26.2248 78.9801 25.8043 79.392 25.2674 79.6847C24.7333 79.9744 24.1197 80.1193 23.4265 80.1193C22.6538 80.1193 21.9748 79.9375 21.3896 79.5739C20.8072 79.2102 20.3526 78.6932 20.0259 78.0227C19.7021 77.3523 19.5401 76.5568 19.5401 75.6364C19.5401 74.946 19.6325 74.3253 19.8171 73.7741C20.0046 73.2202 20.2688 72.7486 20.6097 72.3594C20.9506 71.9702 21.354 71.6719 21.82 71.4645C22.2859 71.2571 22.7987 71.1534 23.3583 71.1534C23.8185 71.1534 24.2475 71.223 24.6452 71.3622C25.0458 71.4986 25.4023 71.6932 25.7148 71.946C26.0302 72.196 26.293 72.4957 26.5032 72.8452C26.7134 73.1918 26.8583 73.5767 26.9379 74H25.8469ZM34.5263 71.2727H35.5831V77.0511C35.5831 77.6477 35.4425 78.1804 35.1612 78.6491C34.8828 79.1151 34.4893 79.483 33.9808 79.7528C33.4723 80.0199 32.8757 80.1534 32.1911 80.1534C31.5064 80.1534 30.9098 80.0199 30.4013 79.7528C29.8928 79.483 29.4979 79.1151 29.2166 78.6491C28.9382 78.1804 28.799 77.6477 28.799 77.0511V71.2727H29.8558V76.9659C29.8558 77.392 29.9496 77.7713 30.1371 78.1037C30.3246 78.4332 30.5916 78.6932 30.9382 78.8835C31.2876 79.071 31.7053 79.1648 32.1911 79.1648C32.6768 79.1648 33.0945 79.071 33.4439 78.8835C33.7933 78.6932 34.0604 78.4332 34.245 78.1037C34.4325 77.7713 34.5263 77.392 34.5263 76.9659V71.2727ZM44.614 71.2727V80H43.5913L38.8356 73.1477H38.7504V80H37.6935V71.2727H38.7163L43.489 78.142H43.5742V71.2727H44.614ZM49.4219 80H46.7287V71.2727H49.5412C50.3878 71.2727 51.1122 71.4474 51.7145 71.7969C52.3168 72.1435 52.7784 72.642 53.0994 73.2926C53.4205 73.9403 53.581 74.7159 53.581 75.6193C53.581 76.5284 53.419 77.3111 53.0952 77.9673C52.7713 78.6207 52.2997 79.1236 51.6804 79.4759C51.0611 79.8253 50.3082 80 49.4219 80ZM47.7855 79.0625H49.3537C50.0753 79.0625 50.6733 78.9233 51.1477 78.6449C51.6222 78.3665 51.9759 77.9702 52.2088 77.456C52.4418 76.9418 52.5582 76.3295 52.5582 75.6193C52.5582 74.9148 52.4432 74.3082 52.2131 73.7997C51.983 73.2884 51.6392 72.8963 51.1818 72.6236C50.7244 72.348 50.1548 72.2102 49.473 72.2102H47.7855V79.0625ZM55.3015 80H54.1935L57.3981 71.2727H58.489L61.6935 80H60.5856L57.9776 72.6534H57.9094L55.3015 80ZM55.7106 76.5909H60.1765V77.5284H55.7106V76.5909Z"/>
</mask>
<path d="M9.82955 73.4545C9.77841 73.0227 9.57102 72.6875 9.20739 72.4489C8.84375 72.2102 8.39773 72.0909 7.86932 72.0909C7.48295 72.0909 7.14489 72.1534 6.85511 72.2784C6.56818 72.4034 6.34375 72.5753 6.18182 72.794C6.02273 73.0128 5.94318 73.2614 5.94318 73.5398C5.94318 73.7727 5.99858 73.973 6.10938 74.1406C6.22301 74.3054 6.3679 74.4432 6.54403 74.554C6.72017 74.6619 6.90483 74.7514 7.09801 74.8224C7.29119 74.8906 7.46875 74.946 7.63068 74.9886L8.51705 75.2273C8.74432 75.2869 8.99716 75.3693 9.27557 75.4744C9.55682 75.5795 9.82528 75.723 10.081 75.9048C10.3395 76.0838 10.5526 76.3139 10.7202 76.5952C10.8878 76.8764 10.9716 77.2216 10.9716 77.6307C10.9716 78.1023 10.848 78.5284 10.6009 78.9091C10.3565 79.2898 9.99858 79.5923 9.52699 79.8168C9.05824 80.0412 8.48864 80.1534 7.81818 80.1534C7.19318 80.1534 6.65199 80.0526 6.1946 79.8509C5.74006 79.6491 5.3821 79.3679 5.12074 79.0071C4.86222 78.6463 4.71591 78.2273 4.68182 77.75H5.77273C5.80114 78.0795 5.91193 78.3523 6.10511 78.5682C6.30114 78.7812 6.5483 78.9403 6.84659 79.0455C7.14773 79.1477 7.47159 79.1989 7.81818 79.1989C8.22159 79.1989 8.58381 79.1335 8.90483 79.0028C9.22585 78.8693 9.48011 78.6847 9.66761 78.4489C9.85511 78.2102 9.94886 77.9318 9.94886 77.6136C9.94886 77.3239 9.8679 77.0881 9.70597 76.9062C9.54403 76.7244 9.33097 76.5767 9.06676 76.4631C8.80256 76.3494 8.51705 76.25 8.21023 76.1648L7.13636 75.858C6.45455 75.6619 5.91477 75.3821 5.51705 75.0185C5.11932 74.6548 4.92045 74.179 4.92045 73.5909C4.92045 73.1023 5.05256 72.6761 5.31676 72.3125C5.58381 71.946 5.94176 71.6619 6.39062 71.4602C6.84233 71.2557 7.34659 71.1534 7.90341 71.1534C8.46591 71.1534 8.96591 71.2543 9.40341 71.456C9.84091 71.6548 10.1875 71.9276 10.4432 72.2741C10.7017 72.6207 10.8381 73.0142 10.8523 73.4545H9.82955ZM12.7092 80V71.2727H17.9762V72.2102H13.766V75.1591H17.7035V76.0966H13.766V79.0625H18.0444V80H12.7092ZM25.8469 74C25.7532 73.7131 25.6296 73.456 25.4762 73.2287C25.3256 72.9986 25.1452 72.8026 24.935 72.6406C24.7276 72.4787 24.4918 72.3551 24.2276 72.2699C23.9634 72.1847 23.6737 72.142 23.3583 72.142C22.8413 72.142 22.3711 72.2756 21.9478 72.5426C21.5245 72.8097 21.1879 73.2031 20.9379 73.723C20.6879 74.2429 20.5629 74.8807 20.5629 75.6364C20.5629 76.392 20.6893 77.0298 20.9421 77.5497C21.195 78.0696 21.5373 78.4631 21.9691 78.7301C22.4009 78.9972 22.8867 79.1307 23.4265 79.1307C23.9265 79.1307 24.3668 79.0241 24.7475 78.8111C25.131 78.5952 25.4293 78.2912 25.6424 77.8991C25.8583 77.5043 25.9663 77.0398 25.9663 76.5057L26.2901 76.5739H23.6651V75.6364H26.989V76.5739C26.989 77.2926 26.8356 77.9176 26.5288 78.4489C26.2248 78.9801 25.8043 79.392 25.2674 79.6847C24.7333 79.9744 24.1197 80.1193 23.4265 80.1193C22.6538 80.1193 21.9748 79.9375 21.3896 79.5739C20.8072 79.2102 20.3526 78.6932 20.0259 78.0227C19.7021 77.3523 19.5401 76.5568 19.5401 75.6364C19.5401 74.946 19.6325 74.3253 19.8171 73.7741C20.0046 73.2202 20.2688 72.7486 20.6097 72.3594C20.9506 71.9702 21.354 71.6719 21.82 71.4645C22.2859 71.2571 22.7987 71.1534 23.3583 71.1534C23.8185 71.1534 24.2475 71.223 24.6452 71.3622C25.0458 71.4986 25.4023 71.6932 25.7148 71.946C26.0302 72.196 26.293 72.4957 26.5032 72.8452C26.7134 73.1918 26.8583 73.5767 26.9379 74H25.8469ZM34.5263 71.2727H35.5831V77.0511C35.5831 77.6477 35.4425 78.1804 35.1612 78.6491C34.8828 79.1151 34.4893 79.483 33.9808 79.7528C33.4723 80.0199 32.8757 80.1534 32.1911 80.1534C31.5064 80.1534 30.9098 80.0199 30.4013 79.7528C29.8928 79.483 29.4979 79.1151 29.2166 78.6491C28.9382 78.1804 28.799 77.6477 28.799 77.0511V71.2727H29.8558V76.9659C29.8558 77.392 29.9496 77.7713 30.1371 78.1037C30.3246 78.4332 30.5916 78.6932 30.9382 78.8835C31.2876 79.071 31.7053 79.1648 32.1911 79.1648C32.6768 79.1648 33.0945 79.071 33.4439 78.8835C33.7933 78.6932 34.0604 78.4332 34.245 78.1037C34.4325 77.7713 34.5263 77.392 34.5263 76.9659V71.2727ZM44.614 71.2727V80H43.5913L38.8356 73.1477H38.7504V80H37.6935V71.2727H38.7163L43.489 78.142H43.5742V71.2727H44.614ZM49.4219 80H46.7287V71.2727H49.5412C50.3878 71.2727 51.1122 71.4474 51.7145 71.7969C52.3168 72.1435 52.7784 72.642 53.0994 73.2926C53.4205 73.9403 53.581 74.7159 53.581 75.6193C53.581 76.5284 53.419 77.3111 53.0952 77.9673C52.7713 78.6207 52.2997 79.1236 51.6804 79.4759C51.0611 79.8253 50.3082 80 49.4219 80ZM47.7855 79.0625H49.3537C50.0753 79.0625 50.6733 78.9233 51.1477 78.6449C51.6222 78.3665 51.9759 77.9702 52.2088 77.456C52.4418 76.9418 52.5582 76.3295 52.5582 75.6193C52.5582 74.9148 52.4432 74.3082 52.2131 73.7997C51.983 73.2884 51.6392 72.8963 51.1818 72.6236C50.7244 72.348 50.1548 72.2102 49.473 72.2102H47.7855V79.0625ZM55.3015 80H54.1935L57.3981 71.2727H58.489L61.6935 80H60.5856L57.9776 72.6534H57.9094L55.3015 80ZM55.7106 76.5909H60.1765V77.5284H55.7106V76.5909Z" fill="white"/>
<path d="M9.82955 73.4545L8.83648 73.5721L8.94098 74.4545H9.82955V73.4545ZM9.20739 72.4489L8.65873 73.2849L8.65873 73.2849L9.20739 72.4489ZM6.85511 72.2784L6.45902 71.3602L6.45572 71.3616L6.85511 72.2784ZM6.18182 72.794L5.37805 72.199L5.37308 72.2059L6.18182 72.794ZM6.10938 74.1406L5.27516 74.6921L5.28058 74.7003L5.28616 74.7084L6.10938 74.1406ZM6.54403 74.554L6.01155 75.4005L6.02147 75.4066L6.54403 74.554ZM7.09801 74.8224L6.75292 75.7611L6.76519 75.7654L7.09801 74.8224ZM7.63068 74.9886L7.89066 74.023L7.88517 74.0216L7.63068 74.9886ZM8.51705 75.2273L8.25707 76.1929L8.26315 76.1945L8.51705 75.2273ZM9.27557 75.4744L8.92235 76.41L8.92548 76.4111L9.27557 75.4744ZM10.081 75.9048L9.5014 76.7198L9.51176 76.727L10.081 75.9048ZM10.7202 76.5952L11.5792 76.0832L11.5792 76.0832L10.7202 76.5952ZM10.6009 78.9091L9.76211 78.3645L9.75927 78.369L10.6009 78.9091ZM9.52699 79.8168L9.09727 78.9138L9.09515 78.9148L9.52699 79.8168ZM6.1946 79.8509L5.78899 80.7649L5.7911 80.7658L6.1946 79.8509ZM5.12074 79.0071L4.30786 79.5896L4.3109 79.5938L5.12074 79.0071ZM4.68182 77.75V76.75H3.60784L3.68436 77.8212L4.68182 77.75ZM5.77273 77.75L6.76903 77.6641L6.69023 76.75H5.77273V77.75ZM6.10511 78.5682L5.3598 79.235L5.36918 79.2452L6.10511 78.5682ZM6.84659 79.0455L6.51422 79.9887L6.52501 79.9923L6.84659 79.0455ZM8.90483 79.0028L9.28188 79.9291L9.28886 79.9262L8.90483 79.0028ZM9.66761 78.4489L10.4503 79.0713L10.4539 79.0667L9.66761 78.4489ZM9.70597 76.9062L10.4527 76.2412L10.4527 76.2412L9.70597 76.9062ZM9.06676 76.4631L8.67165 77.3817L8.67165 77.3817L9.06676 76.4631ZM8.21023 76.1648L7.9355 77.1263L7.94258 77.1283L8.21023 76.1648ZM7.13636 75.858L6.86006 76.819L6.86164 76.8195L7.13636 75.858ZM5.51705 75.0185L4.84228 75.7565L4.84228 75.7565L5.51705 75.0185ZM5.31676 72.3125L4.50857 71.7236L4.50775 71.7247L5.31676 72.3125ZM6.39062 71.4602L6.80051 72.3724L6.80313 72.3712L6.39062 71.4602ZM9.40341 71.456L8.98472 72.3641L8.98961 72.3663L9.40341 71.456ZM10.4432 72.2741L9.63845 72.8678L9.64161 72.872L10.4432 72.2741ZM10.8523 73.4545V74.4545H11.8851L11.8518 73.4223L10.8523 73.4545ZM10.8226 73.3369C10.7367 72.6117 10.3666 72.0135 9.75604 71.6128L8.65873 73.2849C8.77546 73.3615 8.8201 73.4338 8.83648 73.5721L10.8226 73.3369ZM9.75604 71.6128C9.19733 71.2462 8.5504 71.0909 7.86932 71.0909V73.0909C8.24505 73.0909 8.49017 73.1743 8.65873 73.2849L9.75604 71.6128ZM7.86932 71.0909C7.3765 71.0909 6.89859 71.1706 6.45902 71.3602L7.2512 73.1966C7.39119 73.1362 7.58941 73.0909 7.86932 73.0909V71.0909ZM6.45572 71.3616C6.03257 71.546 5.65905 71.8195 5.37808 72.1991L6.98556 73.389C7.02845 73.3311 7.1038 73.2608 7.2545 73.1952L6.45572 71.3616ZM5.37308 72.2059C5.08584 72.6008 4.94318 73.0567 4.94318 73.5398H6.94318C6.94318 73.4661 6.95961 73.4247 6.99055 73.3822L5.37308 72.2059ZM4.94318 73.5398C4.94318 73.9368 5.03982 74.336 5.27516 74.6921L6.94359 73.5892C6.94804 73.5959 6.94923 73.6006 6.94854 73.5981C6.94756 73.5946 6.94318 73.5769 6.94318 73.5398H4.94318ZM5.28616 74.7084C5.47987 74.9892 5.72527 75.2203 6.01158 75.4004L7.07649 73.7075C7.01053 73.666 6.96616 73.6216 6.93259 73.5729L5.28616 74.7084ZM6.02147 75.4066C6.25359 75.5488 6.49768 75.6672 6.75295 75.761L7.44308 73.8839C7.31198 73.8357 7.18675 73.775 7.0666 73.7014L6.02147 75.4066ZM6.76519 75.7654C6.9787 75.8408 7.18278 75.9048 7.37619 75.9557L7.88517 74.0216C7.75472 73.9872 7.60369 73.9405 7.43083 73.8795L6.76519 75.7654ZM7.37071 75.9543L8.25707 76.1929L8.77702 74.2617L7.89066 74.023L7.37071 75.9543ZM8.26315 76.1945C8.44933 76.2434 8.66836 76.3141 8.92235 76.41L9.62878 74.5389C9.32596 74.4246 9.03931 74.3305 8.77094 74.26L8.26315 76.1945ZM8.92548 76.4111C9.1217 76.4845 9.31343 76.5861 9.50144 76.7198L10.6605 75.0899C10.3371 74.8599 9.99194 74.6746 9.62565 74.5377L8.92548 76.4111ZM9.51176 76.727C9.64771 76.8211 9.76372 76.9436 9.86115 77.1071L11.5792 76.0832C11.3414 75.6842 11.0313 75.3465 10.6502 75.0826L9.51176 76.727ZM9.86115 77.1071C9.91608 77.1993 9.97159 77.3573 9.97159 77.6307H11.9716C11.9716 77.0859 11.8595 76.5536 11.5792 76.0832L9.86115 77.1071ZM9.97159 77.6307C9.97159 77.9169 9.89978 78.1525 9.76212 78.3645L11.4396 79.4536C11.7962 78.9043 11.9716 78.2876 11.9716 77.6307H9.97159ZM9.75927 78.369C9.63049 78.5696 9.42697 78.7569 9.09727 78.9138L9.95671 80.7197C10.5702 80.4278 11.0826 80.0099 11.4424 79.4492L9.75927 78.369ZM9.09515 78.9148C8.79441 79.0588 8.38096 79.1534 7.81818 79.1534V81.1534C8.59631 81.1534 9.32206 81.0236 9.95883 80.7187L9.09515 78.9148ZM7.81818 79.1534C7.29843 79.1534 6.90077 79.0693 6.5981 78.9359L5.7911 80.7658C6.40321 81.0358 7.08794 81.1534 7.81818 81.1534V79.1534ZM6.60021 78.9368C6.28775 78.7982 6.07678 78.6223 5.93058 78.4204L4.3109 79.5938C4.68742 80.1135 5.19236 80.5001 5.78899 80.7649L6.60021 78.9368ZM5.93361 78.4247C5.79102 78.2257 5.70128 77.9868 5.67928 77.6788L3.68436 77.8212C3.73054 78.4678 3.93341 79.0669 4.30787 79.5896L5.93361 78.4247ZM4.68182 78.75H5.77273V76.75H4.68182V78.75ZM4.77642 77.8359C4.82068 78.3492 5.00233 78.8354 5.35987 79.235L6.85035 77.9014C6.82153 77.8692 6.7816 77.8099 6.76903 77.6641L4.77642 77.8359ZM5.36918 79.2452C5.68595 79.5896 6.07625 79.8343 6.51424 79.9886L7.17894 78.1023C7.02034 78.0464 6.91632 77.9729 6.84104 77.8911L5.36918 79.2452ZM6.52501 79.9923C6.9386 80.1328 7.37201 80.1989 7.81818 80.1989V78.1989C7.57117 78.1989 7.35685 78.1627 7.16817 78.0986L6.52501 79.9923ZM7.81818 80.1989C8.32996 80.1989 8.82317 80.1158 9.28187 79.929L8.52779 78.0766C8.34445 78.1513 8.11323 78.1989 7.81818 78.1989V80.1989ZM9.28886 79.9262C9.7418 79.7378 10.1423 79.4586 10.4503 79.0713L8.88491 77.8265C8.81795 77.9107 8.70991 78.0009 8.52079 78.0795L9.28886 79.9262ZM10.4539 79.0667C10.7869 78.6429 10.9489 78.1442 10.9489 77.6136H8.94886C8.94886 77.7194 8.92332 77.7776 8.8813 77.831L10.4539 79.0667ZM10.9489 77.6136C10.9489 77.1278 10.8078 76.6398 10.4527 76.2412L8.9592 77.5713C8.95548 77.5672 8.9514 77.5617 8.94782 77.5555C8.94426 77.5494 8.94266 77.5451 8.94234 77.5442C8.94165 77.5422 8.94886 77.5617 8.94886 77.6136H10.9489ZM10.4527 76.2412C10.1775 75.9321 9.83632 75.7055 9.46187 75.5444L8.67165 77.3817C8.82562 77.4479 8.9106 77.5168 8.9592 77.5713L10.4527 76.2412ZM9.46187 75.5444C9.15212 75.4112 8.82359 75.2973 8.47787 75.2013L7.94258 77.1283C8.2105 77.2027 8.453 77.2877 8.67165 77.3817L9.46187 75.5444ZM8.48495 75.2032L7.41109 74.8964L6.86164 76.8195L7.93551 77.1263L8.48495 75.2032ZM7.41267 74.8969C6.83408 74.7305 6.44555 74.5124 6.19181 74.2804L4.84228 75.7565C5.384 76.2518 6.07502 76.5933 6.86006 76.819L7.41267 74.8969ZM6.19181 74.2804C6.02151 74.1247 5.92045 73.9268 5.92045 73.5909H3.92045C3.92045 74.4311 4.21712 75.1849 4.84228 75.7565L6.19181 74.2804ZM5.92045 73.5909C5.92045 73.294 5.99664 73.078 6.12577 72.9003L4.50775 71.7247C4.10847 72.2742 3.92045 72.9105 3.92045 73.5909H5.92045ZM6.12496 72.9014C6.28096 72.6873 6.49634 72.5091 6.80051 72.3724L5.98074 70.5481C5.38719 70.8148 4.88665 71.2047 4.50857 71.7236L6.12496 72.9014ZM6.80313 72.3712C7.11015 72.2322 7.47132 72.1534 7.90341 72.1534V70.1534C7.22186 70.1534 6.57451 70.2792 5.97812 70.5493L6.80313 72.3712ZM7.90341 72.1534C8.3454 72.1534 8.69872 72.2322 8.98473 72.3641L9.82209 70.5478C9.2331 70.2763 8.58642 70.1534 7.90341 70.1534V72.1534ZM8.98961 72.3663C9.29027 72.503 9.49528 72.6737 9.63846 72.8678L11.2479 71.6805C10.8797 71.1814 10.3916 70.8067 9.81721 70.5456L8.98961 72.3663ZM9.64161 72.872C9.77544 73.0515 9.84505 73.2467 9.85279 73.4868L11.8518 73.4223C11.8311 72.7817 11.628 72.19 11.2448 71.6763L9.64161 72.872ZM10.8523 72.4545H9.82955V74.4545H10.8523V72.4545ZM12.7092 80H11.7092V81H12.7092V80ZM12.7092 71.2727V70.2727H11.7092V71.2727H12.7092ZM17.9762 71.2727H18.9762V70.2727H17.9762V71.2727ZM17.9762 72.2102V73.2102H18.9762V72.2102H17.9762ZM13.766 72.2102V71.2102H12.766V72.2102H13.766ZM13.766 75.1591H12.766V76.1591H13.766V75.1591ZM17.7035 75.1591H18.7035V74.1591H17.7035V75.1591ZM17.7035 76.0966V77.0966H18.7035V76.0966H17.7035ZM13.766 76.0966V75.0966H12.766V76.0966H13.766ZM13.766 79.0625H12.766V80.0625H13.766V79.0625ZM18.0444 79.0625H19.0444V78.0625H18.0444V79.0625ZM18.0444 80V81H19.0444V80H18.0444ZM13.7092 80V71.2727H11.7092V80H13.7092ZM12.7092 72.2727H17.9762V70.2727H12.7092V72.2727ZM16.9762 71.2727V72.2102H18.9762V71.2727H16.9762ZM17.9762 71.2102H13.766V73.2102H17.9762V71.2102ZM12.766 72.2102V75.1591H14.766V72.2102H12.766ZM13.766 76.1591H17.7035V74.1591H13.766V76.1591ZM16.7035 75.1591V76.0966H18.7035V75.1591H16.7035ZM17.7035 75.0966H13.766V77.0966H17.7035V75.0966ZM12.766 76.0966V79.0625H14.766V76.0966H12.766ZM13.766 80.0625H18.0444V78.0625H13.766V80.0625ZM17.0444 79.0625V80H19.0444V79.0625H17.0444ZM18.0444 79H12.7092V81H18.0444V79ZM25.8469 74L24.8964 74.3106L25.1217 75H25.8469V74ZM25.4762 73.2287L24.6394 73.7762L24.6433 73.7822L24.6474 73.7882L25.4762 73.2287ZM24.935 72.6406L24.3196 73.4288L24.3248 73.4329L24.935 72.6406ZM24.2276 72.2699L24.5346 71.3182L24.5346 71.3182L24.2276 72.2699ZM20.9379 73.723L21.8391 74.1564L21.8391 74.1564L20.9379 73.723ZM20.9421 77.5497L20.0428 77.9871L20.0428 77.9871L20.9421 77.5497ZM24.7475 78.8111L25.2359 79.6837L25.2381 79.6825L24.7475 78.8111ZM25.6424 77.8991L24.765 77.4194L24.7638 77.4216L25.6424 77.8991ZM25.9663 76.5057L26.1723 75.5271L24.9663 75.2732V76.5057H25.9663ZM26.2901 76.5739V77.5739L26.4961 75.5953L26.2901 76.5739ZM23.6651 76.5739H22.6651V77.5739H23.6651V76.5739ZM23.6651 75.6364V74.6364H22.6651V75.6364H23.6651ZM26.989 75.6364H27.989V74.6364H26.989V75.6364ZM26.5288 78.4489L25.6628 77.9487L25.6608 77.9522L26.5288 78.4489ZM25.2674 79.6847L25.7443 80.5636L25.7459 80.5627L25.2674 79.6847ZM21.3896 79.5739L20.8599 80.4221L20.8618 80.4232L21.3896 79.5739ZM20.0259 78.0227L19.1255 78.4577L19.127 78.4608L20.0259 78.0227ZM19.8171 73.7741L18.8699 73.4535L18.8689 73.4565L19.8171 73.7741ZM20.6097 72.3594L21.362 73.0183L21.362 73.0183L20.6097 72.3594ZM24.6452 71.3622L24.3149 72.3061L24.323 72.3089L24.6452 71.3622ZM25.7148 71.946L25.0858 72.7235L25.0936 72.7296L25.7148 71.946ZM26.5032 72.8452L25.6463 73.3607L25.6482 73.3638L26.5032 72.8452ZM26.9379 74V75H28.1433L27.9207 73.8153L26.9379 74ZM26.7975 73.6894C26.6778 73.3231 26.5153 72.9807 26.3051 72.6692L24.6474 73.7882C24.7439 73.9312 24.8286 74.1031 24.8964 74.3106L26.7975 73.6894ZM26.313 72.6812C26.1034 72.3608 25.8474 72.0811 25.5452 71.8484L24.3248 73.4329C24.4431 73.524 24.5479 73.6363 24.6394 73.7762L26.313 72.6812ZM25.5504 71.8524C25.2456 71.6144 24.9042 71.4374 24.5346 71.3182L23.9206 73.2216C24.0794 73.2728 24.2096 73.343 24.3196 73.4288L25.5504 71.8524ZM24.5346 71.3182C24.1588 71.1969 23.7639 71.142 23.3583 71.142V73.142C23.5834 73.142 23.7681 73.1724 23.9206 73.2216L24.5346 71.3182ZM23.3583 71.142C22.659 71.142 22.0027 71.3256 21.4142 71.6969L22.4814 73.3884C22.7395 73.2255 23.0235 73.142 23.3583 73.142V71.142ZM21.4142 71.6969C20.809 72.0787 20.3553 72.6269 20.0366 73.2896L21.8391 74.1564C22.0204 73.7794 22.24 73.5407 22.4814 73.3884L21.4142 71.6969ZM20.0366 73.2896C19.7047 73.9799 19.5629 74.7753 19.5629 75.6364H21.5629C21.5629 74.9861 21.671 74.5059 21.8391 74.1564L20.0366 73.2896ZM19.5629 75.6364C19.5629 76.4989 19.7066 77.2957 20.0428 77.9871L21.8414 77.1124C21.672 76.7639 21.5629 76.2852 21.5629 75.6364H19.5629ZM20.0428 77.9871C20.3667 78.653 20.8288 79.2007 21.4431 79.5806L22.4951 77.8796C22.2458 77.7254 22.0232 77.4862 21.8414 77.1124L20.0428 77.9871ZM21.4431 79.5806C22.0431 79.9516 22.7132 80.1307 23.4265 80.1307V78.1307C23.0603 78.1307 22.7588 78.0427 22.4951 77.8796L21.4431 79.5806ZM23.4265 80.1307C24.0722 80.1307 24.6854 79.9918 25.2359 79.6837L24.2591 77.9385C24.0483 78.0565 23.7808 78.1307 23.4265 78.1307V80.1307ZM25.2381 79.6825C25.7878 79.373 26.2195 78.9315 26.521 78.3767L24.7638 77.4216C24.6392 77.6509 24.4743 77.8173 24.2569 77.9397L25.2381 79.6825ZM26.5198 78.3789C26.8299 77.8117 26.9663 77.1761 26.9663 76.5057H24.9663C24.9663 76.9034 24.8867 77.1968 24.765 77.4194L26.5198 78.3789ZM25.7603 77.4842L26.0841 77.5524L26.4961 75.5953L26.1723 75.5271L25.7603 77.4842ZM26.2901 75.5739H23.6651V77.5739H26.2901V75.5739ZM24.6651 76.5739V75.6364H22.6651V76.5739H24.6651ZM23.6651 76.6364H26.989V74.6364H23.6651V76.6364ZM25.989 75.6364V76.5739H27.989V75.6364H25.989ZM25.989 76.5739C25.989 77.1474 25.8678 77.5938 25.6628 77.9487L27.3947 78.949C27.8034 78.2414 27.989 77.4378 27.989 76.5739H25.989ZM25.6608 77.9522C25.4487 78.3229 25.163 78.6027 24.7889 78.8066L25.7459 80.5627C26.4457 80.1814 27.0009 79.6373 27.3967 78.9455L25.6608 77.9522ZM24.7905 78.8057C24.4223 79.0054 23.9768 79.1193 23.4265 79.1193V81.1193C24.2625 81.1193 25.0443 80.9434 25.7443 80.5636L24.7905 78.8057ZM23.4265 79.1193C22.817 79.1193 22.3254 78.9781 21.9173 78.7245L20.8618 80.4232C21.6241 80.8969 22.4905 81.1193 23.4265 81.1193V79.1193ZM21.9192 78.7256C21.5096 78.4699 21.1768 78.1016 20.9249 77.5847L19.127 78.4608C19.5285 79.2848 20.1047 79.9505 20.8599 80.4221L21.9192 78.7256ZM20.9264 77.5878C20.6816 77.0811 20.5401 76.441 20.5401 75.6364H18.5401C18.5401 76.6726 18.7225 77.6234 19.1255 78.4577L20.9264 77.5878ZM20.5401 75.6364C20.5401 75.0343 20.6207 74.5234 20.7653 74.0918L18.8689 73.4565C18.6442 74.1271 18.5401 74.8577 18.5401 75.6364H20.5401ZM20.7643 74.0947C20.9152 73.6491 21.1182 73.2965 21.362 73.0183L19.8575 71.7005C19.4194 72.2006 19.0941 72.7913 18.8699 73.4536L20.7643 74.0947ZM21.362 73.0183C21.6089 72.7363 21.8949 72.5257 22.2266 72.3781L21.4133 70.5509C20.8131 70.818 20.2924 71.204 19.8575 71.7005L21.362 73.0183ZM22.2266 72.3781C22.5525 72.233 22.925 72.1534 23.3583 72.1534V70.1534C22.6723 70.1534 22.0192 70.2812 21.4133 70.5509L22.2266 72.3781ZM23.3583 72.1534C23.7164 72.1534 24.0327 72.2073 24.3149 72.3061L24.9756 70.4184C24.4623 70.2387 23.9207 70.1534 23.3583 70.1534V72.1534ZM24.323 72.3089C24.6181 72.4093 24.8696 72.5485 25.0858 72.7234L26.3438 71.1686C25.9351 70.8379 25.4736 70.5878 24.9675 70.4156L24.323 72.3089ZM25.0936 72.7296C25.3137 72.9041 25.4971 73.1126 25.6463 73.3607L27.3601 72.3297C27.0889 71.8788 26.7467 71.4879 26.3361 71.1624L25.0936 72.7296ZM25.6482 73.3638C25.7923 73.6014 25.8963 73.872 25.9551 74.1847L27.9207 73.8153C27.8203 73.2814 27.6346 72.7822 27.3582 72.3266L25.6482 73.3638ZM26.9379 73H25.8469V75H26.9379V73ZM34.5263 71.2727V70.2727H33.5263V71.2727H34.5263ZM35.5831 71.2727H36.5831V70.2727H35.5831V71.2727ZM35.1612 78.6491L34.3037 78.1347L34.3028 78.1362L35.1612 78.6491ZM33.9808 79.7528L34.4458 80.6382L34.4496 80.6361L33.9808 79.7528ZM30.4013 79.7528L29.9325 80.6362L29.9363 80.6382L30.4013 79.7528ZM29.2166 78.6491L28.3568 79.1598L28.3605 79.1659L29.2166 78.6491ZM28.799 71.2727V70.2727H27.799V71.2727H28.799ZM29.8558 71.2727H30.8558V70.2727H29.8558V71.2727ZM30.1371 78.1037L29.2661 78.595L29.2679 78.5982L30.1371 78.1037ZM30.9382 78.8835L30.4568 79.7601L30.4654 79.7647L30.9382 78.8835ZM33.4439 78.8835L33.9167 79.7647L33.9222 79.7617L33.4439 78.8835ZM34.245 78.1037L33.374 77.6124L33.3727 77.6149L34.245 78.1037ZM34.5263 72.2727H35.5831V70.2727H34.5263V72.2727ZM34.5831 71.2727V77.0511H36.5831V71.2727H34.5831ZM34.5831 77.0511C34.5831 77.4836 34.4833 77.8354 34.3037 78.1347L36.0187 79.1636C36.4016 78.5254 36.5831 77.8119 36.5831 77.0511H34.5831ZM34.3028 78.1362C34.1238 78.4358 33.8695 78.6798 33.512 78.8695L34.4496 80.6361C35.1092 80.2861 35.6418 79.7943 36.0196 79.1621L34.3028 78.1362ZM33.5159 78.8675C33.1759 79.046 32.7447 79.1534 32.1911 79.1534V81.1534C33.0067 81.1534 33.7687 80.9937 34.4458 80.6382L33.5159 78.8675ZM32.1911 79.1534C31.6374 79.1534 31.2062 79.046 30.8662 78.8675L29.9363 80.6382C30.6134 80.9937 31.3754 81.1534 32.1911 81.1534V79.1534ZM30.8701 78.8695C30.5118 78.6794 30.2549 78.4342 30.0727 78.1324L28.3605 79.1659C28.7408 79.7959 29.2737 80.2865 29.9325 80.6361L30.8701 78.8695ZM30.0764 78.1385C29.8983 77.8386 29.799 77.4855 29.799 77.0511H27.799C27.799 77.81 27.9781 78.5222 28.3568 79.1598L30.0764 78.1385ZM29.799 77.0511V71.2727H27.799V77.0511H29.799ZM28.799 72.2727H29.8558V70.2727H28.799V72.2727ZM28.8558 71.2727V76.9659H30.8558V71.2727H28.8558ZM28.8558 76.9659C28.8558 77.5437 28.9845 78.0958 29.2661 78.595L31.0081 77.6124C30.9147 77.4468 30.8558 77.2404 30.8558 76.9659H28.8558ZM29.2679 78.5982C29.5509 79.0956 29.9554 79.4847 30.4568 79.76L31.4196 78.007C31.2278 77.9017 31.0983 77.7709 31.0062 77.6092L29.2679 78.5982ZM30.4654 79.7647C30.9894 80.0459 31.577 80.1648 32.1911 80.1648V78.1648C31.8336 78.1648 31.5858 78.0962 31.411 78.0024L30.4654 79.7647ZM32.1911 80.1648C32.8051 80.1648 33.3927 80.0459 33.9167 79.7647L32.9711 78.0024C32.7963 78.0962 32.5486 78.1648 32.1911 78.1648V80.1648ZM33.9222 79.7617C34.4278 79.4863 34.8357 79.0953 35.1174 78.5925L33.3727 77.6149C33.2851 77.7712 33.1588 77.9001 32.9655 78.0054L33.9222 79.7617ZM35.116 78.595C35.3976 78.0958 35.5263 77.5437 35.5263 76.9659H33.5263C33.5263 77.2404 33.4674 77.4468 33.3741 77.6124L35.116 78.595ZM35.5263 76.9659V71.2727H33.5263V76.9659H35.5263ZM44.614 71.2727H45.614V70.2727H44.614V71.2727ZM44.614 80V81H45.614V80H44.614ZM43.5913 80L42.7697 80.5702L43.0681 81H43.5913V80ZM38.8356 73.1477L39.6571 72.5776L39.3588 72.1477H38.8356V73.1477ZM38.7504 73.1477V72.1477H37.7504V73.1477H38.7504ZM38.7504 80V81H39.7504V80H38.7504ZM37.6935 80H36.6935V81H37.6935V80ZM37.6935 71.2727V70.2727H36.6935V71.2727H37.6935ZM38.7163 71.2727L39.5375 70.7021L39.2391 70.2727H38.7163V71.2727ZM43.489 78.142L42.6678 78.7126L42.9661 79.142H43.489V78.142ZM43.5742 78.142V79.142H44.5742V78.142H43.5742ZM43.5742 71.2727V70.2727H42.5742V71.2727H43.5742ZM43.614 71.2727V80H45.614V71.2727H43.614ZM44.614 79H43.5913V81H44.614V79ZM44.4128 79.4298L39.6571 72.5776L38.0141 73.7179L42.7697 80.5702L44.4128 79.4298ZM38.8356 72.1477H38.7504V74.1477H38.8356V72.1477ZM37.7504 73.1477V80H39.7504V73.1477H37.7504ZM38.7504 79H37.6935V81H38.7504V79ZM38.6935 80V71.2727H36.6935V80H38.6935ZM37.6935 72.2727H38.7163V70.2727H37.6935V72.2727ZM37.895 71.8433L42.6678 78.7126L44.3102 77.5715L39.5375 70.7021L37.895 71.8433ZM43.489 79.142H43.5742V77.142H43.489V79.142ZM44.5742 78.142V71.2727H42.5742V78.142H44.5742ZM43.5742 72.2727H44.614V70.2727H43.5742V72.2727ZM46.7287 80H45.7287V81H46.7287V80ZM46.7287 71.2727V70.2727H45.7287V71.2727H46.7287ZM51.7145 71.7969L51.2126 72.6618L51.2157 72.6636L51.7145 71.7969ZM53.0994 73.2926L52.2027 73.7351L52.2034 73.7367L53.0994 73.2926ZM53.0952 77.9673L53.9912 78.4114L53.9919 78.4099L53.0952 77.9673ZM51.6804 79.4759L52.1718 80.3468L52.1748 80.3451L51.6804 79.4759ZM47.7855 79.0625H46.7855V80.0625H47.7855V79.0625ZM52.2131 73.7997L51.3011 74.2101L51.302 74.212L52.2131 73.7997ZM51.1818 72.6236L50.6658 73.4801L50.6697 73.4825L51.1818 72.6236ZM47.7855 72.2102V71.2102H46.7855V72.2102H47.7855ZM49.4219 79H46.7287V81H49.4219V79ZM47.7287 80V71.2727H45.7287V80H47.7287ZM46.7287 72.2727H49.5412V70.2727H46.7287V72.2727ZM49.5412 72.2727C50.2495 72.2727 50.7926 72.4181 51.2126 72.6618L52.2163 70.9319C51.4318 70.4768 50.5261 70.2727 49.5412 70.2727V72.2727ZM51.2157 72.6636C51.6384 72.9068 51.9653 73.254 52.2027 73.7351L53.9962 72.8501C53.5916 72.0301 52.9951 71.3801 52.2133 70.9301L51.2157 72.6636ZM52.2034 73.7367C52.4411 74.2163 52.581 74.8324 52.581 75.6193H54.581C54.581 74.5994 54.3998 73.6644 53.9954 72.8485L52.2034 73.7367ZM52.581 75.6193C52.581 76.4113 52.4399 77.0354 52.1984 77.5248L53.9919 78.4099C54.3981 77.5867 54.581 76.6455 54.581 75.6193H52.581ZM52.1992 77.5232C51.9616 78.0026 51.6278 78.3553 51.186 78.6066L52.1748 80.3451C52.9716 79.8918 53.581 79.2389 53.9912 78.4114L52.1992 77.5232ZM51.189 78.6049C50.7523 78.8513 50.1779 79 49.4219 79V81C50.4385 81 51.3698 80.7993 52.1718 80.3468L51.189 78.6049ZM47.7855 80.0625H49.3537V78.0625H47.7855V80.0625ZM49.3537 80.0625C50.1992 80.0625 50.9852 79.8997 51.6538 79.5074L50.6416 77.7824C50.3613 77.9469 49.9514 78.0625 49.3537 78.0625V80.0625ZM51.6538 79.5074C52.3113 79.1215 52.8039 78.5657 53.1197 77.8686L51.2979 77.0433C51.1478 77.3746 50.933 77.6114 50.6416 77.7824L51.6538 79.5074ZM53.1197 77.8686C53.4245 77.1959 53.5582 76.4363 53.5582 75.6193H51.5582C51.5582 76.2228 51.459 76.6877 51.2979 77.0433L53.1197 77.8686ZM53.5582 75.6193C53.5582 74.8087 53.4261 74.0548 53.1241 73.3874L51.302 74.212C51.4603 74.5617 51.5582 75.0209 51.5582 75.6193H53.5582ZM53.125 73.3894C52.8155 72.7015 52.3371 72.1481 51.694 71.7647L50.6697 73.4825C50.9413 73.6445 51.1504 73.8752 51.3011 74.2101L53.125 73.3894ZM51.6979 71.767C51.0471 71.3749 50.2871 71.2102 49.473 71.2102V73.2102C50.0226 73.2102 50.4018 73.3211 50.6658 73.4801L51.6979 71.767ZM49.473 71.2102H47.7855V73.2102H49.473V71.2102ZM46.7855 72.2102V79.0625H48.7855V72.2102H46.7855ZM55.3015 80V81H56.0076L56.2439 80.3345L55.3015 80ZM54.1935 80L53.2548 79.6553L52.7611 81H54.1935V80ZM57.3981 71.2727V70.2727H56.7L56.4594 70.928L57.3981 71.2727ZM58.489 71.2727L59.4277 70.928L59.1871 70.2727H58.489V71.2727ZM61.6935 80V81H63.126L62.6323 79.6553L61.6935 80ZM60.5856 80L59.6432 80.3345L59.8794 81H60.5856V80ZM57.9776 72.6534L58.92 72.3189L58.6838 71.6534H57.9776V72.6534ZM57.9094 72.6534V71.6534H57.2033L56.9671 72.3189L57.9094 72.6534ZM55.7106 76.5909V75.5909H54.7106V76.5909H55.7106ZM60.1765 76.5909H61.1765V75.5909H60.1765V76.5909ZM60.1765 77.5284V78.5284H61.1765V77.5284H60.1765ZM55.7106 77.5284H54.7106V78.5284H55.7106V77.5284ZM55.3015 79H54.1935V81H55.3015V79ZM55.1323 80.3447L58.3368 71.6174L56.4594 70.928L53.2548 79.6553L55.1323 80.3447ZM57.3981 72.2727H58.489V70.2727H57.3981V72.2727ZM57.5503 71.6174L60.7548 80.3447L62.6323 79.6553L59.4277 70.928L57.5503 71.6174ZM61.6935 79H60.5856V81H61.6935V79ZM61.528 79.6655L58.92 72.3189L57.0352 72.9879L59.6432 80.3345L61.528 79.6655ZM57.9776 71.6534H57.9094V73.6534H57.9776V71.6534ZM56.9671 72.3189L54.3591 79.6655L56.2439 80.3345L58.8518 72.9879L56.9671 72.3189ZM55.7106 77.5909H60.1765V75.5909H55.7106V77.5909ZM59.1765 76.5909V77.5284H61.1765V76.5909H59.1765ZM60.1765 76.5284H55.7106V78.5284H60.1765V76.5284ZM56.7106 77.5284V76.5909H54.7106V77.5284H56.7106Z" fill="black" mask="url(#path-4-outside-1_68_44)"/>
<defs>
<clipPath id="clip0_68_44">
<rect width="42.65" height="42.65" fill="white" transform="translate(23.5049 3.75262) rotate(27.2641)"/>
</clipPath>
</defs>
</svg>
